<svg width="110" height="18" viewBox="0 0 110 18" fill="none" xmlns="http://www.w3.org/2000/svg">
<path d="M16.28 17L16.256 6.92L11.312 15.224H9.56L4.64 7.136V17H0.992V0.199999H4.208L10.496 10.64L16.688 0.199999H19.88L19.928 17H16.28ZM36.2979 10.592C36.2979 10.64 36.2739 10.976 36.2259 11.6H26.4579C26.6339 12.4 27.0499 13.032 27.7059 13.496C28.3619 13.96 29.1779 14.192 30.1539 14.192C30.8259 14.192 31.4179 14.096 31.9299 13.904C32.4579 13.696 32.9459 13.376 33.3939 12.944L35.3859 15.104C34.1699 16.496 32.3939 17.192 30.0579 17.192C28.6019 17.192 27.3139 16.912 26.1939 16.352C25.0739 15.776 24.2099 14.984 23.6019 13.976C22.9939 12.968 22.6899 11.824 22.6899 10.544C22.6899 9.28 22.9859 8.144 23.5779 7.136C24.1859 6.112 25.0099 5.32 26.0499 4.76C27.1059 4.184 28.2819 3.896 29.5779 3.896C30.8419 3.896 31.9859 4.168 33.0099 4.712C34.0339 5.256 34.8339 6.04 35.4099 7.064C36.0019 8.072 36.2979 9.248 36.2979 10.592ZM29.6019 6.728C28.7539 6.728 28.0419 6.968 27.4659 7.448C26.8899 7.928 26.5379 8.584 26.4099 9.416H32.7699C32.6419 8.6 32.2899 7.952 31.7139 7.472C31.1379 6.976 30.4339 6.728 29.6019 6.728ZM51.4385 10.592C51.4385 10.64 51.4145 10.976 51.3665 11.6H41.5985C41.7745 12.4 42.1905 13.032 42.8465 13.496C43.5025 13.96 44.3185 14.192 45.2945 14.192C45.9665 14.192 46.5585 14.096 47.0705 13.904C47.5985 13.696 48.0865 13.376 48.5345 12.944L50.5265 15.104C49.3105 16.496 47.5345 17.192 45.1985 17.192C43.7425 17.192 42.4545 16.912 41.3345 16.352C40.2145 15.776 39.3505 14.984 38.7425 13.976C38.1345 12.968 37.8305 11.824 37.8305 10.544C37.8305 9.28 38.1265 8.144 38.7185 7.136C39.3265 6.112 40.1505 5.32 41.1905 4.76C42.2465 4.184 43.4225 3.896 44.7185 3.896C45.9825 3.896 47.1265 4.168 48.1505 4.712C49.1745 5.256 49.9745 6.04 50.5505 7.064C51.1425 8.072 51.4385 9.248 51.4385 10.592ZM44.7425 6.728C43.8945 6.728 43.1825 6.968 42.6065 7.448C42.0305 7.928 41.6785 8.584 41.5505 9.416H47.9105C47.7825 8.6 47.4305 7.952 46.8545 7.472C46.2785 6.976 45.5745 6.728 44.7425 6.728ZM62.2591 16.376C61.8911 16.648 61.4351 16.856 60.8911 17C60.3631 17.128 59.8031 17.192 59.2111 17.192C57.6751 17.192 56.4831 16.8 55.6351 16.016C54.8031 15.232 54.3871 14.08 54.3871 12.56V7.256H52.3951V4.376H54.3871V1.232H58.1311V4.376H61.3471V7.256H58.1311V12.512C58.1311 13.056 58.2671 13.48 58.5391 13.784C58.8271 14.072 59.2271 14.216 59.7391 14.216C60.3311 14.216 60.8351 14.056 61.2511 13.736L62.2591 16.376Z" fill="white"/>
<path d="M87.6937 3.896C89.3097 3.896 90.5897 4.376 91.5337 5.336C92.4937 6.28 92.9737 7.704 92.9737 9.608V17H89.2297V10.184C89.2297 9.16 89.0137 8.4 88.5817 7.904C88.1657 7.392 87.5657 7.136 86.7817 7.136C85.9017 7.136 85.2057 7.424 84.6937 8C84.1817 8.56 83.9257 9.4 83.9257 10.52V17H80.1817V10.184C80.1817 8.152 79.3657 7.136 77.7337 7.136C76.8697 7.136 76.1817 7.424 75.6697 8C75.1577 8.56 74.9017 9.4 74.9017 10.52V17H71.1577V4.088H74.7337V5.576C75.2137 5.032 75.7977 4.616 76.4857 4.328C77.1897 4.04 77.9577 3.896 78.7897 3.896C79.7017 3.896 80.5257 4.08 81.2617 4.448C81.9977 4.8 82.5897 5.32 83.0377 6.008C83.5657 5.336 84.2297 4.816 85.0297 4.448C85.8457 4.08 86.7337 3.896 87.6937 3.896ZM109.118 10.592C109.118 10.64 109.094 10.976 109.046 11.6H99.2782C99.4542 12.4 99.8702 13.032 100.526 13.496C101.182 13.96 101.998 14.192 102.974 14.192C103.646 14.192 104.238 14.096 104.75 13.904C105.278 13.696 105.766 13.376 106.214 12.944L108.206 15.104C106.99 16.496 105.214 17.192 102.878 17.192C101.422 17.192 100.134 16.912 99.0142 16.352C97.8942 15.776 97.0302 14.984 96.4222 13.976C95.8142 12.968 95.5102 11.824 95.5102 10.544C95.5102 9.28 95.8062 8.144 96.3982 7.136C97.0062 6.112 97.8302 5.32 98.8702 4.76C99.9262 4.184 101.102 3.896 102.398 3.896C103.662 3.896 104.806 4.168 105.83 4.712C106.854 5.256 107.654 6.04 108.23 7.064C108.822 8.072 109.118 9.248 109.118 10.592ZM102.422 6.728C101.574 6.728 100.862 6.968 100.286 7.448C99.7102 7.928 99.3582 8.584 99.2302 9.416H105.59C105.462 8.6 105.11 7.952 104.534 7.472C103.958 6.976 103.254 6.728 102.422 6.728Z" fill="#FF0230"/>
</svg>
