<svg width="22" height="22" viewBox="0 0 22 22" fill="none" xmlns="http://www.w3.org/2000/svg">
<path d="M7.77427 0.358013C8.14719 0.730939 8.23885 1.30101 8.00161 1.77204C7.38304 3.0002 7.03414 4.38822 7.03414 5.86127C7.03414 10.8896 11.1104 14.9659 16.1387 14.9659C17.6118 14.9659 18.9998 14.617 20.228 13.9984C20.699 13.7612 21.2691 13.8528 21.642 14.2257C22.0149 14.5987 22.1066 15.1687 21.8693 15.6398C19.9706 19.4096 16.0634 22 11.549 22C5.17068 22 0 16.8293 0 10.451C0 5.93658 2.59038 2.02939 6.36024 0.130669C6.83127 -0.106567 7.40134 -0.0149117 7.77427 0.358013ZM4.67096 4.48508C3.28334 6.08352 2.44444 8.16972 2.44444 10.451C2.44444 15.4793 6.52071 19.5556 11.549 19.5556C13.8303 19.5556 15.9165 18.7167 17.5149 17.329C17.0635 17.3827 16.6042 17.4103 16.1387 17.4103C9.76038 17.4103 4.5897 12.2396 4.5897 5.86127C4.5897 5.39578 4.61729 4.93652 4.67096 4.48508Z" fill="black"/>
</svg>
