<svg width="22" height="22" viewBox="0 0 22 22" fill="none" xmlns="http://www.w3.org/2000/svg">
<path d="M11 0C11.6075 0 12.1 0.492487 12.1 1.1V2.2C12.1 2.80751 11.6075 3.3 11 3.3C10.3925 3.3 9.9 2.80751 9.9 2.2V1.1C9.9 0.492487 10.3925 0 11 0ZM18.7782 3.22182C19.2078 3.65139 19.2078 4.34788 18.7782 4.77745L18.0004 5.55527C17.5708 5.98485 16.8744 5.98485 16.4448 5.55527C16.0152 5.12569 16.0152 4.42921 16.4448 3.99964L17.2226 3.22182C17.6522 2.79224 18.3487 2.79224 18.7782 3.22182ZM3.22182 3.22182C3.6514 2.79224 4.34788 2.79224 4.77745 3.22182L5.55527 3.99964C5.98485 4.42921 5.98485 5.12569 5.55527 5.55527C5.12569 5.98485 4.42921 5.98485 3.99964 5.55527L3.22182 4.77745C2.79224 4.34788 2.79224 3.6514 3.22182 3.22182ZM11 6.6C8.56995 6.6 6.6 8.56995 6.6 11C6.6 13.4301 8.56995 15.4 11 15.4C13.4301 15.4 15.4 13.4301 15.4 11C15.4 8.56995 13.4301 6.6 11 6.6ZM4.4 11C4.4 7.35492 7.35492 4.4 11 4.4C14.6451 4.4 17.6 7.35492 17.6 11C17.6 14.6451 14.6451 17.6 11 17.6C7.35492 17.6 4.4 14.6451 4.4 11ZM0 11C0 10.3925 0.492487 9.9 1.1 9.9H2.2C2.80751 9.9 3.3 10.3925 3.3 11C3.3 11.6075 2.80751 12.1 2.2 12.1H1.1C0.492487 12.1 0 11.6075 0 11ZM18.7 11C18.7 10.3925 19.1925 9.9 19.8 9.9H20.9C21.5075 9.9 22 10.3925 22 11C22 11.6075 21.5075 12.1 20.9 12.1H19.8C19.1925 12.1 18.7 11.6075 18.7 11ZM3.99964 16.4447C4.42921 16.0151 5.12569 16.0151 5.55527 16.4447C5.98485 16.8743 5.98485 17.5708 5.55527 18.0003L4.77745 18.7782C4.34788 19.2077 3.6514 19.2077 3.22182 18.7782C2.79224 18.3486 2.79224 17.6521 3.22182 17.2225L3.99964 16.4447ZM16.4448 18.0003C16.0152 17.5708 16.0152 16.8743 16.4448 16.4447C16.8744 16.0151 17.5708 16.0151 18.0004 16.4447L18.7782 17.2225C19.2078 17.6521 19.2078 18.3486 18.7782 18.7782C18.3487 19.2077 17.6522 19.2077 17.2226 18.7782L16.4448 18.0003ZM11 18.7C11.6075 18.7 12.1 19.1925 12.1 19.8V20.9C12.1 21.5075 11.6075 22 11 22C10.3925 22 9.9 21.5075 9.9 20.9V19.8C9.9 19.1925 10.3925 18.7 11 18.7Z" fill="white"/>
</svg>
