<svg width="39" height="47" viewBox="0 0 39 47" fill="none" xmlns="http://www.w3.org/2000/svg">
<g clip-path="url(#clip0_7_515)">
<path d="M38.1826 36.6277C37.4824 38.2698 36.6536 39.7813 35.6933 41.1709C34.3844 43.0654 33.3126 44.3767 32.4867 45.1049C31.2063 46.3002 29.8345 46.9123 28.3655 46.9471C27.3109 46.9471 26.0391 46.6425 24.5586 46.0245C23.0733 45.4095 21.7084 45.1049 20.4603 45.1049C19.1513 45.1049 17.7475 45.4095 16.2459 46.0245C14.742 46.6425 13.5305 46.9645 12.6043 46.9964C11.1956 47.0574 9.79145 46.4278 8.38989 45.1049C7.49534 44.3129 6.37644 42.9551 5.03605 41.0317C3.59791 38.9777 2.41557 36.5958 1.48929 33.8804C0.497289 30.9473 0 28.1071 0 25.3574C0 22.2076 0.670483 19.491 2.01345 17.2144C3.0689 15.3858 4.47303 13.9434 6.2304 12.8845C7.98777 11.8256 9.88662 11.2859 11.9315 11.2514C13.0504 11.2514 14.5177 11.6028 16.3411 12.2932C18.1593 12.986 19.3268 13.3373 19.8387 13.3373C20.2214 13.3373 21.5183 12.9265 23.717 12.1076C25.7961 11.348 27.5509 11.0335 28.9885 11.1574C32.8839 11.4766 35.8105 13.0353 37.7568 15.8436C34.2729 17.9864 32.5496 20.9877 32.5839 24.8378C32.6153 27.8367 33.687 30.3322 35.7934 32.3137C36.7479 33.2334 37.814 33.9442 39 34.449C38.7428 35.2062 38.4713 35.9315 38.1826 36.6277ZM29.2486 0.940755C29.2486 3.29129 28.4026 5.48598 26.7164 7.51736C24.6815 9.93227 22.2202 11.3277 19.5512 11.1075C19.5172 10.8255 19.4974 10.5287 19.4974 10.2169C19.4974 7.96036 20.4652 5.54545 22.1837 3.57093C23.0416 2.5712 24.1328 1.73993 25.456 1.07682C26.7764 0.423596 28.0254 0.0623501 29.2 0.000488281C29.2343 0.314718 29.2486 0.628968 29.2486 0.940725V0.940755Z" fill="#929090"/>
</g>
<defs>
<clipPath id="clip0_7_515">
<rect width="39" height="47" fill="white"/>
</clipPath>
</defs>
</svg>
