<svg width="604" height="785" viewBox="0 0 604 785" fill="none" xmlns="http://www.w3.org/2000/svg">
<path d="M121.824 0.655983L199.872 206H152.64L136.512 160.208H60.192L43.488 206H-2.592L75.456 0.655983H121.824ZM125.568 127.376L98.496 51.056L71.136 127.376H125.568ZM225.956 0.943996V35.504H185.06V0.943996H225.956ZM225.956 57.392V206H185.06V57.392H225.956ZM325.838 54.8V92.528C320.078 91.376 314.798 90.8 309.998 90.8C296.558 90.8 286.67 95.12 280.334 103.76C273.998 112.208 270.83 123.632 270.83 138.032V206H229.934V57.392H268.814V84.752C278.606 64.208 294.638 53.936 316.91 53.936C318.83 53.936 321.806 54.224 325.838 54.8ZM20.16 287.944H108.576C131.616 287.944 149.856 293.512 163.296 304.648C176.928 315.592 183.744 332.008 183.744 353.896C183.744 375.4 177.024 391.72 163.584 402.856C150.144 413.8 132.576 419.272 110.88 419.272H64.8V493H20.16V287.944ZM64.8 324.808V383.848H104.832C128.256 383.848 139.968 374.056 139.968 354.472C139.968 334.696 128.352 324.808 105.12 324.808H64.8ZM251.998 340.072C274.846 340.072 293.182 347.272 307.006 361.672C321.022 376.072 328.03 395.08 328.03 418.696C328.03 442.504 321.022 461.608 307.006 476.008C293.182 490.408 274.654 497.608 251.422 497.608C228.19 497.608 209.566 490.408 195.55 476.008C181.534 461.608 174.526 442.504 174.526 418.696C174.526 395.08 181.63 376.072 195.838 361.672C210.046 347.272 228.766 340.072 251.998 340.072ZM250.846 371.176C239.902 371.176 231.262 375.4 224.926 383.848C218.59 392.296 215.422 403.912 215.422 418.696C215.422 433.864 218.59 445.672 224.926 454.12C231.262 462.568 240.094 466.792 251.422 466.792C262.75 466.792 271.486 462.568 277.63 454.12C283.966 445.48 287.134 433.576 287.134 418.408C287.134 403.624 283.87 392.104 277.342 383.848C271.006 375.4 262.174 371.176 250.846 371.176ZM470.972 493H432.38V473.992C422.588 489.352 407.612 497.032 387.452 497.032C366.908 497.032 350.492 489.928 338.204 475.72C326.108 461.32 320.06 442.12 320.06 418.12C320.06 394.696 325.916 375.88 337.628 361.672C349.532 347.464 365.372 340.36 385.148 340.36C394.364 340.36 403.004 342.28 411.068 346.12C419.324 349.96 425.756 355.528 430.364 362.824V287.944H470.972V493ZM431.804 418.408C431.804 404.008 428.636 392.776 422.3 384.712C416.156 376.648 407.516 372.616 396.38 372.616C385.244 372.616 376.604 376.648 370.46 384.712C364.316 392.776 361.244 403.912 361.244 418.12C361.244 432.52 364.316 443.848 370.46 452.104C376.796 460.168 385.436 464.2 396.38 464.2C407.708 464.2 416.444 460.264 422.588 452.392C428.732 444.328 431.804 433 431.804 418.408ZM598.939 387.592H560.923C559.771 380.104 556.891 374.824 552.283 371.752C547.867 368.68 541.339 367.144 532.699 367.144C525.403 367.144 519.739 368.488 515.707 371.176C511.675 373.672 509.659 377.224 509.659 381.832C509.659 387.208 511.963 390.952 516.571 393.064C521.179 395.176 529.435 397.48 541.339 399.976C543.451 400.36 544.987 400.648 545.947 400.84C552.859 402.184 558.331 403.432 562.363 404.584C566.587 405.544 571.675 407.272 577.627 409.768C583.579 412.072 588.187 414.76 591.451 417.832C594.715 420.712 597.595 424.648 600.091 429.64C602.587 434.632 603.835 440.392 603.835 446.92C603.835 462.472 597.787 474.76 585.691 483.784C573.595 492.808 556.987 497.32 535.867 497.32C515.707 497.32 499.099 493 486.043 484.36C472.987 475.72 466.363 462.472 466.171 444.616H505.051C506.395 461.128 516.955 469.384 536.731 469.384C544.987 469.384 551.515 467.752 556.315 464.488C561.307 461.032 563.803 456.52 563.803 450.952C563.803 445.384 561.595 441.448 557.179 439.144C552.763 436.84 544.603 434.344 532.699 431.656C531.739 431.464 530.971 431.272 530.395 431.08C529.051 430.696 526.075 430.024 521.467 429.064C516.859 428.104 513.595 427.432 511.675 427.048C509.947 426.472 506.971 425.608 502.747 424.456C498.715 423.304 495.739 422.248 493.819 421.288C491.899 420.136 489.307 418.792 486.043 417.256C482.971 415.528 480.667 413.704 479.131 411.784C477.595 409.864 475.867 407.656 473.947 405.16C472.219 402.472 470.971 399.496 470.203 396.232C469.627 392.968 469.339 389.416 469.339 385.576C469.339 370.984 475.003 359.752 486.331 351.88C497.659 344.008 513.691 340.072 534.427 340.072C553.051 340.072 568.315 343.912 580.219 351.592C592.123 359.272 598.363 371.272 598.939 387.592ZM19.872 780V574.944H84.096L131.904 715.776L178.56 574.944H241.344V780H199.008V634.272L148.608 780H113.76L62.784 635.712V780H19.872ZM386.273 780H344.801C343.457 776.16 342.497 771.36 341.921 765.6C329.441 778.08 313.409 784.32 293.825 784.32C277.313 784.32 264.353 780.384 254.945 772.512C245.537 764.448 240.833 753.408 240.833 739.392C240.833 733.056 241.601 727.488 243.137 722.688C244.865 717.888 247.553 713.856 251.201 710.592C255.041 707.328 258.593 704.64 261.857 702.528C265.313 700.416 270.017 698.688 275.969 697.344C281.921 696 286.721 695.04 290.369 694.464C294.017 693.696 299.105 692.928 305.633 692.16C320.033 690.24 329.633 688.224 334.433 686.112C339.425 684 341.921 680.064 341.921 674.304C341.921 661.056 332.993 654.432 315.137 654.432C305.729 654.432 298.817 656.16 294.401 659.616C289.985 662.88 287.105 668.736 285.761 677.184H247.457C249.761 643.776 272.705 627.072 316.289 627.072C359.489 627.072 381.089 643.2 381.089 675.456V739.68C381.089 758.496 382.817 771.936 386.273 780ZM341.633 707.712C336.833 710.592 327.233 713.184 312.833 715.488C300.737 717.408 292.865 719.808 289.217 722.688C284.993 726.336 282.881 731.328 282.881 737.664C282.881 743.808 284.801 748.704 288.641 752.352C292.673 755.808 298.241 757.536 305.345 757.536C316.289 757.536 325.025 754.656 331.553 748.896C338.273 742.944 341.633 734.784 341.633 724.416V707.712ZM517.952 631.392L468.992 700.8L524 780H477.344L445.952 731.904L414.848 780H368.48L422.624 701.664L373.376 631.392H420.032L446.528 671.136L472.736 631.392H517.952Z" fill="#F9F7F7" fill-opacity="0.6"/>
</svg>
