<svg width="44" height="44" viewBox="0 0 44 44" fill="none" xmlns="http://www.w3.org/2000/svg">
<g opacity="0.9">
<path d="M22 0C15.6029 0 10.3984 5.20446 10.3984 11.6016C10.3984 17.9987 15.6029 23.2031 22 23.2031C28.3971 23.2031 33.6016 17.9987 33.6016 11.6016C33.6016 5.20446 28.3971 0 22 0Z" fill="#2A2625"/>
<path d="M36.4346 30.7824C33.2583 27.5573 29.0476 25.7812 24.5781 25.7812H19.4219C14.9524 25.7812 10.7417 27.5573 7.56542 30.7824C4.40473 33.9916 2.66406 38.2278 2.66406 42.7109C2.66406 43.4228 3.24122 44 3.95312 44H40.0469C40.7588 44 41.3359 43.4228 41.3359 42.7109C41.3359 38.2278 39.5953 33.9916 36.4346 30.7824Z" fill="#2A2625"/>
</g>
</svg>
