<svg width="34" height="34" viewBox="0 0 34 34" fill="none" xmlns="http://www.w3.org/2000/svg">
<g opacity="0.9">
<path d="M0.583643 8.03513H7.96875V0.583618L0.583643 8.03513Z" fill="#2A2625"/>
<path d="M25.9648 17.9961C21.5709 17.9961 17.9961 21.5709 17.9961 25.9648C17.9961 30.3587 21.5709 34 25.9648 34C30.3587 34 34 30.3587 34 25.9648C34 21.5709 30.3587 17.9961 25.9648 17.9961ZM29.6574 25.673L25.673 29.6574C25.2839 30.0464 24.6535 30.0464 24.2644 29.6574L22.2723 27.6652C21.8832 27.2761 21.8832 26.6457 22.2723 26.2566C22.6613 25.8676 23.2917 25.8676 23.6808 26.2566L24.9688 27.5446L28.2489 24.2644C28.638 23.8754 29.2684 23.8754 29.6574 24.2644C30.0465 24.6535 30.0465 25.2839 29.6574 25.673Z" fill="#2A2625"/>
<path d="M4.98047 21.9805H16.8483C18.3897 18.4688 21.8908 16.0039 25.9648 16.0039V2.98828C25.9648 1.34048 24.6244 0 22.9766 0H9.96094V9.03125C9.96094 9.58182 9.51542 10.0273 8.96484 10.0273H0V30.9453C0 32.5931 1.34048 34 2.98828 34H20.0499C18.1183 32.5618 16.7032 30.3999 16.2052 27.957H4.98047C4.42989 27.957 3.98438 27.5115 3.98438 26.9609C3.98438 26.4104 4.42989 25.9648 4.98047 25.9648H16.0039C16.0039 25.2827 16.074 24.6166 16.2052 23.9727H4.98047C4.42989 23.9727 3.98438 23.5271 3.98438 22.9766C3.98438 22.426 4.42989 21.9805 4.98047 21.9805ZM12.9492 6.04297H20.9844C21.5349 6.04297 21.9805 6.48849 21.9805 7.03906C21.9805 7.58964 21.5349 8.03516 20.9844 8.03516H12.9492C12.3986 8.03516 11.9531 7.58964 11.9531 7.03906C11.9531 6.48849 12.3986 6.04297 12.9492 6.04297ZM12.9492 10.0273H20.9844C21.5349 10.0273 21.9805 10.4729 21.9805 11.0234C21.9805 11.574 21.5349 12.0195 20.9844 12.0195H12.9492C12.3986 12.0195 11.9531 11.574 11.9531 11.0234C11.9531 10.4729 12.3986 10.0273 12.9492 10.0273ZM4.98047 14.0117H20.9844C21.5349 14.0117 21.9805 14.4572 21.9805 15.0078C21.9805 15.5584 21.5349 16.0039 20.9844 16.0039H4.98047C4.42989 16.0039 3.98438 15.5584 3.98438 15.0078C3.98438 14.4572 4.42989 14.0117 4.98047 14.0117ZM4.98047 17.9961H17.3735C17.9241 17.9961 18.3696 18.4416 18.3696 18.9922C18.3696 19.5428 17.9241 19.9883 17.3735 19.9883H4.98047C4.42989 19.9883 3.98438 19.5428 3.98438 18.9922C3.98438 18.4416 4.42989 17.9961 4.98047 17.9961Z" fill="#2A2625"/>
</g>
</svg>
