<svg width="34" height="34" viewBox="0 0 34 34" fill="none" xmlns="http://www.w3.org/2000/svg">
<g opacity="0.9">
<path d="M2.23217 12.4572C2.4109 13.07 2.65892 13.6609 2.97259 14.2153L2.07898 15.3423C1.7872 15.7107 1.82002 16.2359 2.14828 16.5678L3.68747 18.107C4.01938 18.4389 4.54461 18.4681 4.91299 18.1763L6.03273 17.29C6.60902 17.6219 7.22177 17.8808 7.86006 18.0632L8.02784 19.5039C8.08255 19.9708 8.47647 20.3209 8.94333 20.3209H11.1208C11.5877 20.3209 11.9816 19.9707 12.0363 19.5039L12.1968 18.1143C12.8825 17.9355 13.539 17.6693 14.1554 17.3228L15.2387 18.1799C15.6071 18.4717 16.1323 18.4389 16.4642 18.1106L18.0034 16.5714C18.3353 16.2395 18.3645 15.7143 18.0727 15.3459L17.2302 14.2772C17.5803 13.6717 17.8539 13.0262 18.0362 12.3514L19.3347 12.2019C19.8016 12.1472 20.1517 11.7532 20.1517 11.2864V9.1089C20.1517 8.64204 19.8015 8.24813 19.3347 8.19341L18.0545 8.04387C17.8793 7.3764 17.6168 6.73811 17.2813 6.13995L18.0691 5.14421C18.3609 4.77583 18.328 4.25061 17.9998 3.9187L16.4642 2.38316C16.1323 2.05125 15.6071 2.02207 15.2387 2.31386L14.2722 3.0798C13.6448 2.71142 12.9737 2.43057 12.2698 2.24091L12.1239 0.989862C12.0692 0.522999 11.6752 0.172852 11.2084 0.172852H9.0309C8.56404 0.172852 8.17013 0.522999 8.11542 0.989862L7.96952 2.24091C7.24734 2.43422 6.55799 2.72601 5.91605 3.10898L4.91303 2.31386C4.54464 2.02207 4.01942 2.05489 3.68751 2.38316L2.14832 3.92235C1.81641 4.25426 1.78723 4.77948 2.07902 5.14786L2.91792 6.20925C2.58236 6.81471 2.32704 7.46029 2.15926 8.13141L0.817032 8.2846C0.350168 8.33931 2.09808e-05 8.73322 2.09808e-05 9.20009V11.3776C2.09808e-05 11.8444 0.350168 12.2383 0.817032 12.2931L2.23217 12.4572ZM10.1214 6.56672C12.1056 6.56672 13.7214 8.18251 13.7214 10.1667C13.7214 12.1508 12.1056 13.7666 10.1214 13.7666C8.1373 13.7666 6.52148 12.1508 6.52148 10.1667C6.52148 8.18251 8.13726 6.56672 10.1214 6.56672Z" fill="#2A2625"/>
<path d="M31.6482 12.9934L30.4993 12.0232C30.1455 11.7241 29.6239 11.7387 29.2884 12.056L28.6537 12.6506C28.1176 12.3916 27.5486 12.2092 26.9613 12.1035L26.7827 11.2281C26.6915 10.7758 26.2721 10.4621 25.8124 10.4986L24.3133 10.6263C23.8538 10.6664 23.4927 11.0421 23.4781 11.5053L23.449 12.3952C22.8726 12.6031 22.3292 12.8876 21.8331 13.2451L21.0745 12.7417C20.6878 12.4864 20.1736 12.5594 19.8745 12.9132L18.9043 14.0694C18.6052 14.4232 18.6198 14.9448 18.9371 15.2803L19.6009 15.9879C19.3711 16.5058 19.207 17.0493 19.1122 17.6073L18.1639 17.8006C17.7116 17.8918 17.3979 18.3112 17.4344 18.7708L17.5621 20.2699C17.6022 20.7295 17.9779 21.0906 18.4411 21.1052L19.466 21.1379C19.6521 21.6267 19.8964 22.0899 20.1918 22.524L19.6192 23.3884C19.3639 23.775 19.4368 24.2893 19.7906 24.5884L20.9395 25.5586C21.2934 25.8576 21.8149 25.8431 22.1505 25.5257L22.9018 24.8218C23.3942 25.0516 23.9121 25.223 24.4447 25.3251L24.6526 26.3537C24.7438 26.806 25.1632 27.1196 25.6228 27.0832L27.1219 26.9555C27.5814 26.9154 27.9425 26.5397 27.9571 26.0765L27.9899 25.0698C28.537 24.8765 29.0549 24.6139 29.5327 24.2893L30.3607 24.8364C30.7473 25.0917 31.2616 25.0188 31.5607 24.665L32.5309 23.516C32.83 23.1622 32.8154 22.6407 32.4981 22.3051L31.8306 21.5976C32.075 21.0796 32.2537 20.5325 32.3558 19.9708L33.2676 19.7848C33.7199 19.6936 34.0336 19.2741 33.9971 18.8145L33.8695 17.3155C33.8293 16.8559 33.4537 16.4948 32.9904 16.4802L32.075 16.451C31.8853 15.9185 31.6299 15.4152 31.3127 14.9483L31.8123 14.197C32.075 13.8104 32.002 13.2925 31.6482 12.9934ZM25.9985 21.6595C24.379 21.7982 22.9492 20.5908 22.8143 18.9714C22.6756 17.352 23.883 15.9222 25.5024 15.7873C27.1218 15.6487 28.5516 16.856 28.6865 18.4754C28.8252 20.0948 27.6178 21.5246 25.9985 21.6595Z" fill="#2A2625"/>
<path d="M7.47709 25.6935C7.01752 25.7409 6.66373 26.1275 6.66008 26.5908L6.64914 27.5136C6.64184 27.9768 6.9847 28.3707 7.44427 28.4291L8.12268 28.5166C8.23575 28.9288 8.39623 29.3227 8.60413 29.6947L8.16645 30.2345C7.87466 30.5956 7.89654 31.1135 8.22116 31.4455L8.86674 32.1056C9.19136 32.4375 9.70928 32.474 10.0777 32.1895L10.6211 31.7701C11.0041 31.9962 11.409 32.175 11.832 32.2989L11.905 32.9992C11.9524 33.4588 12.339 33.8126 12.8022 33.8162L13.725 33.8272C14.1882 33.8345 14.5822 33.4916 14.6405 33.0321L14.7244 32.3682C15.184 32.2551 15.6217 32.0837 16.0375 31.8576L16.5481 32.2698C16.9092 32.5616 17.4272 32.5397 17.7591 32.215L18.4192 31.5695C18.7512 31.2449 18.7876 30.7269 18.5032 30.3585L18.1128 29.8515C18.3536 29.4503 18.5396 29.0236 18.6673 28.5749L19.2727 28.5129C19.7323 28.4655 20.0861 28.0789 20.0897 27.6157L20.1006 26.6929C20.108 26.2297 19.7651 25.8357 19.3056 25.7774L18.7146 25.7008C18.6016 25.2558 18.4338 24.8254 18.215 24.4242L18.5834 23.9719C18.8752 23.6108 18.8533 23.0929 18.5287 22.761L17.8831 22.1008C17.5585 21.7689 17.0405 21.7324 16.6722 22.0169L16.2308 22.3561C15.815 22.1045 15.37 21.9112 14.9032 21.7799L14.8448 21.2072C14.7974 20.7476 14.4108 20.3939 13.9475 20.3902L13.0247 20.3793C12.5615 20.372 12.1676 20.7148 12.1092 21.1744L12.0363 21.7434C11.5549 21.8674 11.0916 22.0571 10.6612 22.3051L10.2053 21.933C9.84424 21.6413 9.32627 21.6632 8.99436 21.9878L8.33054 22.637C7.99863 22.9616 7.96216 23.4796 8.24665 23.8479L8.63692 24.3513C8.41078 24.7525 8.23206 25.1792 8.11535 25.6279L7.47709 25.6935ZM13.4332 24.6503C14.7572 24.6649 15.8186 25.7555 15.804 27.0795C15.7895 28.4035 14.6989 29.4649 13.3749 29.4503C12.0509 29.4357 10.9895 28.3452 11.0041 27.0211C11.0187 25.6972 12.1093 24.6358 13.4332 24.6503Z" fill="#2A2625"/>
</g>
</svg>
