<svg width="64" height="64" viewBox="0 0 64 64" fill="none" xmlns="http://www.w3.org/2000/svg">
<path d="M18.087 26.1705C18.087 37.5571 28.0121 47.982 31.0966 50.9468C31.602 51.4326 32.3981 51.4326 32.9035 50.9468C35.988 47.982 45.9131 37.5571 45.9131 26.1705C45.9131 18.0816 38.9566 12.689 32 12.689C25.0435 12.689 18.087 18.0816 18.087 26.1705Z" fill="#2A2625"/>
<path fill-rule="evenodd" clip-rule="evenodd" d="M32 14.7112C37.9419 14.7112 43.8261 19.3276 43.8261 26.1705C43.8261 31.3196 41.5685 36.3884 38.8002 40.6373C36.3613 44.3807 33.6221 47.3412 32 48.9568C30.3779 47.3412 27.6387 44.3807 25.1998 40.6373C22.4315 36.3884 20.1739 31.3196 20.1739 26.1705C20.1739 19.3276 26.0581 14.7112 32 14.7112ZM48 26.1705C48 16.8356 39.9712 10.6667 32 10.6667C24.0288 10.6667 16 16.8356 16 26.1705C16 32.408 18.705 38.2449 21.6704 42.7964C24.6521 47.3728 28.0227 50.8406 29.6268 52.3825C30.9458 53.6504 33.0542 53.6504 34.3732 52.3825C35.9773 50.8406 39.3479 47.3728 42.3296 42.7964C45.295 38.2449 48 32.408 48 26.1705Z" fill="#2A2625"/>
<path d="M27.826 27.5186C27.826 29.7523 29.6947 31.563 31.9999 31.563C34.3051 31.563 36.1738 29.7523 36.1738 27.5186C36.1738 25.2849 34.3051 23.4741 31.9999 23.4741C29.6947 23.4741 27.826 25.2849 27.826 27.5186Z" fill="#EAEBF0"/>
</svg>
