<svg width="20" height="20" viewBox="0 0 20 20" fill="none" xmlns="http://www.w3.org/2000/svg">
<g opacity="0.8">
<path d="M14.3478 8.1783C14.3478 11.7366 11.2462 14.9944 10.2823 15.9209C10.1244 16.0727 9.8756 16.0727 9.71767 15.9209C8.75376 14.9944 5.65216 11.7366 5.65216 8.1783C5.65216 5.65052 7.82607 3.96533 9.99999 3.96533C12.1739 3.96533 14.3478 5.65052 14.3478 8.1783Z" fill="white"/>
<path fill-rule="evenodd" clip-rule="evenodd" d="M10 4.59726C8.14316 4.59726 6.30435 6.03988 6.30435 8.17828C6.30435 9.78738 7.00985 11.3714 7.87493 12.6992C8.63711 13.869 9.4931 14.7941 10 15.299C10.5069 14.7941 11.3629 13.869 12.1251 12.6992C12.9902 11.3714 13.6957 9.78738 13.6957 8.17828C13.6957 6.03988 11.8568 4.59726 10 4.59726ZM5 8.17828C5 5.26113 7.50901 3.33337 10 3.33337C12.491 3.33337 15 5.26113 15 8.17828C15 10.1275 14.1547 11.9516 13.228 13.3739C12.2962 14.804 11.2429 15.8877 10.7416 16.3696C10.3294 16.7658 9.67057 16.7658 9.25839 16.3696C8.7571 15.8877 7.70378 14.804 6.77199 13.3739C5.8453 11.9515 5 10.1275 5 8.17828Z" fill="white"/>
<path d="M11.3044 8.59958C11.3044 9.29761 10.7204 9.86347 10 9.86347C9.27965 9.86347 8.69568 9.29761 8.69568 8.59958C8.69568 7.90156 9.27965 7.33569 10 7.33569C10.7204 7.33569 11.3044 7.90156 11.3044 8.59958Z" fill="#2A2625"/>
</g>
</svg>
