<svg width="20" height="20" viewBox="0 0 20 20" fill="none" xmlns="http://www.w3.org/2000/svg">
<g opacity="0.8">
<path d="M14.3478 8.17805C14.3478 11.7364 11.2462 14.9942 10.2823 15.9207C10.1244 16.0725 9.8756 16.0725 9.71767 15.9207C8.75376 14.9942 5.65216 11.7364 5.65216 8.17805C5.65216 5.65027 7.82607 3.96509 9.99999 3.96509C12.1739 3.96509 14.3478 5.65027 14.3478 8.17805Z" fill="#2A2625"/>
<path fill-rule="evenodd" clip-rule="evenodd" d="M10 4.59714C8.14316 4.59714 6.30435 6.03975 6.30435 8.17816C6.30435 9.78726 7.00985 11.3713 7.87493 12.699C8.63711 13.8689 9.4931 14.794 10 15.2989C10.5069 14.794 11.3629 13.8689 12.1251 12.699C12.9902 11.3713 13.6957 9.78726 13.6957 8.17816C13.6957 6.03975 11.8568 4.59714 10 4.59714ZM5 8.17816C5 5.26101 7.50901 3.33325 10 3.33325C12.491 3.33325 15 5.26101 15 8.17816C15 10.1274 14.1547 11.9514 13.228 13.3738C12.2962 14.8039 11.2429 15.8876 10.7416 16.3694C10.3294 16.7656 9.67057 16.7656 9.25839 16.3694C8.7571 15.8876 7.70378 14.8039 6.77199 13.3738C5.8453 11.9514 5 10.1274 5 8.17816Z" fill="#2A2625"/>
<path d="M11.3044 8.59934C11.3044 9.29737 10.7204 9.86323 10 9.86323C9.27965 9.86323 8.69568 9.29737 8.69568 8.59934C8.69568 7.90131 9.27965 7.33545 10 7.33545C10.7204 7.33545 11.3044 7.90131 11.3044 8.59934Z" fill="#EAEBF0"/>
</g>
</svg>
