<svg width="113" height="23" viewBox="0 0 113 23" fill="none" xmlns="http://www.w3.org/2000/svg">
<path d="M12.725 10.85C13.717 11.3253 14.5023 12.0073 15.081 12.896C15.6803 13.7847 15.98 14.8077 15.98 15.965C15.98 17.701 15.3703 19.158 14.151 20.336C12.9316 21.514 11.4436 22.103 9.68695 22.103H0.324951V0.403H9.00495C10.6996 0.403 12.136 0.971334 13.314 2.108C14.492 3.24467 15.081 4.65 15.081 6.324C15.081 8.246 14.2956 9.75467 12.725 10.85ZM9.00495 3.1H3.20795V9.734H9.00495C9.91428 9.734 10.679 9.41367 11.299 8.773C11.919 8.13233 12.229 7.347 12.229 6.417C12.229 5.50767 11.9086 4.73267 11.268 4.092C10.648 3.43067 9.89362 3.1 9.00495 3.1ZM9.68695 19.406C10.6583 19.406 11.4746 19.065 12.136 18.383C12.7973 17.701 13.128 16.864 13.128 15.872C13.128 14.9007 12.787 14.074 12.105 13.392C11.4436 12.71 10.6376 12.369 9.68695 12.369H3.20795V19.406H9.68695Z" fill="#2A2625"/>
<path d="M32.2622 22.103L27.3952 13.795H22.2802V22.103H19.3972V0.403H28.0772C29.9372 0.403 31.5285 1.06433 32.8512 2.387C34.1739 3.689 34.8352 5.27 34.8352 7.13C34.8352 8.53533 34.4115 9.81667 33.5642 10.974C32.7375 12.1313 31.6629 12.9477 30.3402 13.423L35.4552 22.103H32.2622ZM22.2802 3.1V11.191H28.0772C29.1519 11.191 30.0612 10.7983 30.8052 10.013C31.5699 9.207 31.9522 8.246 31.9522 7.13C31.9522 6.014 31.5699 5.06333 30.8052 4.278C30.0612 3.49267 29.1519 3.1 28.0772 3.1H22.2802Z" fill="#2A2625"/>
<path d="M52.6394 22.103L50.8724 17.236H41.1074L39.3404 22.103H36.2714L44.3624 0.403H47.6174L55.7084 22.103H52.6394ZM42.0994 14.539H49.8804L45.9744 3.844L42.0994 14.539Z" fill="#2A2625"/>
<path d="M70.6683 10.85C71.6603 11.3253 72.4456 12.0073 73.0243 12.896C73.6236 13.7847 73.9233 14.8077 73.9233 15.965C73.9233 17.701 73.3136 19.158 72.0943 20.336C70.875 21.514 69.387 22.103 67.6303 22.103H58.2683V0.403H66.9483C68.643 0.403 70.0793 0.971334 71.2573 2.108C72.4353 3.24467 73.0243 4.65 73.0243 6.324C73.0243 8.246 72.239 9.75467 70.6683 10.85ZM66.9483 3.1H61.1513V9.734H66.9483C67.8576 9.734 68.6223 9.41367 69.2423 8.773C69.8623 8.13233 70.1723 7.347 70.1723 6.417C70.1723 5.50767 69.852 4.73267 69.2113 4.092C68.5913 3.43067 67.837 3.1 66.9483 3.1ZM67.6303 19.406C68.6016 19.406 69.418 19.065 70.0793 18.383C70.7406 17.701 71.0713 16.864 71.0713 15.872C71.0713 14.9007 70.7303 14.074 70.0483 13.392C69.387 12.71 68.581 12.369 67.6303 12.369H61.1513V19.406H67.6303Z" fill="#2A2625"/>
<path d="M90.9222 20.429C89.4135 21.8137 87.4605 22.506 85.0632 22.506C82.6659 22.506 80.7025 21.8137 79.1732 20.429C77.6645 19.0237 76.9102 17.1533 76.9102 14.818V0.403H79.7932V14.694C79.7932 16.2233 80.2479 17.4427 81.1572 18.352C82.0665 19.2407 83.3685 19.685 85.0632 19.685C86.7579 19.685 88.0599 19.2407 88.9692 18.352C89.8785 17.4427 90.3332 16.2233 90.3332 14.694V0.403H93.1852V14.818C93.1852 17.1533 92.4309 19.0237 90.9222 20.429Z" fill="#2A2625"/>
<path d="M104.6 22.506C102.574 22.506 100.838 22.0307 99.3915 21.08C97.9655 20.1293 96.9632 18.8273 96.3845 17.174L98.8645 15.748C99.7118 18.3727 101.644 19.685 104.662 19.685C106.15 19.685 107.286 19.3853 108.072 18.786C108.857 18.166 109.25 17.3497 109.25 16.337C109.25 15.3037 108.857 14.5287 108.072 14.012C107.286 13.4953 105.974 12.9477 104.135 12.369C103.225 12.0797 102.533 11.8523 102.058 11.687C101.582 11.501 100.983 11.2323 100.26 10.881C99.5568 10.509 99.0298 10.137 98.6785 9.765C98.3272 9.37233 98.0068 8.866 97.7175 8.246C97.4488 7.626 97.3145 6.92333 97.3145 6.138C97.3145 4.25733 97.9758 2.76933 99.2985 1.674C100.621 0.558 102.233 0 104.135 0C105.85 0 107.338 0.434001 108.599 1.302C109.88 2.17 110.841 3.317 111.482 4.743L109.064 6.138C108.134 3.906 106.491 2.79 104.135 2.79C102.957 2.79 102.006 3.07933 101.283 3.658C100.559 4.23667 100.198 5.022 100.198 6.014C100.198 6.96467 100.539 7.688 101.221 8.184C101.903 8.68 103.081 9.19667 104.755 9.734C105.354 9.92 105.778 10.0543 106.026 10.137C106.274 10.2197 106.656 10.3643 107.173 10.571C107.71 10.7777 108.103 10.943 108.351 11.067C108.599 11.191 108.929 11.3667 109.343 11.594C109.777 11.8213 110.097 12.0383 110.304 12.245C110.51 12.4517 110.748 12.71 111.017 13.02C111.306 13.3093 111.513 13.609 111.637 13.919C111.761 14.229 111.864 14.5907 111.947 15.004C112.05 15.3967 112.102 15.8203 112.102 16.275C112.102 18.1763 111.409 19.6953 110.025 20.832C108.64 21.948 106.832 22.506 104.6 22.506Z" fill="#2A2625"/>
</svg>
