<svg width="156" height="32" viewBox="0 0 156 32" fill="none" xmlns="http://www.w3.org/2000/svg">
<path d="M17.425 15.05C18.801 15.7093 19.8903 16.6553 20.693 17.888C21.5243 19.1207 21.94 20.5397 21.94 22.145C21.94 24.553 21.0943 26.574 19.403 28.208C17.7116 29.842 15.6476 30.659 13.211 30.659H0.224976V0.559H12.265C14.6156 0.559 16.608 1.34733 18.242 2.924C19.876 4.50067 20.693 6.45 20.693 8.772C20.693 11.438 19.6036 13.5307 17.425 15.05ZM12.265 4.3H4.22398V13.502H12.265C13.5263 13.502 14.587 13.0577 15.447 12.169C16.307 11.2803 16.737 10.191 16.737 8.901C16.737 7.63967 16.2926 6.56467 15.404 5.676C14.544 4.75867 13.4976 4.3 12.265 4.3ZM13.211 26.918C14.5583 26.918 15.6906 26.445 16.608 25.499C17.5253 24.553 17.984 23.392 17.984 22.016C17.984 20.6687 17.511 19.522 16.565 18.576C15.6476 17.63 14.5296 17.157 13.211 17.157H4.22398V26.918H13.211Z" fill="white"/>
<path d="M44.5251 30.659L37.7741 19.135H30.6791V30.659H26.6801V0.559H38.7201C41.3001 0.559 43.5074 1.47633 45.3421 3.311C47.1767 5.117 48.0941 7.31 48.0941 9.89C48.0941 11.8393 47.5064 13.6167 46.3311 15.222C45.1844 16.8273 43.6937 17.9597 41.8591 18.619L48.9541 30.659H44.5251ZM30.6791 4.3V15.523H38.7201C40.2107 15.523 41.4721 14.9783 42.5041 13.889C43.5647 12.771 44.0951 11.438 44.0951 9.89C44.0951 8.342 43.5647 7.02334 42.5041 5.934C41.4721 4.84467 40.2107 4.3 38.7201 4.3H30.6791Z" fill="white"/>
<path d="M72.7902 30.659L70.3392 23.908H56.7942L54.3432 30.659H50.0862L61.3092 0.559H65.8242L77.0472 30.659H72.7902ZM58.1702 20.167H68.9632L63.5452 5.332L58.1702 20.167Z" fill="white"/>
<path d="M97.798 15.05C99.174 15.7093 100.263 16.6553 101.066 17.888C101.897 19.1207 102.313 20.5397 102.313 22.145C102.313 24.553 101.467 26.574 99.776 28.208C98.0847 29.842 96.0207 30.659 93.584 30.659H80.598V0.559H92.638C94.9887 0.559 96.981 1.34733 98.615 2.924C100.249 4.50067 101.066 6.45 101.066 8.772C101.066 11.438 99.9767 13.5307 97.798 15.05ZM92.638 4.3H84.597V13.502H92.638C93.8994 13.502 94.96 13.0577 95.82 12.169C96.68 11.2803 97.11 10.191 97.11 8.901C97.11 7.63967 96.6657 6.56467 95.777 5.676C94.917 4.75867 93.8707 4.3 92.638 4.3ZM93.584 26.918C94.9314 26.918 96.0637 26.445 96.981 25.499C97.8984 24.553 98.357 23.392 98.357 22.016C98.357 20.6687 97.884 19.522 96.938 18.576C96.0207 17.63 94.9027 17.157 93.584 17.157H84.597V26.918H93.584Z" fill="white"/>
<path d="M125.892 28.337C123.799 30.2577 121.09 31.218 117.765 31.218C114.44 31.218 111.716 30.2577 109.595 28.337C107.502 26.3877 106.456 23.7933 106.456 20.554V0.559H110.455V20.382C110.455 22.5033 111.086 24.1947 112.347 25.456C113.608 26.6887 115.414 27.305 117.765 27.305C120.116 27.305 121.922 26.6887 123.183 25.456C124.444 24.1947 125.075 22.5033 125.075 20.382V0.559H129.031V20.554C129.031 23.7933 127.985 26.3877 125.892 28.337Z" fill="white"/>
<path d="M144.864 31.218C142.055 31.218 139.647 30.5587 137.64 29.24C135.662 27.9213 134.272 26.1153 133.469 23.822L136.909 21.844C138.084 25.4847 140.765 27.305 144.95 27.305C147.014 27.305 148.591 26.8893 149.68 26.058C150.769 25.198 151.314 24.0657 151.314 22.661C151.314 21.2277 150.769 20.1527 149.68 19.436C148.591 18.7193 146.77 17.9597 144.219 17.157C142.958 16.7557 141.997 16.4403 141.338 16.211C140.679 15.953 139.847 15.5803 138.844 15.093C137.869 14.577 137.138 14.061 136.651 13.545C136.164 13.0003 135.719 12.298 135.318 11.438C134.945 10.578 134.759 9.60333 134.759 8.514C134.759 5.90534 135.676 3.84134 137.511 2.322C139.346 0.774 141.582 0 144.219 0C146.598 0 148.662 0.602001 150.411 1.806C152.188 3.01 153.521 4.601 154.41 6.579L151.056 8.514C149.766 5.418 147.487 3.87 144.219 3.87C142.585 3.87 141.266 4.27133 140.263 5.074C139.26 5.87667 138.758 6.966 138.758 8.342C138.758 9.66067 139.231 10.664 140.177 11.352C141.123 12.04 142.757 12.7567 145.079 13.502C145.91 13.76 146.498 13.9463 146.842 14.061C147.186 14.1757 147.716 14.3763 148.433 14.663C149.178 14.9497 149.723 15.179 150.067 15.351C150.411 15.523 150.87 15.7667 151.443 16.082C152.045 16.3973 152.489 16.6983 152.776 16.985C153.063 17.2717 153.392 17.63 153.765 18.06C154.166 18.4613 154.453 18.877 154.625 19.307C154.797 19.737 154.94 20.2387 155.055 20.812C155.198 21.3567 155.27 21.9443 155.27 22.575C155.27 25.2123 154.31 27.3193 152.389 28.896C150.468 30.444 147.96 31.218 144.864 31.218Z" fill="white"/>
</svg>
