<svg width="20" height="20" viewBox="0 0 20 20" fill="none" xmlns="http://www.w3.org/2000/svg">
<g opacity="0.8">
<path fill-rule="evenodd" clip-rule="evenodd" d="M10.3168 3.20955C10.1174 3.10984 9.88264 3.10984 9.68322 3.20955L3.93322 6.08455C3.69325 6.20453 3.54166 6.4498 3.54166 6.7181V15.7499C3.54166 16.1411 3.85879 16.4583 4.25 16.4583H15.75C16.1412 16.4583 16.4583 16.1411 16.4583 15.7499V6.7181C16.4583 6.4498 16.3067 6.20453 16.0668 6.08455L10.3168 3.20955Z" fill="#2A2625"/>
<path fill-rule="evenodd" clip-rule="evenodd" d="M4.79665 7.16193L4.79655 8.64794L6.94418 10.0285L4.79035 11.9433L4.79004 13.6158L7.87478 10.8738C7.94283 10.8133 8.04229 10.804 8.12037 10.8508L9.25007 11.5287C9.7119 11.8057 10.2889 11.8057 10.7507 11.5287L11.8804 10.8508C11.9585 10.804 12.0579 10.8133 12.126 10.8738L15.203 13.6089V11.9365L13.0562 10.0282L15.2032 8.64794V7.16187L10.1126 10.4345C10.044 10.4786 9.9559 10.4786 9.88728 10.4345L4.79665 7.16193Z" fill="white"/>
</g>
</svg>
