<svg width="34" height="34" viewBox="0 0 34 34" fill="none" xmlns="http://www.w3.org/2000/svg">
<g opacity="0.9">
<path d="M10.7262 0H1.0119C0.45309 0 0 0.45309 0 1.0119V22.5107L11.7381 2.17972V1.0119C11.7381 0.45309 11.285 0 10.7262 0Z" fill="#2A2625"/>
<path d="M24.6125 6.81179C24.543 6.55254 24.3735 6.33154 24.141 6.19733L15.7282 1.34018C15.2441 1.06054 14.6252 1.22656 14.3459 1.71053L3.59635 20.3292L23.9274 8.59108L24.5113 7.57958C24.6455 7.34722 24.6819 7.07097 24.6125 6.81179Z" fill="#2A2625"/>
<path d="M32.6597 18.2719L27.8026 9.85918C27.5231 9.37521 26.9044 9.20926 26.4203 9.48883L7.80187 20.2382H31.2779L32.2894 19.6542C32.7733 19.3747 32.9391 18.7559 32.6597 18.2719Z" fill="#2A2625"/>
<path d="M32.9881 22.2618H6.00398C2.7678 22.2618 0.134926 24.8947 0.134926 28.1309C0.134926 31.3671 2.76773 34 6.00398 34H32.9881C33.5469 34 34 33.5469 34 32.9881V23.2737C34 22.7149 33.5469 22.2618 32.9881 22.2618ZM5.86904 29.1428C5.3018 29.1428 4.88171 28.6792 4.85714 28.1309C4.83264 27.5844 5.33978 27.119 5.86904 27.119C6.43628 27.119 6.85637 27.5827 6.88094 28.1309C6.90544 28.6774 6.39836 29.1428 5.86904 29.1428Z" fill="#2A2625"/>
</g>
</svg>
