<svg width="34" height="34" viewBox="0 0 34 34" fill="none" xmlns="http://www.w3.org/2000/svg">
<g opacity="0.9">
<path d="M17 6.04297C13.1557 6.04297 10.0273 9.1713 10.0273 13.0156C10.0273 16.8599 13.1557 19.9883 17 19.9883C20.8443 19.9883 23.9727 16.8599 23.9727 13.0156C23.9727 9.1713 20.8443 6.04297 17 6.04297ZM17.9961 14.0117H16.0039V17C16.0039 17.5506 15.5584 17.9961 15.0078 17.9961C14.4572 17.9961 14.0117 17.5506 14.0117 17V9.03125C14.0117 8.48068 14.4572 8.03516 15.0078 8.03516H17.9961C19.6439 8.03516 20.9844 9.37563 20.9844 11.0234C20.9844 12.6712 19.6439 14.0117 17.9961 14.0117Z" fill="#2A2625"/>
<path d="M17.9961 10.0273H16.0039V12.0195H17.9961C18.5457 12.0195 18.9922 11.573 18.9922 11.0234C18.9922 10.4739 18.5457 10.0273 17.9961 10.0273Z" fill="#2A2625"/>
<path d="M17 0C9.86 0 4.05078 5.87563 4.05078 13.0156C4.05078 15.8337 4.94375 18.5146 6.63345 20.7684L16.2033 33.6012C16.3911 33.8521 16.6868 34 17 34C17.3132 34 17.6089 33.8521 17.7967 33.6012L27.3665 20.7684C29.0563 18.5146 29.9492 15.8337 29.9492 13.0156C29.9492 5.87563 24.14 0 17 0ZM17 21.9805C12.0565 21.9805 8.03516 17.9591 8.03516 13.0156C8.03516 8.07214 12.0565 4.05078 17 4.05078C21.9435 4.05078 25.9648 8.07214 25.9648 13.0156C25.9648 17.9591 21.9435 21.9805 17 21.9805Z" fill="#2A2625"/>
</g>
</svg>
