<svg width="34" height="34" viewBox="0 0 34 34" fill="none" xmlns="http://www.w3.org/2000/svg">
<g opacity="0.9">
<path d="M29.092 18.1503H26.4625C26.7306 18.8841 26.877 19.676 26.877 20.5013V30.439C26.877 30.7831 26.8171 31.1134 26.7081 31.4206H31.0551C32.679 31.4206 34 30.0996 34 28.4758V23.0583C34.0001 20.352 31.7983 18.1503 29.092 18.1503Z" fill="#2A2625"/>
<path d="M7.12308 20.5013C7.12308 19.6759 7.26951 18.8841 7.53752 18.1503H4.9081C2.20177 18.1503 0 20.352 0 23.0584V28.4759C0 30.0996 1.32102 31.4207 2.94486 31.4207H7.29195C7.18298 31.1134 7.12308 30.7831 7.12308 30.439V20.5013Z" fill="#2A2625"/>
<path d="M20.0057 15.5933H13.9944C11.2881 15.5933 9.08632 17.795 9.08632 20.5014V30.4391C9.08632 30.9812 9.5258 31.4207 10.0679 31.4207H23.9321C24.4743 31.4207 24.9137 30.9812 24.9137 30.4391V20.5014C24.9137 17.795 22.712 15.5933 20.0057 15.5933Z" fill="#2A2625"/>
<path d="M17 2.57922C13.7453 2.57922 11.0974 5.22711 11.0974 8.48189C11.0974 10.6896 12.3159 12.6177 14.1154 13.63C14.9689 14.1101 15.9529 14.3845 17 14.3845C18.0471 14.3845 19.0311 14.1101 19.8847 13.63C21.6842 12.6177 22.9026 10.6895 22.9026 8.48189C22.9026 5.22718 20.2547 2.57922 17 2.57922Z" fill="#2A2625"/>
<path d="M6.63519 8.08093C4.20107 8.08093 2.22083 10.0612 2.22083 12.4953C2.22083 14.9294 4.20107 16.9097 6.63519 16.9097C7.25264 16.9097 7.8406 16.7818 8.37471 16.5519C9.29816 16.1543 10.0596 15.4505 10.5307 14.569C10.8614 13.9503 11.0496 13.2444 11.0496 12.4953C11.0496 10.0612 9.06932 8.08093 6.63519 8.08093Z" fill="#2A2625"/>
<path d="M27.3649 8.08093C24.9307 8.08093 22.9505 10.0612 22.9505 12.4953C22.9505 13.2445 23.1386 13.9503 23.4693 14.569C23.9405 15.4506 24.7019 16.1544 25.6254 16.5519C26.1595 16.7818 26.7474 16.9097 27.3649 16.9097C29.799 16.9097 31.7792 14.9294 31.7792 12.4953C31.7792 10.0612 29.799 8.08093 27.3649 8.08093Z" fill="#2A2625"/>
</g>
</svg>
