<svg width="20" height="20" viewBox="0 0 20 20" fill="none" xmlns="http://www.w3.org/2000/svg">
<g opacity="0.8">
<path d="M8.099 6.97731L6.74123 4.71436C6.62635 4.5229 6.38226 4.45695 6.1937 4.57653C5.60235 4.95156 4.42795 5.79647 4.17812 6.72829C3.84738 7.9619 4.99837 9.86528 5.05949 9.9651L5.06497 9.97369C5.1292 10.0709 6.22427 11.7207 7.12433 12.6208C8.0244 13.5209 9.6742 14.6159 9.77154 14.6803L9.78016 14.6858C9.88016 14.747 11.7834 15.8977 13.017 15.5671C13.9487 15.3174 14.7939 14.1434 15.1691 13.5522C15.2888 13.3636 15.2229 13.1194 15.0314 13.0045L12.7684 11.6467C12.5777 11.5323 12.3307 11.5878 12.2073 11.7729L11.479 12.8654C11.3518 13.0561 11.0953 13.1081 10.9067 12.978C10.3562 12.5981 9.26854 11.8187 8.59754 11.1477C7.92659 10.4768 7.14728 9.38918 6.76737 8.83867C6.63717 8.65001 6.68924 8.39341 6.88001 8.26633L7.97271 7.53846C8.15786 7.41512 8.21346 7.16808 8.099 6.97731Z" fill="#2A2625"/>
<path fill-rule="evenodd" clip-rule="evenodd" d="M5.85843 4.04856C6.36293 3.72861 6.99303 3.91999 7.27662 4.39264L8.6344 6.65559C8.92055 7.13252 8.78155 7.75012 8.31866 8.05846L7.40772 8.66526C7.81309 9.24291 8.47634 10.143 9.03894 10.7056C9.60161 11.2683 10.5018 11.9316 11.0795 12.337L11.6867 11.4261C11.9952 10.9634 12.6126 10.8246 13.0894 11.1107L15.3524 12.4684C15.8251 12.7521 16.0165 13.3824 15.6963 13.8869C15.4978 14.1996 15.1688 14.6771 14.7566 15.1156C14.3574 15.5404 13.8146 16.0001 13.1782 16.1707C12.3503 16.3925 11.3979 16.1133 10.7431 15.8544C10.0527 15.5815 9.51716 15.2578 9.4533 15.2187L9.44827 15.2156L9.42632 15.2016C9.33907 15.1439 7.63431 14.015 6.68185 13.0626C5.7294 12.1101 4.6006 10.4052 4.54304 10.3182L4.53759 10.3099L4.529 10.2963L4.52592 10.2913C4.48688 10.2275 4.16309 9.69195 3.8901 9.00151C3.63121 8.34672 3.35192 7.39425 3.5739 6.56628C3.74455 5.92978 4.20447 5.38709 4.62938 4.98793C5.06805 4.57584 5.54564 4.24694 5.85843 4.04856ZM10.9584 12.5186C10.9583 12.5187 10.9584 12.5185 10.9584 12.5186V12.5186ZM6.3254 5.23683C6.07157 5.40847 5.76434 5.63678 5.48522 5.89898C5.11264 6.24899 4.86044 6.59466 4.78126 6.88998C4.67251 7.29562 4.80334 7.91164 5.05254 8.5419C5.27976 9.1166 5.55105 9.57118 5.5889 9.63354C5.68288 9.77539 6.72852 11.3415 7.56574 12.1787C8.40297 13.0159 9.96902 14.0616 10.111 14.1556C10.1734 14.1935 10.628 14.4648 11.2027 14.692C11.8329 14.9411 12.449 15.072 12.8546 14.9633C13.15 14.8841 13.4957 14.632 13.8458 14.2595C14.108 13.9805 14.3364 13.6734 14.5081 13.4196L12.6166 12.2847L11.9985 13.212C11.682 13.6866 11.0335 13.8251 10.5512 13.4922C10.0028 13.1138 8.87114 12.3056 8.15506 11.5895C7.43904 10.8735 6.63087 9.74188 6.25243 9.1935C5.91947 8.71102 6.05812 8.06232 6.53298 7.74601L7.46029 7.12831L6.3254 5.23683ZM12.7268 12.1194C12.7269 12.1193 12.7267 12.1195 12.7268 12.1194V12.1194Z" fill="#2A2625"/>
</g>
</svg>
