<svg width="20" height="20" viewBox="0 0 20 20" fill="none" xmlns="http://www.w3.org/2000/svg">
<g opacity="0.8">
<path d="M8.099 6.97731L6.74123 4.71436C6.62636 4.5229 6.38226 4.45695 6.19371 4.57653C5.60235 4.95156 4.42795 5.79647 4.17812 6.72829C3.84739 7.9619 4.99837 9.86528 5.05949 9.9651L5.06497 9.97369C5.1292 10.0709 6.22427 11.7207 7.12434 12.6208C8.0244 13.5209 9.67421 14.6159 9.77154 14.6803L9.78016 14.6858C9.88017 14.747 11.7834 15.8977 13.017 15.5671C13.9487 15.3174 14.7939 14.1434 15.1691 13.5522C15.2888 13.3636 15.2229 13.1194 15.0314 13.0045L12.7684 11.6467C12.5777 11.5323 12.3307 11.5878 12.2073 11.7729L11.479 12.8654C11.3518 13.0561 11.0953 13.1081 10.9067 12.978C10.3562 12.5981 9.26855 11.8187 8.59754 11.1477C7.92659 10.4768 7.14728 9.38918 6.76737 8.83867C6.63718 8.65001 6.68924 8.39341 6.88002 8.26633L7.97271 7.53846C8.15787 7.41512 8.21347 7.16808 8.099 6.97731Z" fill="white"/>
<path fill-rule="evenodd" clip-rule="evenodd" d="M5.85845 4.04856C6.36294 3.72861 6.99305 3.91999 7.27664 4.39264L8.63441 6.65559C8.92057 7.13252 8.78156 7.75012 8.31868 8.05846L7.40773 8.66526C7.8131 9.24291 8.47635 10.143 9.03896 10.7056C9.60162 11.2683 10.5019 11.9316 11.0795 12.337L11.6868 11.4261C11.9952 10.9634 12.6126 10.8246 13.0894 11.1107L15.3524 12.4684C15.8251 12.7521 16.0165 13.3824 15.6963 13.8869C15.4978 14.1996 15.1688 14.6771 14.7566 15.1156C14.3574 15.5404 13.8146 16.0001 13.1782 16.1707C12.3503 16.3925 11.3979 16.1133 10.7432 15.8544C10.0527 15.5815 9.51718 15.2578 9.45331 15.2187L9.44828 15.2156L9.42633 15.2016C9.33909 15.1439 7.63432 14.015 6.68186 13.0626C5.72941 12.1101 4.60061 10.4052 4.54305 10.3182L4.5376 10.3099L4.52901 10.2963L4.52593 10.2913C4.48689 10.2275 4.16311 9.69195 3.89012 9.00151C3.63122 8.34672 3.35193 7.39425 3.57392 6.56628C3.74457 5.92978 4.20448 5.38709 4.62939 4.98793C5.06806 4.57584 5.54565 4.24694 5.85845 4.04856ZM10.9584 12.5186C10.9584 12.5187 10.9584 12.5185 10.9584 12.5186V12.5186ZM6.32541 5.23683C6.07159 5.40847 5.76435 5.63678 5.48524 5.89898C5.11265 6.24899 4.86045 6.59466 4.78128 6.88998C4.67252 7.29562 4.80336 7.91164 5.05255 8.5419C5.27978 9.1166 5.55107 9.57118 5.58891 9.63354C5.68289 9.77539 6.72853 11.3415 7.56575 12.1787C8.40298 13.0159 9.96904 14.0616 10.111 14.1556C10.1734 14.1935 10.628 14.4648 11.2027 14.692C11.833 14.9411 12.449 15.072 12.8547 14.9633C13.15 14.8841 13.4957 14.632 13.8458 14.2595C14.1081 13.9805 14.3364 13.6734 14.5081 13.4196L12.6166 12.2847L11.9985 13.212C11.6821 13.6866 11.0336 13.8251 10.5512 13.4922C10.0029 13.1138 8.87115 12.3056 8.15507 11.5895C7.43905 10.8735 6.63089 9.74188 6.25245 9.1935C5.91949 8.71102 6.05814 8.06232 6.533 7.74601L7.4603 7.12831L6.32541 5.23683ZM12.7268 12.1194C12.7269 12.1193 12.7268 12.1195 12.7268 12.1194V12.1194Z" fill="white"/>
</g>
</svg>
