<svg width="34" height="34" viewBox="0 0 34 34" fill="none" xmlns="http://www.w3.org/2000/svg">
<g opacity="0.9" clip-path="url(#clip0_10_1982)">
<path d="M23.924 6.42441C20.8335 2.72902 17.7829 0.327186 17.6548 0.226916C16.9584 -0.317796 15.9376 0.179968 15.9376 1.06361V5.7358C15.9376 8.14839 12.7448 8.99743 11.5483 6.90052C11.1762 6.25016 10.2715 6.18163 9.80316 6.75377C6.58781 10.6777 3.71922 15.6253 3.71922 20.7192C3.71922 28.0422 9.67699 34 17 34C24.3231 34 30.2808 28.0422 30.2808 20.7192C30.2808 15.4935 27.2635 10.4181 23.924 6.42441ZM11.1565 17.0006C11.1565 15.8285 12.11 14.8756 13.2814 14.8756C14.4528 14.8756 15.4063 15.8285 15.4063 17.0006C15.4063 18.1726 14.4528 19.1255 13.2814 19.1255C12.11 19.1255 11.1565 18.1726 11.1565 17.0006ZM14.1201 26.1524C13.7618 26.6142 13.094 26.7002 12.6293 26.339C12.1658 25.9784 12.0828 25.311 12.4427 24.8482L19.88 15.286C20.2405 14.8225 20.9079 14.7395 21.3707 15.0994C21.8342 15.46 21.9172 16.1274 21.5573 16.5902L14.1201 26.1524ZM20.7187 26.5628C19.5473 26.5628 18.5937 25.6099 18.5937 24.4378C18.5937 23.2658 19.5473 22.3129 20.7187 22.3129C21.89 22.3129 22.8436 23.2658 22.8436 24.4378C22.8436 25.6099 21.89 26.5628 20.7187 26.5628Z" fill="#2A2625"/>
</g>
<defs>
<clipPath id="clip0_10_1982">
<rect width="34" height="34" fill="white"/>
</clipPath>
</defs>
</svg>
