<svg width="34" height="34" viewBox="0 0 34 34" fill="none" xmlns="http://www.w3.org/2000/svg">
<g opacity="0.9">
<path d="M21.9461 17.9961C21.4833 20.2666 19.405 21.9805 17 21.9805C14.595 21.9805 12.5831 20.2666 12.1203 17.9961H10.128C10.6166 21.3662 13.4967 23.9727 17 23.9727C20.5033 23.9727 23.4498 21.3662 23.9384 17.9961H21.9461Z" fill="#2A2625"/>
<path d="M25.9306 17.9961C25.4277 22.4662 21.6024 25.9648 17 25.9648C12.3976 25.9648 8.63872 22.4662 8.13583 17.9961H0V18.9922C0 19.4212 0.27532 19.8025 0.681926 19.9377L4.78039 21.2752C4.95258 21.7636 5.13446 22.2081 5.32904 22.6186L3.43798 26.4181C3.24733 26.8014 3.32317 27.2634 3.62571 27.566L6.43404 30.3743C6.73851 30.6788 7.19957 30.7507 7.58187 30.562L11.3814 28.671C11.792 28.8655 12.2365 29.0474 12.7248 29.2196L14.0623 33.3181C14.1975 33.7247 14.5788 34 15.0078 34H19.0586C19.4876 34 19.8689 33.7247 20.0041 33.3181L21.3416 29.2196C21.83 29.0474 22.2745 28.8655 22.685 28.671L26.4845 30.562C26.8668 30.7517 27.3289 30.6788 27.6324 30.3743L30.4407 27.566C30.7432 27.2634 30.8191 26.8014 30.6284 26.4181L28.7374 22.6186C28.9319 22.208 29.1138 21.7635 29.286 21.2752L33.3181 19.9377C33.7247 19.8025 34 19.4212 34 18.9922V17.9961H25.9306Z" fill="#2A2625"/>
<path d="M14.1952 17.9961C14.6078 19.153 15.7031 19.9883 17 19.9883C18.2969 19.9883 19.4586 19.153 19.8712 17.9961H14.1952Z" fill="#2A2625"/>
<path d="M17 0C14.8026 0 13.0156 1.78693 13.0156 3.98438C13.0156 6.18182 14.8026 7.96875 17 7.96875C19.1974 7.96875 21.0508 6.18182 21.0508 3.98438C21.0508 1.78693 19.1974 0 17 0Z" fill="#2A2625"/>
<path d="M27.0273 0C24.8299 0 23.043 1.78693 23.043 3.98438C23.043 6.18182 24.8299 7.96875 27.0273 7.96875C29.2248 7.96875 31.0117 6.18182 31.0117 3.98438C31.0117 1.78693 29.2248 0 27.0273 0Z" fill="#2A2625"/>
<path d="M7.03906 0C4.84161 0 3.05469 1.78693 3.05469 3.98438C3.05469 6.18182 4.84161 7.96875 7.03906 7.96875C9.23651 7.96875 11.0234 6.18182 11.0234 3.98438C11.0234 1.78693 9.23651 0 7.03906 0Z" fill="#2A2625"/>
<path d="M30.425 8.89062C29.4589 9.56193 28.2905 9.96089 27.0273 9.96089C25.7695 9.96089 24.6047 9.56618 23.6408 8.89999C23.2039 9.15081 22.7841 9.43283 22.4039 9.7729C24.341 11.221 25.6859 13.4825 25.9704 16.0039H34V15.0078C34 12.4031 32.547 10.0876 30.425 8.89062Z" fill="#2A2625"/>
<path d="M17 9.96094C13.4932 9.96094 10.5828 12.6295 10.0983 16.0039H23.968C23.4836 12.6295 20.5068 9.96094 17 9.96094Z" fill="#2A2625"/>
<path d="M10.4256 8.89999C9.46169 9.56618 8.29693 9.96089 7.03906 9.96089C5.77595 9.96089 4.60753 9.56193 3.64139 8.89062C1.51944 10.0876 0 12.4031 0 15.0078V16.0039H8.09598C8.38047 13.4825 9.72539 11.221 11.6625 9.7729C11.2823 9.43283 10.8625 9.15081 10.4256 8.89999Z" fill="#2A2625"/>
</g>
</svg>
