<svg width="12" height="11" viewBox="0 0 12 11" fill="none" xmlns="http://www.w3.org/2000/svg">
<path d="M5.25726 0.856125C5.52552 0.185742 6.47448 0.185742 6.74274 0.856125L7.61917 3.04633C7.73351 3.33208 8.00165 3.5269 8.30876 3.54735L10.6626 3.70407C11.3831 3.75204 11.6763 4.65456 11.1216 5.11684L9.30946 6.62718C9.07302 6.82424 8.9706 7.13946 9.04606 7.43785L9.62438 9.72491C9.8014 10.4249 9.03367 10.9827 8.4226 10.5981L6.42619 9.34129C6.16572 9.17732 5.83428 9.17732 5.57381 9.34129L3.5774 10.5981C2.96633 10.9827 2.1986 10.4249 2.37562 9.72491L2.95394 7.43785C3.0294 7.13946 2.92698 6.82424 2.69054 6.62718L0.878364 5.11684C0.323689 4.65456 0.616936 3.75204 1.3374 3.70407L3.69124 3.54735C3.99835 3.5269 4.26649 3.33208 4.38083 3.04633L5.25726 0.856125Z" fill="#FFDD65"/>
</svg>
