<svg width="40" height="40" viewBox="0 0 40 40" fill="none" xmlns="http://www.w3.org/2000/svg">
<g clip-path="url(#clip0_672_244)">
<path d="M0 19.2C0 10.149 0 5.62355 2.81177 2.81177C5.62355 0 10.149 0 19.2 0H20.8C29.851 0 34.3764 0 37.1882 2.81177C40 5.62355 40 10.149 40 19.2V20.8C40 29.851 40 34.3764 37.1882 37.1882C34.3764 40 29.851 40 20.8 40H19.2C10.149 40 5.62355 40 2.81177 37.1882C0 34.3764 0 29.851 0 20.8V19.2Z" fill="#0077FF"/>
<path d="M21.2146 28.8C11.9214 28.8 6.62076 22.4937 6.3999 12H11.055C11.2079 19.7021 14.6397 22.9646 17.358 23.6372V12H21.7414V18.6426C24.4257 18.3568 27.2456 15.3297 28.197 12H32.5804C31.8498 16.1033 28.7917 19.1303 26.6171 20.3748C28.7917 21.3838 32.2747 24.024 33.5999 28.8H28.7747C27.7384 25.6048 25.1563 23.1327 21.7414 22.7964V28.8H21.2146Z" fill="white"/>
</g>
<defs>
<clipPath id="clip0_672_244">
<rect width="40" height="40" fill="white"/>
</clipPath>
</defs>
</svg>
