<svg width="18" height="43" viewBox="0 0 18 43" fill="none" xmlns="http://www.w3.org/2000/svg">
<path d="M6.45349 0.436124C6.86294 -0.145375 8.19365 -0.145375 8.6031 0.436124C12.0834 4.94274 15.2566 9.52205 17.0992 14.4648C17.3039 15.1917 16.1779 15.9185 15.2566 15.4824C13.2094 14.4648 11.4692 13.2291 9.93381 11.7754C10.3433 21.9516 12.2881 32.4913 8.91018 42.5221C8.70546 43.249 6.96547 43.1036 7.06783 42.3766C8.91018 31.9823 7.47711 21.6607 7.27255 11.2664C5.5324 12.3567 3.79224 13.447 2.15444 14.5374C1.43791 15.0462 -0.0976963 14.7554 0.00466537 13.8832C0.82373 9.08592 3.0757 4.57931 6.45349 0.436124ZM7.57947 9.08592C8.19365 8.43174 9.93381 8.57711 9.93381 9.59474C9.93381 9.66742 9.93381 9.74011 9.93381 9.74011C11.1622 10.6124 12.2881 11.4846 13.6188 12.3569C11.9811 9.01324 9.9338 5.88768 7.57964 2.76212C5.5324 5.59693 3.99696 8.50443 3.17806 11.63C4.30405 10.9031 5.5324 10.1762 6.65855 9.37667C6.86294 9.08592 7.27255 9.01324 7.57947 9.08592Z" fill="white"/>
</svg>
