<svg width="147" height="36" viewBox="0 0 147 36" fill="none" xmlns="http://www.w3.org/2000/svg">
<path d="M12.5725 32.1079C22.1516 32.1079 23.6483 27.6178 23.6483 25.5437V25.2016H17.362C17.2765 25.5651 16.8061 27.8102 12.1235 27.8102C7.84713 27.8102 6.77804 25.5651 6.77804 23.8546V23.598C6.77804 21.8233 7.71884 19.8775 12.1021 19.8775C16.7206 19.8775 17.2124 21.8874 17.3407 22.3151H23.6483V22.0371C23.6483 19.9844 22.2371 15.6012 12.5725 15.6012H11.7386C1.81745 15.6012 0.491782 20.4548 0.491782 23.4911V24.1111C0.491782 27.126 1.96713 32.1079 11.7386 32.1079H12.5725ZM31.1528 15.9005H25.1018V31.8086H31.1528V15.9005ZM47.9997 31.8086L55.4619 15.9005H49.1543L44.1296 26.9977L38.7841 15.9005H31.8992L39.9387 31.8086H47.9997ZM66.1204 15.6012C55.8144 15.6012 54.5101 20.4976 54.5101 23.4911V24.1325C54.5101 27.1046 55.8144 32.1079 66.1204 32.1079H67.0826C77.3673 32.1079 78.6716 27.1046 78.6716 24.1325V23.4911C78.6716 20.4976 77.3459 15.6012 67.0826 15.6012H66.1204ZM72.3853 23.9401C72.3853 25.6506 71.2948 27.8102 66.5908 27.8102C61.8868 27.8102 60.7964 25.5651 60.7964 23.8973V23.6407C60.7964 21.9516 61.8013 19.8775 66.5908 19.8775C71.2948 19.8775 72.3853 21.9516 72.3853 23.6407V23.9401ZM91.8732 25.2658H86.5919L89.2004 19.792L91.8732 25.2658ZM95.0591 31.8086H101.709L93.3913 15.9005H85.2234L77.3549 31.8086H83.5129L84.7316 29.2428H93.8189L95.0591 31.8086ZM102.402 15.9005V31.8086H108.432V22.1654L118.396 31.8086H124.468V15.9005H118.438V24.945L109.201 15.9005H102.402ZM132.891 31.8086H138.963V20.241H145.827V15.9005H126.027V20.241H132.891V31.8086Z" fill="#E61E29"/>
<path d="M6.7178 3.81908L6.46493 6.50524L6.7178 9.19141H5.82082L5.68246 7.71712C5.39301 8.21968 5.02563 8.6125 4.58032 8.89559C4.13819 9.1755 3.64676 9.31546 3.10603 9.31546C2.58438 9.31546 2.1184 9.19777 1.70808 8.96239C1.29776 8.72383 0.976498 8.39144 0.744302 7.96522C0.515286 7.53899 0.400778 7.05233 0.400778 6.50524C0.400778 5.95815 0.515286 5.47149 0.744302 5.04526C0.976498 4.61904 1.29776 4.28824 1.70808 4.05286C2.1184 3.8143 2.58438 3.69503 3.10603 3.69503C3.64676 3.69503 4.13819 3.83498 4.58032 4.11489C5.02563 4.3948 5.39301 4.78603 5.68246 5.28859L5.82082 3.81908H6.7178ZM3.25393 8.57593C3.81057 8.57593 4.30836 8.38985 4.74731 8.0177C5.18626 7.64237 5.52978 7.13822 5.77788 6.50524C5.52978 5.87545 5.18466 5.37288 4.74254 4.99755C4.30359 4.62222 3.80739 4.43456 3.25393 4.43456C2.8786 4.43456 2.54144 4.52203 2.24245 4.69697C1.94663 4.87191 1.71444 5.11683 1.54586 5.43173C1.38046 5.74663 1.29776 6.10446 1.29776 6.50524C1.29776 6.9092 1.38046 7.26863 1.54586 7.58352C1.71444 7.89524 1.94663 8.13857 2.24245 8.31351C2.54144 8.48845 2.8786 8.57593 3.25393 8.57593ZM12.1388 3.69503C12.6382 3.69503 13.0628 3.79522 13.4127 3.99561C13.7658 4.196 14.0346 4.48704 14.219 4.86873C14.4035 5.24724 14.4958 5.70369 14.4958 6.23806V9.19141H13.6179V6.39073C13.6179 5.7514 13.47 5.26792 13.1742 4.9403C12.8815 4.6095 12.4505 4.4441 11.8812 4.4441C11.4899 4.4441 11.1448 4.53316 10.8458 4.71128C10.55 4.88623 10.321 5.13274 10.1588 5.45081C9.99656 5.76889 9.91545 6.13627 9.91545 6.55295V9.19141H9.03755V5.51761L8.7322 3.81908H9.61009L9.83911 5.18363C10.0459 4.71287 10.3496 4.34708 10.7504 4.08626C11.1544 3.82544 11.6172 3.69503 12.1388 3.69503ZM16.0272 4.52998V4.10534L17.2056 3.88587L17.5587 2.43067H18.0835V3.81908H20.7029V4.52998H18.0835V7.25431C18.0835 7.57557 18.1297 7.83162 18.2219 8.02247C18.3173 8.21332 18.4605 8.35168 18.6513 8.43756C18.8421 8.52026 19.0902 8.56161 19.3956 8.56161C19.6755 8.56161 19.9268 8.52821 20.1494 8.46142C20.3721 8.39462 20.59 8.29125 20.8031 8.15129V8.92899C20.6377 9.03078 20.4055 9.11984 20.1065 9.19618C19.8075 9.2757 19.5101 9.31546 19.2143 9.31546C18.5177 9.31546 18.0088 9.14369 17.6875 8.80017C17.3663 8.45347 17.2056 7.9843 17.2056 7.39268V4.52998H16.0272ZM26.1403 6.09015L28.2349 9.19141H27.1804L25.5725 6.75811L23.5162 9.19141H22.6955V1.84381H23.5734V7.97953L27.0277 3.81908H28.0583L26.1403 6.09015ZM30.266 6.76288C30.3074 7.13503 30.4298 7.45947 30.6334 7.7362C30.8402 8.00975 31.1137 8.21968 31.454 8.36599C31.7944 8.51231 32.1856 8.58547 32.6278 8.58547C33.0635 8.58547 33.4929 8.5139 33.916 8.37077C34.339 8.22445 34.7223 8.02088 35.0658 7.76006V8.45188C34.735 8.71906 34.3406 8.93058 33.8826 9.08644C33.4245 9.23912 32.9665 9.31546 32.5085 9.31546C31.8946 9.31546 31.3475 9.19777 30.8672 8.96239C30.3901 8.72383 30.0179 8.39144 29.7507 7.96522C29.4836 7.53899 29.35 7.05074 29.35 6.50047C29.35 5.95338 29.4756 5.46672 29.7269 5.04049C29.9813 4.61427 30.336 4.28347 30.7909 4.04809C31.2457 3.81271 31.7642 3.69503 32.3463 3.69503C32.9188 3.69503 33.4214 3.82385 33.8539 4.08149C34.2897 4.33595 34.6269 4.69538 34.8654 5.15977C35.104 5.62099 35.2233 6.15536 35.2233 6.76288H30.266ZM32.3319 4.42501C31.963 4.42501 31.6322 4.49181 31.3395 4.6254C31.0501 4.75581 30.8131 4.94507 30.6286 5.19317C30.4473 5.43809 30.3296 5.72754 30.2756 6.06152H34.3024C34.2452 5.72436 34.1275 5.43332 33.9494 5.1884C33.7744 4.94348 33.5486 4.75581 33.2719 4.6254C32.9983 4.49181 32.685 4.42501 32.3319 4.42501ZM37.8645 6.76288C37.9058 7.13503 38.0283 7.45947 38.2319 7.7362C38.4386 8.00975 38.7122 8.21968 39.0525 8.36599C39.3928 8.51231 39.7841 8.58547 40.2262 8.58547C40.662 8.58547 41.0914 8.5139 41.5144 8.37077C41.9375 8.22445 42.3207 8.02088 42.6643 7.76006V8.45188C42.3335 8.71906 41.9391 8.93058 41.481 9.08644C41.023 9.23912 40.565 9.31546 40.1069 9.31546C39.493 9.31546 38.9459 9.19777 38.4656 8.96239C37.9885 8.72383 37.6164 8.39144 37.3492 7.96522C37.082 7.53899 36.9484 7.05074 36.9484 6.50047C36.9484 5.95338 37.0741 5.46672 37.3253 5.04049C37.5798 4.61427 37.9345 4.28347 38.3893 4.04809C38.8442 3.81271 39.3626 3.69503 39.9447 3.69503C40.5172 3.69503 41.0198 3.82385 41.4524 4.08149C41.8882 4.33595 42.2253 4.69538 42.4639 5.15977C42.7024 5.62099 42.8217 6.15536 42.8217 6.76288H37.8645ZM39.9304 4.42501C39.5614 4.42501 39.2306 4.49181 38.938 4.6254C38.6485 4.75581 38.4116 4.94507 38.2271 5.19317C38.0458 5.43809 37.9281 5.72754 37.874 6.06152H41.9009C41.8436 5.72436 41.7259 5.43332 41.5478 5.1884C41.3729 4.94348 41.147 4.75581 40.8703 4.6254C40.5968 4.49181 40.2835 4.42501 39.9304 4.42501ZM48.3924 3.69503C48.9141 3.69503 49.3801 3.8143 49.7904 4.05286C50.2007 4.28824 50.5204 4.61904 50.7494 5.04526C50.9816 5.47149 51.0977 5.95815 51.0977 6.50524C51.0977 7.05233 50.9816 7.53899 50.7494 7.96522C50.5204 8.39144 50.2007 8.72383 49.7904 8.96239C49.3801 9.19777 48.9141 9.31546 48.3924 9.31546C47.8294 9.31546 47.3189 9.16278 46.8609 8.85742C46.4029 8.55207 46.0307 8.12903 45.7444 7.5883V10.7659H44.8665V3.81908H45.7444V5.41742C46.0307 4.87668 46.4029 4.45523 46.8609 4.15306C47.3189 3.8477 47.8294 3.69503 48.3924 3.69503ZM48.2445 8.57593C48.6199 8.57593 48.9554 8.48845 49.2512 8.31351C49.5502 8.13857 49.7824 7.89524 49.9478 7.58352C50.1164 7.26863 50.2007 6.9092 50.2007 6.50524C50.2007 6.10446 50.1164 5.74663 49.9478 5.43173C49.7824 5.11683 49.5502 4.87191 49.2512 4.69697C48.9554 4.52203 48.6199 4.43456 48.2445 4.43456C47.6911 4.43456 47.1933 4.62222 46.7511 4.99755C46.3122 5.37288 45.9687 5.87545 45.7206 6.50524C45.9687 7.13822 46.3122 7.64237 46.7511 8.0177C47.1901 8.38985 47.6879 8.57593 48.2445 8.57593ZM53.7603 6.76288C53.8016 7.13503 53.9241 7.45947 54.1277 7.7362C54.3344 8.00975 54.608 8.21968 54.9483 8.36599C55.2886 8.51231 55.6799 8.58547 56.122 8.58547C56.5578 8.58547 56.9872 8.5139 57.4102 8.37077C57.8333 8.22445 58.2166 8.02088 58.5601 7.76006V8.45188C58.2293 8.71906 57.8349 8.93058 57.3768 9.08644C56.9188 9.23912 56.4608 9.31546 56.0027 9.31546C55.3888 9.31546 54.8417 9.19777 54.3614 8.96239C53.8843 8.72383 53.5122 8.39144 53.245 7.96522C52.9778 7.53899 52.8442 7.05074 52.8442 6.50047C52.8442 5.95338 52.9699 5.46672 53.2211 5.04049C53.4756 4.61427 53.8303 4.28347 54.2851 4.04809C54.74 3.81271 55.2584 3.69503 55.8405 3.69503C56.4131 3.69503 56.9156 3.82385 57.3482 4.08149C57.784 4.33595 58.1211 4.69538 58.3597 5.15977C58.5982 5.62099 58.7175 6.15536 58.7175 6.76288H53.7603ZM55.8262 4.42501C55.4572 4.42501 55.1264 4.49181 54.8338 4.6254C54.5443 4.75581 54.3074 4.94507 54.1229 5.19317C53.9416 5.43809 53.8239 5.72754 53.7698 6.06152H57.7967C57.7394 5.72436 57.6217 5.43332 57.4436 5.1884C57.2687 4.94348 57.0428 4.75581 56.7661 4.6254C56.4926 4.49181 56.1793 4.42501 55.8262 4.42501ZM63.7777 3.69503C63.9145 3.69503 64.0544 3.70457 64.1976 3.72365C64.3407 3.74274 64.46 3.76818 64.5554 3.79999V4.59678C64.4377 4.55861 64.2978 4.52998 64.1356 4.51089C63.9733 4.48863 63.8159 4.4775 63.6632 4.4775C63.2815 4.4775 62.9412 4.56497 62.6422 4.73991C62.3464 4.91485 62.1142 5.16613 61.9456 5.49375C61.7802 5.82137 61.6975 6.20625 61.6975 6.64838V9.19141H60.8196V5.48898L60.5142 3.81908H61.3921L61.6307 5.26474C61.7993 4.77808 62.068 4.3948 62.437 4.11489C62.8092 3.83498 63.2561 3.69503 63.7777 3.69503ZM71.4237 7.62169C71.4237 7.96204 71.3188 8.25944 71.1088 8.5139C70.8989 8.76836 70.5935 8.96557 70.1928 9.10553C69.792 9.24548 69.3149 9.31546 68.7614 9.31546C68.1825 9.31546 67.672 9.23435 67.2299 9.07213C66.7909 8.90991 66.4458 8.68248 66.1945 8.38985C65.9464 8.09722 65.8128 7.75847 65.7938 7.37359H66.686C66.7209 7.61851 66.8307 7.83481 67.0152 8.02247C67.1997 8.21014 67.443 8.35645 67.7452 8.46142C68.0473 8.5632 68.3877 8.6141 68.7662 8.6141C69.1352 8.6141 69.4532 8.57752 69.7204 8.50436C69.9876 8.42802 70.1912 8.31828 70.3311 8.17515C70.4743 8.03201 70.5458 7.86184 70.5458 7.66463C70.5458 7.50878 70.5013 7.38314 70.4122 7.28771C70.3232 7.19229 70.1753 7.11436 69.9685 7.05392C69.7618 6.99349 69.4723 6.94419 69.1002 6.90602L68.0648 6.80105C67.3205 6.7279 66.783 6.56409 66.4522 6.30962C66.1246 6.05516 65.9607 5.72118 65.9607 5.30768C65.9607 4.97052 66.0657 4.68107 66.2756 4.43933C66.4888 4.19759 66.7862 4.0131 67.1678 3.88587C67.5495 3.75864 67.9933 3.69503 68.499 3.69503C69.027 3.69503 69.5009 3.77136 69.9208 3.92404C70.3439 4.07672 70.6794 4.29142 70.9275 4.56815C71.1756 4.84488 71.3124 5.15977 71.3378 5.51284H70.4456C70.417 5.30609 70.3216 5.11842 70.1594 4.94984C69.9971 4.78126 69.7713 4.64767 69.4819 4.54906C69.1924 4.44728 68.8505 4.39639 68.4561 4.39639C67.944 4.39639 67.5464 4.47113 67.2633 4.62063C66.9834 4.76695 66.8434 4.97847 66.8434 5.2552C66.8434 5.46513 66.9388 5.63053 67.1297 5.7514C67.3205 5.86909 67.645 5.95179 68.103 5.9995L69.2862 6.11878C69.8174 6.17285 70.2389 6.2635 70.5506 6.39073C70.8655 6.51478 71.0897 6.677 71.2233 6.87739C71.3569 7.07778 71.4237 7.32588 71.4237 7.62169ZM82.7502 7.14935C82.6803 7.57239 82.5069 7.94931 82.2302 8.28011C81.9566 8.60773 81.6052 8.8622 81.1758 9.0435C80.7464 9.2248 80.2756 9.31546 79.7635 9.31546C79.1719 9.31546 78.6455 9.19777 78.1842 8.96239C77.723 8.72383 77.3636 8.39303 77.106 7.96999C76.8515 7.54376 76.7243 7.05552 76.7243 6.50524C76.7243 5.95497 76.8515 5.46831 77.106 5.04526C77.3636 4.61904 77.723 4.28824 78.1842 4.05286C78.6455 3.8143 79.1719 3.69503 79.7635 3.69503C80.2756 3.69503 80.7464 3.78568 81.1758 3.96698C81.6052 4.14829 81.9566 4.40434 82.2302 4.73514C82.5069 5.06276 82.6803 5.43968 82.7502 5.8659H81.8485C81.7817 5.57327 81.6513 5.31881 81.4573 5.10252C81.2664 4.88304 81.0247 4.71605 80.732 4.60155C80.4394 4.48386 80.1166 4.42501 79.7635 4.42501C79.3341 4.42501 78.9572 4.51089 78.6327 4.68266C78.3083 4.85124 78.0586 5.09298 77.8837 5.40787C77.7087 5.71959 77.6212 6.08538 77.6212 6.50524C77.6212 6.9251 77.7087 7.29248 77.8837 7.60738C78.0586 7.9191 78.3083 8.16083 78.6327 8.3326C78.9572 8.50118 79.3341 8.58547 79.7635 8.58547C80.1197 8.58547 80.4442 8.52662 80.7368 8.40894C81.0294 8.29125 81.2712 8.12426 81.462 7.90796C81.6561 7.69167 81.7849 7.4388 81.8485 7.14935H82.7502ZM87.603 9.31546C86.9764 9.31546 86.4214 9.19777 85.9379 8.96239C85.4544 8.72701 85.0791 8.39621 84.8119 7.96999C84.5447 7.54376 84.4111 7.05552 84.4111 6.50524C84.4111 5.95497 84.5447 5.46672 84.8119 5.04049C85.0791 4.61427 85.4544 4.28347 85.9379 4.04809C86.4214 3.81271 86.9764 3.69503 87.603 3.69503C88.2297 3.69503 88.7847 3.81271 89.2682 4.04809C89.7517 4.28347 90.127 4.61427 90.3942 5.04049C90.6614 5.46672 90.795 5.95497 90.795 6.50524C90.795 7.05552 90.6614 7.54376 90.3942 7.96999C90.127 8.39621 89.7517 8.72701 89.2682 8.96239C88.7847 9.19777 88.2297 9.31546 87.603 9.31546ZM87.603 8.58547C88.0674 8.58547 88.4714 8.50118 88.8149 8.3326C89.1616 8.16083 89.4288 7.9191 89.6165 7.60738C89.8041 7.29248 89.898 6.9251 89.898 6.50524C89.898 6.08856 89.8041 5.72277 89.6165 5.40787C89.4288 5.09298 89.1616 4.85124 88.8149 4.68266C88.4714 4.51089 88.0674 4.42501 87.603 4.42501C87.1387 4.42501 86.7331 4.51089 86.3864 4.68266C86.0429 4.85124 85.7773 5.09298 85.5896 5.40787C85.4019 5.72277 85.3081 6.08856 85.3081 6.50524C85.3081 6.9251 85.4019 7.29248 85.5896 7.60738C85.7773 7.9191 86.0429 8.16083 86.3864 8.3326C86.7331 8.50118 87.1387 8.58547 87.603 8.58547ZM100.065 3.69503C100.527 3.69503 100.921 3.79522 101.249 3.99561C101.576 4.196 101.826 4.48704 101.998 4.86873C102.169 5.24724 102.255 5.70369 102.255 6.23806V9.19141H101.377V6.39073C101.377 5.7514 101.244 5.26792 100.977 4.9403C100.713 4.6095 100.325 4.4441 99.8125 4.4441C99.453 4.4441 99.1381 4.53316 98.8678 4.71128C98.5974 4.88623 98.3875 5.13274 98.238 5.45081C98.0917 5.76889 98.0185 6.13627 98.0185 6.55295V9.19141H97.1406V6.39073C97.1406 5.7514 97.007 5.26792 96.7398 4.9403C96.4758 4.6095 96.0878 4.4441 95.5757 4.4441C95.2162 4.4441 94.9013 4.53316 94.631 4.71128C94.3606 4.88623 94.1507 5.13274 94.0012 5.45081C93.8549 5.76889 93.7817 6.13627 93.7817 6.55295V9.19141H92.9038V5.51761L92.5985 3.81908H93.4763L93.7006 5.155C93.8978 4.69379 94.1809 4.33595 94.5499 4.08149C94.922 3.82385 95.3498 3.69503 95.8333 3.69503C96.3677 3.69503 96.8114 3.82862 97.1645 4.0958C97.5175 4.36299 97.7624 4.74786 97.8992 5.25042C98.0869 4.76059 98.37 4.37889 98.7485 4.10534C99.1302 3.8318 99.5691 3.69503 100.065 3.69503ZM111.773 3.69503C112.235 3.69503 112.629 3.79522 112.957 3.99561C113.284 4.196 113.534 4.48704 113.706 4.86873C113.877 5.24724 113.963 5.70369 113.963 6.23806V9.19141H113.085V6.39073C113.085 5.7514 112.952 5.26792 112.685 4.9403C112.421 4.6095 112.033 4.4441 111.52 4.4441C111.161 4.4441 110.846 4.53316 110.576 4.71128C110.305 4.88623 110.095 5.13274 109.946 5.45081C109.8 5.76889 109.726 6.13627 109.726 6.55295V9.19141H108.849V6.39073C108.849 5.7514 108.715 5.26792 108.448 4.9403C108.184 4.6095 107.796 4.4441 107.284 4.4441C106.924 4.4441 106.609 4.53316 106.339 4.71128C106.069 4.88623 105.859 5.13274 105.709 5.45081C105.563 5.76889 105.49 6.13627 105.49 6.55295V9.19141H104.612V5.51761L104.306 3.81908H105.184L105.409 5.155C105.606 4.69379 105.889 4.33595 106.258 4.08149C106.63 3.82385 107.058 3.69503 107.541 3.69503C108.076 3.69503 108.519 3.82862 108.872 4.0958C109.226 4.36299 109.47 4.74786 109.607 5.25042C109.795 4.76059 110.078 4.37889 110.456 4.10534C110.838 3.8318 111.277 3.69503 111.773 3.69503ZM121.84 9.19141H120.962L120.738 7.81254C120.528 8.28648 120.227 8.65545 119.836 8.91945C119.445 9.18345 118.996 9.31546 118.491 9.31546C118.004 9.31546 117.587 9.21526 117.241 9.01487C116.897 8.81448 116.635 8.52503 116.453 8.14652C116.275 7.76483 116.186 7.3068 116.186 6.77243V3.81908H117.064V6.62452C117.064 7.26068 117.207 7.74415 117.493 8.07495C117.78 8.40257 118.198 8.56638 118.748 8.56638C119.13 8.56638 119.466 8.47891 119.755 8.30397C120.044 8.12903 120.267 7.88252 120.423 7.56444C120.582 7.24318 120.662 6.87421 120.662 6.45753V3.81908H121.539V7.49764L121.84 9.19141ZM127.131 3.69503C127.631 3.69503 128.055 3.79522 128.405 3.99561C128.758 4.196 129.027 4.48704 129.212 4.86873C129.396 5.24724 129.488 5.70369 129.488 6.23806V9.19141H128.61V6.39073C128.61 5.7514 128.462 5.26792 128.167 4.9403C127.874 4.6095 127.443 4.4441 126.874 4.4441C126.482 4.4441 126.137 4.53316 125.838 4.71128C125.543 4.88623 125.314 5.13274 125.151 5.45081C124.989 5.76889 124.908 6.13627 124.908 6.55295V9.19141H124.03V5.51761L123.725 3.81908H124.603L124.832 5.18363C125.038 4.71287 125.342 4.34708 125.743 4.08626C126.147 3.82544 126.61 3.69503 127.131 3.69503ZM131.786 9.19141V3.79999L132.225 3.87633L132.663 3.79999V9.19141H131.786ZM132.225 3.00798C132.04 3.00798 131.886 2.95231 131.762 2.84099C131.641 2.72966 131.58 2.58971 131.58 2.42112C131.58 2.25254 131.641 2.11259 131.762 2.00126C131.886 1.88993 132.04 1.83427 132.225 1.83427C132.409 1.83427 132.562 1.88993 132.683 2.00126C132.807 2.11259 132.869 2.25254 132.869 2.42112C132.869 2.58971 132.807 2.72966 132.683 2.84099C132.562 2.95231 132.409 3.00798 132.225 3.00798ZM134.369 4.52998V4.10534L135.547 3.88587L135.9 2.43067H136.425V3.81908H139.045V4.52998H136.425V7.25431C136.425 7.57557 136.471 7.83162 136.564 8.02247C136.659 8.21332 136.802 8.35168 136.993 8.43756C137.184 8.52026 137.432 8.56161 137.737 8.56161C138.017 8.56161 138.268 8.52821 138.491 8.46142C138.714 8.39462 138.932 8.29125 139.145 8.15129V8.92899C138.979 9.03078 138.747 9.11984 138.448 9.19618C138.149 9.2757 137.852 9.31546 137.556 9.31546C136.859 9.31546 136.35 9.14369 136.029 8.80017C135.708 8.45347 135.547 7.9843 135.547 7.39268V4.52998H134.369ZM145.876 3.81908H146.811L143.877 9.71146C143.676 10.1154 143.427 10.4128 143.128 10.6037C142.829 10.7945 142.48 10.8899 142.083 10.8899C141.816 10.8899 141.572 10.8565 141.353 10.7897C141.133 10.7229 140.917 10.6212 140.704 10.4844V9.7878C140.92 9.92458 141.127 10.0232 141.324 10.0836C141.524 10.144 141.749 10.1743 141.997 10.1743C142.274 10.1743 142.511 10.1107 142.708 9.98342C142.905 9.85937 143.069 9.66057 143.199 9.38702L143.376 9.01964H142.98L140.427 3.81908H141.396L143.624 8.50436L145.876 3.81908Z" fill="white"/>
</svg>
