<svg width="107" height="13" viewBox="0 0 107 13" fill="none" xmlns="http://www.w3.org/2000/svg">
<path d="M9.15142 12.2179C16.1239 12.2179 17.2134 8.94953 17.2134 7.43985V7.19084H12.6377C12.5754 7.45542 12.233 9.0896 8.82458 9.0896C5.71185 9.0896 4.93367 7.45542 4.93367 6.21033V6.02356C4.93367 4.73178 5.61847 3.31549 8.80902 3.31549C12.1708 3.31549 12.5287 4.77847 12.6221 5.08975H17.2134V4.88742C17.2134 3.39331 16.1862 0.202764 9.15142 0.202764H8.54444C1.32291 0.202764 0.357964 3.73571 0.357964 5.94575V6.39709C0.357964 8.59156 1.43185 12.2179 8.54444 12.2179H9.15142ZM22.6759 0.420655H18.2713V12H22.6759V0.420655ZM34.9385 12L40.3703 0.420655H35.779L32.1215 8.49818L28.2306 0.420655H23.2191L29.071 12H34.9385ZM48.1285 0.202764C40.6268 0.202764 39.6774 3.76684 39.6774 5.94575V6.41265C39.6774 8.576 40.6268 12.2179 48.1285 12.2179H48.8288C56.315 12.2179 57.2643 8.576 57.2643 6.41265V5.94575C57.2643 3.76684 56.2994 0.202764 48.8288 0.202764H48.1285ZM52.6886 6.27258C52.6886 7.51767 51.8949 9.0896 48.4709 9.0896C45.0469 9.0896 44.2531 7.45542 44.2531 6.24145V6.05469C44.2531 4.82516 44.9846 3.31549 48.4709 3.31549C51.8949 3.31549 52.6886 4.82516 52.6886 6.05469V6.27258ZM66.8737 7.23753H63.0294L64.9282 3.25324L66.8737 7.23753ZM69.1926 12H74.0329L67.9787 0.420655H62.0334L56.306 12H60.7883L61.6754 10.1324H68.29L69.1926 12ZM74.5375 0.420655V12H78.9265V4.9808L86.1791 12H90.5992V0.420655H86.2103V7.00407L79.4868 0.420655H74.5375ZM96.7302 12H101.15V3.58007H106.146V0.420655H91.7343V3.58007H96.7302V12Z" fill="#E61E29"/>
</svg>
