<svg width="40" height="40" viewBox="0 0 40 40" fill="none" xmlns="http://www.w3.org/2000/svg">
<path d="M16 25.8316V14.1691L26.4 20.0004L16 25.8316Z" fill="white"/>
<path d="M39.1561 10.6469C38.9285 9.82543 38.4828 9.07642 37.8636 8.47486C37.2443 7.8733 36.4733 7.44029 35.6277 7.21917C32.5136 6.40039 20 6.40039 20 6.40039C20 6.40039 7.48639 6.40039 4.37227 7.21917C3.52666 7.44029 2.75566 7.8733 2.13644 8.47486C1.51722 9.07642 1.0715 9.82543 0.843887 10.6469C0.262412 13.7323 -0.0197625 16.8638 0.00107485 20.0004C-0.0197625 23.137 0.262412 26.2685 0.843887 29.3539C1.0715 30.1754 1.51722 30.9244 2.13644 31.5259C2.75566 32.1275 3.52666 32.5605 4.37227 32.7816C7.48639 33.6004 20 33.6004 20 33.6004C20 33.6004 32.5136 33.6004 35.6277 32.7816C36.4733 32.5605 37.2443 32.1275 37.8636 31.5259C38.4828 30.9244 38.9285 30.1754 39.1561 29.3539C39.7376 26.2685 40.0198 23.137 39.9989 20.0004C40.0198 16.8638 39.7376 13.7323 39.1561 10.6469ZM16.0002 25.829V14.1718L26.3854 20.0004L16.0002 25.829Z" fill="#FC0100"/>
</svg>
