<svg width="283" height="206" viewBox="0 0 283 206" fill="none" xmlns="http://www.w3.org/2000/svg">
<path d="M267.746 9.10217C256.522 15.8754 248.87 27.053 238.787 35.2338C230.901 41.6318 222.024 46.6648 214.126 53.0508C200.053 64.4288 185.993 73.8712 169.894 82.1803C158.554 88.0331 150.311 98.089 139.464 104.692C132.911 108.681 125.754 111.075 119.328 115.439C110.387 121.51 102.918 128.599 93.1395 133.369C87.0247 136.352 82.0088 140.499 76.7365 144.625C70.999 149.115 65.3018 154.054 59.9376 158.822C55.4337 162.825 49.3383 164.654 44.779 168.494C41.1954 171.512 36.4539 174.318 32.6747 177.6C26.1786 183.242 17.4434 188.241 11.7468 194.456C8.68742 197.793 2.99878 200.583 1 204.58" stroke="black" stroke-linecap="round" stroke-linejoin="round"/>
<path d="M21.3623 0.957275C28.4416 6.54621 35.833 12.0155 42.6862 17.8693C48.9029 23.1795 56.3636 28.0677 61.9738 33.9329C69.9241 42.2445 77.8129 50.7941 86.0127 58.8768C95.6907 68.4166 107.225 74.3388 118.592 81.5016C127.737 87.2642 136.631 93.6218 146.195 98.6964C153.993 102.835 162.214 106.374 169.781 110.914C173.271 113.008 176.065 115.763 179.397 117.984C182.437 120.011 186.115 120.819 189.238 122.735C195.215 126.403 199.142 132.405 205.019 136.197C212.013 140.709 217.212 146.561 224.42 150.847C234.148 156.631 246.5 159.934 255.303 167.136C259.135 170.272 263.535 173.239 267.746 176.073C272.84 179.502 276.983 183.928 282 187.272" stroke="black" stroke-linecap="round" stroke-linejoin="round"/>
<path d="M139.798 61.0926C106.769 61.0926 73.4339 63.557 40.4726 61.0926V90.8164C40.4726 94.4079 35.842 132.978 40.4726 133.75C52.464 135.748 67.6275 134.194 79.605 132.825C91.5817 131.456 101.917 133.53 113.908 132.825C119.6 132.49 124.14 132.825 129.881 132.825C136.921 132.825 145.344 132.883 152.383 132.825C167.247 132.702 182.203 133.801 197.034 132.825H229.379C235.777 130.887 249.781 136.945 249.781 129.029C249.781 120.302 250.772 95.6243 251.874 86.949C251.874 83.5347 253.807 59.819 251.874 59.3894C249.289 58.815 246.052 59.3407 243.406 59.3407C226.071 59.3407 208.822 61.0348 191.48 61.0926C174.253 61.1501 157.025 61.0926 139.798 61.0926Z" fill="#88A906" stroke="#88A906" stroke-linecap="round" stroke-linejoin="round"/>
</svg>
