<svg width="401" height="292" viewBox="0 0 401 292" fill="none" xmlns="http://www.w3.org/2000/svg">
<path d="M380.142 12.8667C364.179 22.4992 353.297 38.3952 338.957 50.0295C327.742 59.1283 315.118 66.286 303.886 75.3678C283.872 91.5488 263.877 104.977 240.982 116.794C224.855 125.117 213.133 139.418 197.706 148.809C188.387 154.481 178.209 157.886 169.07 164.092C156.355 172.726 145.733 182.808 131.827 189.591C123.13 193.833 115.997 199.731 108.499 205.599C100.34 211.984 92.2375 219.008 84.6089 225.789C78.2038 231.482 69.5353 234.084 63.0513 239.544C57.9549 243.836 51.2119 247.827 45.8373 252.494C36.599 260.517 24.1763 267.627 16.0749 276.465C11.7241 281.212 3.63405 285.179 0.791504 290.864" stroke="black" stroke-linecap="round" stroke-linejoin="round"/>
<path d="M29.7495 1.28345C39.8173 9.23168 50.3288 17.0098 60.075 25.3347C68.9161 32.8865 79.5263 39.8383 87.5047 48.1794C98.8111 59.9997 110.03 72.1584 121.691 83.653C135.455 97.2199 151.859 105.642 168.024 115.829C181.03 124.024 193.677 133.065 207.278 140.282C218.369 146.167 230.06 151.2 240.821 157.657C245.784 160.635 249.758 164.553 254.496 167.712C258.82 170.594 264.051 171.743 268.492 174.469C276.993 179.685 282.577 188.221 290.935 193.613C300.881 200.03 308.274 208.351 318.526 214.447C332.36 222.673 349.926 227.37 362.445 237.613C367.895 242.072 374.153 246.292 380.142 250.323C387.386 255.199 393.278 261.493 400.412 266.25" stroke="black" stroke-linecap="round" stroke-linejoin="round"/>
<path d="M198.181 86.8042C151.21 86.8042 103.802 90.3089 56.9268 86.8042V129.075C56.9268 134.183 50.3414 189.035 56.9269 190.132C73.9803 192.975 95.5449 190.764 112.579 188.817C129.611 186.871 144.309 189.821 161.362 188.817C169.457 188.341 175.914 188.817 184.079 188.817C194.09 188.817 206.068 188.9 216.079 188.817C237.218 188.643 258.487 190.205 279.579 188.817H325.579C334.676 186.062 354.592 194.676 354.592 183.419C354.592 171.007 356.002 135.913 357.568 123.575C357.568 118.72 360.318 84.9928 357.568 84.3819C353.893 83.5651 349.29 84.3127 345.526 84.3127C320.873 84.3127 296.342 86.722 271.681 86.8042C247.182 86.8858 222.681 86.8042 198.181 86.8042Z" fill="#88A906" stroke="#88A906" stroke-linecap="round" stroke-linejoin="round"/>
</svg>
