<svg width="109" height="117" viewBox="0 0 109 117" fill="none" xmlns="http://www.w3.org/2000/svg">
<circle cx="57" cy="45" r="20" fill="#2C2C2C"/>
<path d="M56.8242 1.12769C57.328 4.90592 57.467 8.57337 57.467 12.3767C57.467 15.6744 58.5761 18.529 58.7169 21.7688C59.0882 30.3092 59.1348 39.2345 58.6098 47.7667C57.2137 70.4526 55.3052 93.4898 57.467 116.19" stroke="#88A906" stroke-linecap="round" stroke-linejoin="round"/>
<path d="M0.900391 42.91C5.00217 43.6913 8.59173 44.8384 12.7565 44.8384C19.0973 44.8384 25.1433 46.7669 31.4336 46.7669C40.7394 46.7669 50.1381 46.1241 59.3598 46.1241C69.8682 46.1241 80.347 45.4812 90.8929 45.4812C94.2557 45.4812 97.4914 46.1241 100.856 46.1241C103.298 46.1241 105.541 47.8064 108.249 48.0525" stroke="#88A906" stroke-linecap="round" stroke-linejoin="round"/>
</svg>
