<svg width="396" height="234" viewBox="0 0 396 234" fill="none" xmlns="http://www.w3.org/2000/svg">
<path d="M62.1016 133.633C61.6029 132.901 60.8364 132.794 59.9984 133.025C59.5526 133.203 59.0533 133.506 58.8035 133.916C58.2862 134.433 57.8581 134.914 57.4656 135.484C56.4487 136.82 55.6457 138.175 55.0031 139.672C53.3433 143.022 52.0222 146.444 50.8258 149.92C46.5758 162.574 44.2866 175.48 43.1026 188.564C43.0843 189.295 43.0125 190.15 42.9051 190.917C42.8169 189.401 42.7286 187.886 42.6406 185.854C42.1304 173.963 42.099 166.636 42.2305 154.799C42.3417 147.312 42.5777 139.879 42.7246 132.481C42.7425 132.267 42.7961 132.142 42.8496 132.017C43.0994 131.607 42.957 131.251 42.8502 130.983C42.7078 130.627 42.4583 130.52 42.1552 130.537C41.8165 130.466 41.5847 130.662 41.5132 131C41.4061 131.25 41.299 131.499 41.281 131.713C41.2269 132.872 41.1371 133.942 41.083 135.1C40.7758 142.356 40.7181 149.718 40.6248 156.991C40.5654 167.455 40.7199 177.938 41.1418 188.313C41.3174 192.895 41.4931 197.476 41.8471 201.987C41.9359 202.468 41.9892 202.86 42.078 203.342C42.1669 203.823 42.452 204.019 42.8798 204.055C43.1829 204.037 43.5931 203.77 43.7181 203.307C43.7361 203.093 43.8076 202.754 43.7364 202.576C43.9517 200.009 44.078 197.478 44.2042 194.946C44.6715 188.351 45.2279 181.72 46.3369 175.178C47.7145 166.461 49.7159 158.013 52.573 149.636C53.7693 146.16 55.0369 142.863 56.7323 139.601C57.357 138.318 58.1064 137.089 58.9806 135.913C59.3552 135.556 59.6941 135.111 60.0687 134.755C60.247 134.683 60.4253 134.612 60.568 134.452C60.9243 134.826 60.9776 135.219 61.0309 135.611C61.2974 137.055 61.2609 138.517 61.1353 140.014C60.9732 142.973 60.508 145.95 59.918 148.873C58.8273 154.684 57.7721 160.584 56.5922 166.431C55.7519 170.798 54.858 175.29 54.0176 179.657C53.6957 181.439 53.5521 183.15 53.355 184.986C53.2656 185.539 53.39 186.11 53.3897 186.627C53.603 187.678 54.6011 188.107 55.5106 187.537C55.8672 187.395 56.1526 187.074 56.4736 186.842C57.0265 186.415 57.4546 185.934 57.8827 185.453C59.9874 183.475 61.9674 181.444 64.1076 179.555C65.7307 178.184 67.3001 176.937 69.1547 175.886C69.9215 175.476 70.5991 175.102 71.3836 174.996C72.2215 174.765 72.7918 175.157 73.023 175.995C73.0587 176.084 73.0943 176.173 73.1299 176.263C73.2184 177.261 73.1822 178.206 72.9677 179.222C72.592 181.646 71.7884 184.034 70.8601 186.369C67.8071 194.514 63.8095 202.106 58.9387 209.323C56.2267 213.404 53.1405 217.324 49.5731 220.816C47.4505 223.008 45.1319 224.967 42.4749 226.338C41.1732 226.962 39.9251 227.46 38.5345 227.602C37.1083 227.654 35.9676 227.386 34.9698 226.441C34.5423 225.888 34.0791 225.246 33.9191 224.586C33.2426 222.893 33.1367 221.074 33.2447 219.274C33.4062 217.348 33.7461 215.352 34.2107 213.409C35.0148 209.987 35.9081 206.529 37.1757 203.232C37.1937 203.018 37.3008 202.768 37.3543 202.644C37.7466 202.59 38.1388 202.537 38.2994 202.163C38.5136 201.664 38.6031 201.111 38.4786 200.541C38.2294 199.917 37.5165 199.685 36.91 200.237C36.7317 200.308 36.6246 200.558 36.5175 200.807C36.2677 201.217 36.0535 201.716 35.8393 202.215C34.0895 207.152 32.6783 212.16 31.9089 217.223C31.5331 219.647 31.514 221.929 32.0118 224.211C32.4211 225.495 32.9731 226.618 33.8817 227.599C35.2714 229.008 37.0895 229.419 39.1397 229.117C41.0117 228.887 42.8127 227.961 44.489 226.981C46.95 225.378 49.1794 223.454 51.2485 221.388C54.263 218.323 56.8676 215.009 59.3654 211.427C63.237 205.849 66.5739 199.968 69.4654 193.749C71.0896 190.309 72.589 186.816 73.625 183.198C74.1609 181.433 74.6075 179.704 74.7155 177.904C74.8408 176.923 74.7879 176.014 74.3963 175.033C74.0582 173.928 73.0781 173.286 71.8658 173.356C71.3488 173.356 70.8675 173.445 70.3325 173.658C69.3162 173.961 68.3176 174.566 67.4081 175.136C65.4464 176.437 63.6451 177.879 61.915 179.501C60.1849 181.122 58.4012 182.868 56.7067 184.578C56.1002 185.131 55.6365 185.523 55.0301 186.075C54.9945 185.986 54.9945 185.986 54.9945 185.986C54.9236 185.29 54.9774 184.649 54.9957 183.918C55.2826 181.012 55.8725 178.089 56.4625 175.166C57.8392 168 59.3407 160.888 60.7175 153.723C61.5043 149.48 62.2555 145.149 62.7036 140.835C62.7936 139.248 62.9372 137.537 62.7242 135.968C62.6712 135.059 62.5647 134.275 62.1016 133.633ZM85.6071 160.323C85.7127 162.658 85.4438 165.35 86.7261 167.525C87.3316 168.524 88.5795 168.542 89.5781 167.937C91.1652 166.993 92.2536 165.318 93.5027 163.269C94.948 160.934 95.6618 159.615 97.1071 157.281C97.464 156.621 98.1778 155.303 98.8378 154.626C99.1232 154.305 99.6946 152.629 97.9118 152.825C96.2703 155.444 92.8442 161.361 90.7389 164.372C90.2037 165.103 89.7576 165.798 88.9729 166.421C87.7244 167.437 87.4767 164.228 87.4058 163.532C87.2998 161.714 87.3899 160.128 87.1592 158.256C86.5896 156.829 85.2699 157.666 84.6632 158.736C83.7531 160.339 82.9142 162.122 82.0933 163.69C80.9155 165.918 79.8803 167.985 78.756 170.088C78.3991 170.747 78.0422 171.407 77.6141 171.888C77.4179 172.173 77.1148 172.19 76.9724 171.834C76.3315 170.229 76.1365 168.446 76.1197 166.592C76.1206 165.041 76.1571 163.58 76.0688 162.064C76.0867 161.85 76.0691 161.547 75.9979 161.369C75.8199 160.923 75.5703 160.816 75.2673 160.834C74.9642 160.851 74.7324 161.047 74.5717 161.422C74.411 161.796 74.5711 162.456 74.5708 162.973C74.5346 163.917 74.4805 165.076 74.4978 165.896C74.5143 168.267 74.6373 171.422 75.7951 173.027C76.4898 173.991 77.595 174.169 78.4868 173.296C81.3586 170.392 83.3409 164.225 85.6071 160.323ZM105.666 109.93C104.596 110.357 104.577 112.639 104.594 113.459C104.45 116.721 104.305 119.984 104.125 123.157C104.07 125.349 103.795 139.414 103.74 141.607C103.648 147.846 103.698 153.408 103.962 158.988C104.19 164.996 104.597 170.933 104.79 176.851C104.877 180.951 105.053 185.016 105.353 189.134C105.442 190.132 105.673 190.453 106.155 190.365C106.458 190.347 106.832 189.991 106.904 189.652C106.975 189.313 106.922 188.921 106.869 188.529C106.481 180.311 106.147 171.967 105.724 163.66C105.304 149.666 105.401 136.189 105.676 122.641C105.821 119.378 105.93 116.027 106.163 112.729C106.217 112.087 106.236 111.356 106.414 110.768C106.628 110.269 106.29 109.681 105.666 109.93ZM100.259 182.589C100.135 179.95 99.8693 177.472 99.8352 174.798C99.4474 167.097 99.38 160.198 99.3482 153.388C99.5669 145.134 99.4795 142.068 99.6431 136.524C99.8067 130.98 100.15 122.78 100.349 117.325C100.332 117.022 100.671 115.026 100.743 114.687C100.993 113.76 100.779 113.225 100.156 112.957C99.5675 112.779 99.0858 113.385 99.0855 113.902C98.9419 115.613 98.8519 117.199 98.7083 118.911C98.6 121.228 98.5809 123.51 98.4191 125.952C98.1439 139.5 97.6378 151.694 98.0053 163.745C98.0012 170.982 98.0156 176.972 98.7253 182.891C98.7427 183.711 98.956 184.763 99.8116 184.835C100.632 184.817 100.793 183.409 100.472 183.124C100.312 182.981 100.241 182.803 100.259 182.589ZM112.506 149.478C112.506 149.478 112.666 149.62 112.773 149.888C113.183 150.655 113.895 150.887 114.662 150.477C116.035 149.515 116.643 146.895 115.967 145.201C115.557 144.434 114.773 144.024 114.024 144.22C112.669 144.451 111.67 146.607 111.277 147.694C110.401 150.938 109.775 155.84 111.574 158.533C112.642 160.174 114.3 160.442 116.012 159.552C117.189 158.875 118.134 157.877 118.955 156.826C121.988 153.031 123.683 149.252 127.02 143.371C127.681 142.177 127.449 141.339 126.183 141.535C126.183 141.535 122.632 147.915 120.473 151.568C119.367 153.457 118.225 155.257 116.762 156.771C116.102 157.448 115.496 158 114.693 158.321C113.98 158.606 113.481 158.392 113.018 157.749C112.039 156.073 112.093 153.881 112.273 151.224C112.362 150.672 112.452 150.119 112.506 149.478ZM114.54 145.771C114.932 146.751 114.717 148.284 114.021 148.872C113.79 148.551 113.701 147.553 113.791 147C113.987 146.198 114.219 146.002 114.54 145.771ZM162.587 107.15C151.301 110.21 140.299 115.534 128.601 120.412C129.069 113.299 129.715 106.632 129.932 99.9294C129.986 99.2877 129.648 98.6992 129.06 98.5206C128.168 98.3597 127.918 99.8035 128.132 100.338C128.31 100.784 128.274 101.212 128.238 101.64C127.752 108.966 127.143 114.688 126.729 121.159C118.402 124.898 107.115 130.026 100.321 132.945C98.8945 133.515 98.6091 133.836 98.5197 134.388C98.4482 134.727 98.8937 135.066 99.2859 135.013C99.4998 135.031 100.195 134.96 101.978 134.248C110.484 130.438 118.026 126.805 126.782 123.102C126.022 141.392 125.868 161.198 126.214 179.666C126.373 183.428 126.442 187.225 126.868 190.88C127.027 192.573 127.205 194.053 127.935 195.105C128.327 195.569 128.879 195.658 129.379 195.356C129.824 195.178 129.967 194.5 129.522 194.161C129.112 193.912 128.934 193.466 128.845 192.984C128.668 192.022 128.615 191.113 128.437 190.15C128.101 185.942 127.943 181.664 127.82 177.475C127.546 158.667 127.841 141.286 128.529 122.301C138.907 117.743 149.213 113.524 159.804 110.019C161.569 109.52 163.299 108.933 165.046 108.649C166.401 108.418 167.257 108.49 167.898 108.544C167.827 108.882 167.773 109.007 167.755 109.221C167.719 109.649 167.88 109.791 168.254 109.952C168.628 110.113 169.039 109.846 169.324 109.525C170.948 107.119 168.096 105.674 162.587 107.15ZM157.211 129.144C157.211 129.144 155.356 131.229 155.071 131.549C150.558 136.556 149.451 137.928 144.938 142.935C144.938 142.935 144.564 143.291 144.368 143.576C144.546 142.988 144.76 142.489 144.975 141.99C145.564 140.101 146.189 138.301 146.44 136.34C146.601 134.932 146.263 132.792 144.445 132.898C142.716 132.969 141.235 135.214 140.45 136.354C138.327 139.58 136.792 142.984 135.542 146.584C135.327 147.083 135.149 147.671 135.024 148.135C134.989 147.529 135.025 146.584 134.989 145.978C135.009 143.179 135.028 140.38 135.048 137.581C135.102 136.94 135.031 136.244 134.96 135.549C134.871 135.068 134.55 134.782 134.158 134.835C133.373 134.942 133.284 136.012 133.319 136.618C133.337 136.921 133.461 137.491 133.532 137.67C133.404 143.303 133.33 148.811 133.291 154.409C133.178 164.998 133.211 170.257 133.526 180.882C133.595 184.162 133.718 187.317 134.144 190.455C134.215 191.15 134.375 191.81 134.535 192.47C134.677 192.826 134.963 193.022 135.212 193.13C135.551 193.201 135.997 193.023 136.157 192.649C136.407 192.239 136.389 191.936 136.069 191.65C136.033 191.561 135.962 191.383 135.926 191.294C135.873 190.902 135.695 190.456 135.731 190.028C135.518 187.942 135.27 185.767 135.271 183.699C135.061 177.478 134.921 172.985 134.904 170.614C134.817 166.514 134.837 162.681 134.84 158.545C135.054 158.046 134.876 157.601 135.09 157.102C135.5 157.351 135.946 157.173 136.32 156.817C137.747 155.214 139.014 153.467 140.12 151.578C140.905 150.438 141.441 149.19 142.475 148.157C144.848 145.555 147.185 142.865 149.557 140.264C152.465 136.932 154.659 134.402 155.979 133.047C156.461 132.442 157.495 131.408 157.977 130.802C158.494 130.286 158.78 128.931 157.211 129.144ZM140.372 148.066C139.979 148.637 139.498 149.243 139.105 149.813C137.714 151.506 136.75 152.717 135.608 154.517C135.323 154.838 135.27 154.963 135.162 155.212C135.288 154.232 135.449 153.34 135.61 152.449C136.539 147.53 138.343 142.985 140.859 138.672C141.608 137.442 142.393 136.302 143.428 135.269C143.749 135.037 144.73 134.128 144.836 134.913C144.996 135.573 144.853 136.25 144.764 136.802C144.424 138.799 143.745 140.724 143.031 142.56C142.228 144.431 141.425 146.302 140.372 148.066ZM177.04 123.5C177.575 122.769 177.79 121.236 176.346 121.503C173.58 126.225 170.725 130.983 167.995 135.795C167.049 137.31 166.139 138.914 165.443 139.502C165.123 138.182 165.053 135.936 165.322 133.244C165.502 131.105 166.181 128.146 166.021 126.453C165.968 125.544 165.059 125.08 164.239 125.614C162.491 126.932 160.707 129.195 158.763 130.798C158.71 130.406 158.8 129.854 158.836 128.909C158.925 127.839 158.694 127.518 158.266 127.482C157.66 127.518 157.499 127.892 157.321 128.48C157.196 128.944 157.016 130.566 157.141 131.136C157.425 132.366 158.548 132.848 159.69 132.082C161.152 131.085 162.775 129.196 164.363 127.735C164.13 128.965 163.987 130.16 163.755 131.39C163.361 134.028 163.055 138.181 163.981 139.982C164.302 140.785 164.997 141.231 165.746 141.035C166.851 140.697 167.886 139.147 168.546 137.953C170.955 133.889 172.115 131.876 174.524 127.813C175.131 126.743 176.433 124.569 177.04 123.5ZM191.666 115.385C191.666 115.385 181.86 118.267 177.65 122.739C177.722 122.401 177.758 121.973 177.918 121.598C177.972 121.474 178.061 121.438 178.15 121.403C178.382 121.207 178.614 121.011 178.596 120.708C178.543 120.315 178.24 119.816 177.902 119.744C177.438 119.619 176.992 119.797 176.832 120.172C176.725 120.421 176.618 120.671 176.511 120.92C175.725 123.095 175.242 125.251 174.92 127.551C174.509 129.886 174.258 132.881 175.415 135.003C176.056 136.091 177.197 136.359 178.16 135.664C180.71 134.025 182.228 129.801 182.122 126.949C182.105 125.612 181.464 124.524 180.27 123.864C179.985 123.668 179.7 123.471 179.326 123.311C179.326 123.311 185.907 118.305 191.255 117.72C191.255 117.72 192.948 118.077 193.181 116.847C193.181 116.847 193.467 115.493 191.666 115.385ZM180.393 127.019C180.517 129.141 179.553 131.903 178.215 133.471C177.965 133.881 177.269 134.469 176.824 134.13C176.575 133.506 176.415 132.846 176.379 132.24C176.184 130.457 176.381 128.621 176.703 126.839C176.971 125.698 177.204 124.468 177.454 123.541C177.543 124.023 177.899 124.397 178.344 124.736C178.719 124.897 179.093 125.058 179.378 125.254C180.073 125.7 180.412 126.288 180.393 127.019ZM206.99 109.266C206.99 109.266 197.183 112.148 192.974 116.62C193.045 116.281 193.081 115.854 193.242 115.479C193.295 115.355 193.384 115.319 193.474 115.283C193.706 115.087 193.937 114.891 193.92 114.588C193.866 114.196 193.564 113.697 193.225 113.625C192.762 113.5 192.316 113.678 192.155 114.053C192.048 114.302 191.941 114.552 191.834 114.801C191.048 116.975 190.566 119.132 190.244 121.432C189.832 123.767 189.581 126.762 190.738 128.884C191.38 129.971 192.52 130.239 193.483 129.545C196.034 127.906 197.551 123.682 197.446 120.83C197.429 119.493 196.788 118.405 195.594 117.745C195.309 117.548 195.023 117.352 194.649 117.191C194.649 117.191 201.23 112.186 206.578 111.601C206.578 111.601 208.272 111.958 208.504 110.728C208.504 110.728 208.79 109.374 206.99 109.266ZM195.717 120.9C195.84 123.021 194.876 125.784 193.538 127.352C193.288 127.762 192.593 128.35 192.147 128.011C191.898 127.387 191.738 126.727 191.703 126.121C191.508 124.338 191.705 122.502 192.027 120.72C192.295 119.579 192.527 118.349 192.777 117.422C192.866 117.903 193.222 118.278 193.668 118.617C194.042 118.778 194.416 118.938 194.702 119.135C195.396 119.581 195.735 120.169 195.717 120.9ZM210.153 138.704C210.047 137.402 209.798 135.744 209.603 134.479C209.621 134.265 209.674 134.14 209.728 134.015C210.995 131.752 212.262 129.489 213.653 127.279C218.81 119.224 224.002 111.259 229.194 103.293C229.533 102.847 229.694 102.473 230.122 101.992C230.621 101.689 230.8 100.067 229.089 100.441C225.092 106.482 219.597 114.982 215.493 121.272C213.405 124.587 211.229 127.937 209.266 131.305C208.842 124.549 208.596 117.721 208.653 110.875C208.518 97.5944 209.168 84.2069 210.495 70.4454C210.799 67.8428 210.889 66.7733 211.247 64.046C211.39 63.3686 211.855 61.9428 211.017 61.6571C210.393 61.3893 210.054 61.8348 209.875 62.423C209.267 66.0771 208.999 68.2518 208.64 72.013C208.371 74.7047 208.227 77.45 208.047 80.1061C207.544 86.6125 207.344 93.1014 207.073 100.446C206.909 105.99 206.924 111.463 206.974 117.025C207.025 122.587 207.289 128.167 207.856 133.729C207.892 133.818 207.785 134.067 207.731 134.192C207.517 134.691 207.249 135.315 207.035 135.814C206.66 136.687 206.285 137.561 206.249 138.505C206.195 139.664 206.818 140.449 207.977 140.503C208.191 140.521 208.494 140.503 208.708 140.521C208.921 141.573 209.224 142.59 209.401 143.552C210.13 146.672 211.091 150.113 213.514 152.557C214.476 153.413 215.653 153.771 216.901 153.272C217.792 152.916 218.488 152.328 218.988 151.508C220.807 148.818 221.451 145.77 220.775 142.525C220.562 141.473 220.117 140.617 219.279 139.814C218.282 138.869 217.07 138.423 215.697 138.35C213.861 138.153 212.078 138.348 210.153 138.704ZM210.491 140.326C212.273 140.131 213.896 139.793 215.732 139.991C217.817 140.295 219.1 141.436 219.349 143.611C219.615 146.089 219.043 148.282 217.74 150.456C217.491 150.866 217.062 151.347 216.527 151.561C215.939 151.899 215.386 151.809 214.816 151.417C214.246 151.024 213.783 150.382 213.444 149.794C211.859 147.119 211.023 143.731 210.491 140.326ZM208.459 138.863C207.942 138.863 207.817 138.809 207.943 138.346C208.068 137.883 208.211 137.205 208.282 136.867C208.371 137.348 208.459 138.346 208.459 138.863ZM258.502 138.52C259.375 139.412 260.605 139.644 261.782 138.967C262.656 138.308 263.281 137.542 263.923 136.562C264.904 135.136 265.565 133.425 266.35 131.768C267.76 128.31 269.01 124.71 270.225 121.021C272.153 114.978 273.993 108.972 275.922 102.93C278.029 95.7823 280.137 88.635 282.245 81.4876C284.138 75.3563 286.031 69.225 288.013 63.0581C289.549 58.1031 291.21 53.2017 292.87 48.3003C294.085 44.6108 295.299 40.9214 296.852 37.3034C297.084 36.5905 297.53 35.8955 297.852 35.147C297.905 35.0222 298.012 34.7727 298.315 34.755C298.583 34.6482 298.725 34.4879 298.922 34.2028C298.993 33.8641 298.922 33.6858 298.726 33.4539C298.281 33.115 297.853 33.0791 297.443 33.3462C297.068 33.7025 296.783 34.0233 296.622 34.3975C296.104 35.4312 295.587 36.4649 295.105 37.5877C293.266 42.0433 291.802 46.6596 290.213 51.2223C288.82 55.5 287.516 59.742 286.123 64.0196C284.569 68.6715 283.141 73.377 281.712 78.0824C279.908 84.1781 278.104 90.2739 276.211 96.4052C274.335 102.84 272.281 109.345 270.281 115.726C268.852 120.431 267.299 125.083 265.496 129.628C264.817 131.553 264.014 133.424 262.961 135.189C262.551 135.973 262.104 136.668 261.409 137.256C260.713 137.844 260.232 137.932 259.591 137.362C258.985 136.88 258.29 135.4 257.685 133.884C257.24 132.511 256.795 131.138 256.493 129.605C255.977 127.537 255.604 125.308 255.267 123.169C254.823 120.245 254.468 117.286 254.113 114.326C253.706 109.941 253.387 105.519 253.033 101.009C252.574 94.1633 252.203 87.282 251.744 80.4363C251.408 75.712 251.018 71.1125 250.325 66.5306C249.935 63.999 249.49 61.5921 248.654 59.2385C248.191 58.0795 247.675 57.0452 246.891 56.1178C245.982 55.1368 244.859 54.6549 243.504 54.8858C242.417 55.01 241.472 55.4908 240.562 56.0607C239.1 57.0582 237.869 58.3767 236.674 59.7843C234.73 61.9046 233.16 64.1855 231.661 66.6447C230.251 69.0684 228.93 71.4564 228.02 74.0942C227.645 74.9675 227.395 75.8944 227.269 76.8748C227.091 77.463 227.091 77.9799 227.393 78.4793C227.536 78.8359 227.91 78.9965 228.267 78.8541C228.588 78.6226 228.695 78.373 228.606 77.8917C228.588 77.5886 228.571 77.2855 228.642 76.9469C228.875 75.717 229.446 74.5585 229.892 73.3466C231.427 69.9425 233.336 66.6992 235.531 63.652C236.851 61.781 238.296 59.9635 240.062 58.4314C240.9 57.6831 241.774 57.0241 242.79 56.7216C243.86 56.2943 244.84 56.4197 245.553 57.1688C245.909 57.5434 246.177 57.9536 246.444 58.3637C247.227 59.8081 247.654 61.395 248.081 62.9818C248.686 65.5314 249.059 68.2769 249.307 70.9689C249.715 74.8375 250.087 78.617 250.316 82.5568C250.688 86.8533 250.882 91.221 251.164 95.553C251.535 101.917 251.995 108.246 252.58 114.628C253.076 119.495 253.626 124.238 254.693 128.98C255.191 131.262 255.813 133.598 256.757 135.702C257.149 136.683 257.665 137.717 258.502 138.52ZM299.433 74.8302C299.433 74.8302 299.594 74.9729 299.701 75.2404C300.11 76.0072 300.823 76.2393 301.59 75.8298C302.963 74.8679 303.571 72.2477 302.894 70.5538C302.485 69.787 301.7 69.3765 300.952 69.5722C299.597 69.8032 298.597 71.9596 298.204 73.0468C297.329 76.2908 296.702 81.1928 298.501 83.8857C299.57 85.5264 301.228 85.7947 302.939 84.9043C304.116 84.2276 305.062 83.2298 305.882 82.1785C308.915 78.3832 310.611 74.6049 313.948 68.7239C314.608 67.5299 314.377 66.6919 313.111 66.8873C313.111 66.8873 309.56 73.2672 307.401 76.9205C306.294 78.8095 305.152 80.6094 303.69 82.1238C303.03 82.8008 302.423 83.3531 301.621 83.6735C300.908 83.9584 300.409 83.7442 299.946 83.1021C298.966 81.4259 299.021 79.2332 299.201 76.5771C299.29 76.0245 299.379 75.472 299.433 74.8302ZM301.468 71.1234C301.859 72.1041 301.645 73.6371 300.949 74.225C300.717 73.904 300.629 72.9056 300.718 72.353C300.915 71.5509 301.147 71.355 301.468 71.1234ZM313.608 69.1697C314.054 68.4747 315.196 66.6748 316.07 66.5327C316.052 66.7466 316.069 67.0497 316.051 67.2636C315.98 68.1193 315.908 68.9749 315.801 69.7414C315.729 70.0801 315.711 70.294 315.693 70.5079C315.746 70.9001 316.156 71.1499 316.548 71.0967C316.976 71.1325 317.351 70.7762 317.298 70.384C317.28 70.0809 317.387 69.8314 317.405 69.6175C317.619 68.6015 317.798 67.4964 317.71 66.498C317.585 65.9275 317.496 65.4461 316.926 65.0536C316.231 64.6075 315.572 64.7676 314.805 65.1772C314.074 65.6759 313.503 66.3173 312.914 67.1727C311.255 69.4892 310.184 71.9844 309.398 74.6757C309.076 75.9413 308.933 77.1356 309.039 78.437C309.252 80.0059 310.107 81.1116 311.658 81.6295C313.209 82.1473 314.278 82.2371 315.668 82.6122C316.381 82.8444 317.023 83.4152 317.308 84.1284C317.788 85.0735 317.913 86.161 317.823 87.2306C317.84 87.5337 317.858 87.8367 317.697 88.211C317.394 89.2626 316.912 90.3854 316.555 91.5618C315.983 93.2372 315.501 94.8769 315.179 96.6594C315.072 97.4259 314.964 98.7094 315.855 98.8703C316.746 99.0313 317.175 98.0332 317.443 97.4095C318.389 94.8608 318.996 92.2406 319.39 89.6024C319.48 89.0499 319.391 88.5685 319.605 88.0695C320.176 86.3941 320.873 84.7722 321.569 83.1504C324.799 75.9681 327.816 68.7678 331.011 61.4963C331.172 61.122 331.28 59.8385 329.604 60.3011C327.444 65.5053 321.946 78.1413 319.268 84.3791C318.752 82.8279 317.897 81.7222 316.4 81.0795C314.974 80.6152 313.512 80.5788 311.962 80.0609C311.374 79.8823 310.946 79.3294 310.786 78.6697C310.555 77.8317 310.627 76.9761 310.788 76.0849C311.342 73.5894 312.306 71.3438 313.608 69.1697ZM365.97 25.9315C354.683 28.9913 343.681 34.3152 331.984 39.1931C332.452 32.0804 333.097 25.4136 333.315 18.7109C333.369 18.0691 333.03 17.4807 332.442 17.3021C331.551 17.1411 331.301 18.5849 331.514 19.1199C331.692 19.5656 331.656 19.9935 331.621 20.4213C331.135 27.7478 330.526 33.4698 330.112 39.9407C321.785 43.6796 310.497 48.8072 303.704 51.727C302.277 52.2966 301.992 52.6173 301.902 53.1699C301.831 53.5086 302.276 53.8475 302.669 53.7943C302.883 53.8122 303.578 53.7413 305.361 53.0293C313.866 49.2192 321.409 45.5868 330.164 41.8839C329.405 60.1737 329.251 79.9791 329.597 98.4478C329.756 102.209 329.825 106.007 330.25 109.661C330.41 111.355 330.587 112.835 331.318 113.887C331.71 114.351 332.262 114.44 332.761 114.137C333.207 113.959 333.35 113.282 332.905 112.943C332.495 112.693 332.317 112.247 332.228 111.766C332.05 110.803 331.997 109.894 331.82 108.931C331.483 104.724 331.325 100.445 331.203 96.2561C330.928 77.4487 331.224 60.0678 331.912 41.0827C342.29 36.5249 352.596 32.3059 363.187 28.8C364.952 28.3019 366.682 27.7146 368.429 27.4304C369.784 27.1994 370.639 27.2712 371.281 27.325C371.21 27.6637 371.156 27.7885 371.138 28.0024C371.102 28.4302 371.263 28.5729 371.637 28.7335C372.011 28.8942 372.421 28.627 372.707 28.3063C374.33 25.9006 371.479 24.455 365.97 25.9315Z" fill="#7C7C7C"/>
</svg>
