<svg width="258" height="174" viewBox="0 0 258 174" fill="none" xmlns="http://www.w3.org/2000/svg">
<path d="M118.434 130.28C118.025 129.513 117.437 129.334 116.724 129.102C115.708 128.888 114.585 128.923 113.462 128.958C111.162 129.152 108.844 129.561 106.526 129.97C104.333 130.432 102.23 130.859 100.108 131.499C96.8986 132.264 93.7605 133.207 90.5869 134.061C88.376 134.737 86.0759 135.449 83.865 136.125C81.565 136.837 79.3897 137.602 77.1252 138.403C75.0926 139.008 73.0065 139.738 70.9559 140.556C68.2457 141.535 65.4819 142.639 62.7538 143.832C59.4015 145.274 56.0492 146.716 52.679 148.372C48.7739 150.242 44.8508 152.325 40.8566 154.23C38.2887 155.566 32.4399 158.522 30.9066 158.824C30.2113 158.895 30.1581 158.503 30.2475 157.95C30.3905 157.273 30.4444 156.631 30.7121 156.007C31.4086 153.868 32.4437 151.801 33.6036 149.787C35.8166 145.492 38.2791 141.304 40.7771 137.206C46.8617 127.333 53.1066 117.603 59.4763 107.927C64.5078 100.336 69.664 92.7979 74.749 85.0818C77.0685 81.5712 79.2988 78.0963 81.4936 74.5322C82.8318 72.4472 83.956 70.3443 84.8308 68.1343C85.3484 67.1006 85.7056 65.9243 85.7597 64.7656C85.9389 63.1434 85.2622 61.9665 83.8363 61.5022C83.2481 61.3236 82.6064 61.2697 82.0894 61.2694C80.4137 61.215 78.9161 61.6063 77.3292 62.0333C74.9044 62.6915 72.5508 63.528 70.1436 64.4893C67.0589 65.8245 64.0097 67.2489 60.9961 68.7625C55.4147 71.6116 49.9757 74.8173 44.6791 78.3796C41.3086 80.5525 38.0985 82.8682 34.9595 85.3622C32.7481 87.0723 30.6613 88.8359 28.4854 90.6352C26.8624 92.0069 25.3641 93.4322 24.0262 95.0002C23.509 95.5169 23.0809 95.9979 22.7595 96.7465C22.5989 97.1208 22.563 97.5486 22.8302 97.9587C22.937 98.2262 23.1865 98.3333 23.4539 98.2265C23.757 98.2088 24.0424 97.8881 24.0248 97.5851C23.9715 97.1928 24.1678 96.9077 24.3996 96.7118C24.7386 96.2663 25.1132 95.91 25.4877 95.5537C28.3595 92.6495 31.3737 90.102 34.5126 87.6081C36.7241 85.898 38.9356 84.1879 41.1827 82.5669C48.1914 77.5972 55.5386 73.216 63.1349 69.4589C67.4502 67.3222 71.9258 65.3281 76.526 63.9046C78.2019 63.4421 79.9671 62.9439 81.6071 62.9092C82.3024 62.8383 82.9442 62.8922 83.6035 63.2491C83.9778 63.4097 84.2094 63.7307 84.1735 64.1586C84.2623 64.6399 84.2265 65.0678 84.1906 65.4956C83.8689 66.7611 83.3334 68.0087 82.7623 69.1671C81.5665 71.6087 80.1212 73.9431 78.6759 76.2776C75.8568 80.6079 72.9842 85.063 69.9868 89.4645C65.4905 96.3252 60.8695 103.132 56.2841 110.029C52.0377 116.48 47.9516 123.073 43.7407 129.613C40.0651 135.423 36.4786 141.196 33.2129 147.256C31.8388 149.768 30.5538 152.246 29.5184 154.83C29.1256 155.917 28.7863 156.88 28.7322 158.038C28.6066 159.536 29.444 160.338 30.781 160.321C31.9041 160.286 34.0438 159.432 37.8597 157.598C41.7293 155.639 45.5632 153.591 49.4683 151.722C52.1253 150.35 54.8179 149.068 57.6352 147.84C59.7393 146.896 61.8434 145.953 64.0366 144.974C65.9089 144.226 67.7811 143.478 69.6533 142.731C71.5612 142.072 73.3443 141.36 75.2521 140.702C77.2491 140.007 79.1569 139.349 81.1539 138.655C82.9191 138.157 84.6486 137.569 86.4137 137.071C89.427 136.075 92.3867 135.203 95.8279 134.242C98.6449 133.531 101.729 132.712 104.849 131.983C107.31 131.414 109.628 131.006 112.017 130.775C113.193 130.615 114.227 130.616 115.35 130.581C115.867 130.581 116.241 130.742 116.705 130.867C117.044 130.939 117.115 131.117 116.954 131.491C116.936 131.705 116.776 132.079 116.668 132.329C116.508 132.703 116.561 133.095 116.935 133.256C117.256 133.541 117.613 133.399 117.862 132.989C118.023 132.615 118.184 132.241 118.344 131.866C118.648 131.332 118.648 130.815 118.434 130.28ZM93.7023 96.8435C93.7023 96.8435 93.8627 96.9862 93.9695 97.2537C94.3791 98.0205 95.092 98.2526 95.8588 97.843C97.232 96.8812 97.8396 94.261 97.1631 92.5671C96.7536 91.8003 95.9694 91.3898 95.2206 91.5855C93.8656 91.8165 92.8661 93.9729 92.4733 95.0601C91.5979 98.3041 90.9712 103.206 92.7702 105.899C93.8388 107.54 95.4966 107.808 97.2084 106.918C98.3854 106.241 99.3308 105.243 100.151 104.192C103.184 100.396 104.88 96.6181 108.217 90.7372C108.877 89.5432 108.646 88.7052 107.38 88.9006C107.38 88.9006 103.829 95.2805 101.67 98.9338C100.563 100.823 99.4214 102.623 97.9588 104.137C97.2988 104.814 96.6924 105.366 95.89 105.687C95.1767 105.972 94.6777 105.757 94.2146 105.115C93.2351 103.439 93.2898 101.246 93.4696 98.5904C93.559 98.0378 93.6485 97.4852 93.7023 96.8435ZM95.7367 93.1367C96.1283 94.1174 95.9135 95.6504 95.2179 96.2383C94.9864 95.9172 94.8978 94.9189 94.9873 94.3663C95.1838 93.5642 95.4157 93.3683 95.7367 93.1367ZM116.435 89.316C116.649 89.851 116.72 90.5462 116.844 91.1168C117.022 92.0795 117.199 93.0423 117.645 93.8982C118.303 95.2891 119.444 95.5571 120.603 94.5773C121.21 94.025 121.781 93.3836 122.262 92.7778C124.332 90.1941 126.116 87.4141 128.025 84.6877C129.096 83.2265 129.845 81.9969 130.184 81.5514C130.719 80.8208 130.363 79.9293 129.133 80.2138C129.133 80.2138 127.42 82.6551 126.439 84.0807C124.726 86.522 123.013 88.9633 121.301 91.4045C120.819 92.0104 120.248 92.6518 119.642 93.2041C119.356 93.5248 119.321 93.4357 119.089 93.1147C118.769 92.3123 118.627 91.4387 118.395 90.6007C118.289 89.8162 118.093 89.0674 117.808 88.3542C117.613 87.6053 116.953 87.2484 116.204 87.4441C115.937 87.5509 115.616 87.7825 115.384 87.9784C114.635 88.6911 114.171 89.6 113.671 90.4197C112.208 92.9681 111.155 94.7324 109.781 97.2451C109.531 97.655 109.032 98.4748 108.675 99.1342C108.639 98.528 108.604 97.9219 108.604 97.4049C108.749 94.1427 108.769 90.8269 108.913 87.5647C108.949 87.1369 108.717 86.8159 108.379 86.7444C108.04 86.6729 107.684 86.8153 107.523 87.1896C107.505 87.4035 107.398 87.653 107.38 87.8669C107.307 89.7565 107.146 91.6817 107.109 93.6604C107.037 95.55 107.089 97.4932 107.017 99.3828C107.106 99.8642 107.105 100.381 107.283 100.827C107.568 101.54 108.37 101.737 109.012 101.274C109.387 100.917 109.672 100.597 109.922 100.187C110.832 98.5828 111.742 96.9789 112.652 95.375C113.705 93.6107 114.562 92.1316 115.561 90.4921C115.722 90.1178 116.15 89.6368 116.435 89.316ZM130.356 82.2061C130.356 82.2061 130.517 82.3488 130.624 82.6163C131.033 83.383 131.746 83.6152 132.513 83.2056C133.886 82.2438 134.494 79.6236 133.817 77.9296C133.408 77.1629 132.624 76.7524 131.875 76.9481C130.52 77.179 129.52 79.3355 129.127 80.4227C128.252 83.6667 127.625 88.5687 129.424 91.2616C130.493 92.9022 132.151 93.1706 133.863 92.2802C135.04 91.6035 135.985 90.6057 136.806 89.5544C139.838 85.759 141.534 81.9807 144.871 76.0998C145.531 74.9058 145.3 74.0678 144.034 74.2632C144.034 74.2632 140.483 80.6431 138.324 84.2964C137.218 86.1854 136.076 87.9852 134.613 89.4997C133.953 90.1767 133.347 90.729 132.544 91.0494C131.831 91.3342 131.332 91.12 130.869 90.478C129.889 88.8017 129.944 86.6091 130.124 83.953C130.213 83.4004 130.303 82.8478 130.356 82.2061ZM132.391 78.4993C132.782 79.48 132.568 81.013 131.872 81.6008C131.641 81.2798 131.552 80.2815 131.641 79.7289C131.838 78.9268 132.07 78.7309 132.391 78.4993ZM163.896 68.6059C164.431 67.8753 164.646 66.3423 163.202 66.6089C160.436 71.3314 157.581 76.0895 154.85 80.9012C153.905 82.4159 152.995 84.0198 152.299 84.6077C151.979 83.2883 151.909 81.0421 152.178 78.3504C152.357 76.2113 153.037 73.2525 152.877 71.5588C152.824 70.6496 151.915 70.1856 151.095 70.7199C149.347 72.0381 147.563 74.3011 145.619 75.9044C145.566 75.5122 145.655 74.9596 145.691 74.0148C145.781 72.9453 145.55 72.6242 145.122 72.5883C144.516 72.6237 144.355 72.9979 144.176 73.5861C144.051 74.0495 143.872 75.6717 143.997 76.2422C144.281 77.4724 145.404 77.9544 146.545 77.1885C148.008 76.191 149.631 74.3023 151.218 72.8414C150.986 74.0713 150.843 75.2656 150.61 76.4955C150.217 79.1337 149.911 83.2871 150.837 85.0882C151.158 85.8905 151.853 86.3366 152.601 86.1409C153.707 85.8029 154.742 84.2525 155.402 83.0585C157.811 78.9954 158.971 76.9816 161.38 72.9185C161.986 71.8492 163.289 69.6751 163.896 68.6059ZM168.66 68.1507C168.729 70.9138 168.905 75.4954 170.099 76.6727C170.687 77.3682 171.578 77.5292 172.398 76.9949C174.93 75.5702 178.18 67.14 180.554 61.9537C180.714 61.5795 181.428 59.7437 179.414 60.1348C177.379 64.8755 174.879 71.0421 171.9 75.2297C170.883 76.5662 170.689 73.2324 170.582 72.448C170.263 70.0947 170.336 67.6881 170.408 65.2815C170.426 64.5507 170.462 64.1228 170.463 63.6059C170.463 63.0889 170.321 62.7323 169.679 62.6784C169.126 62.589 168.752 62.9453 168.52 63.6582C167.305 67.3477 165.913 71.1083 163.914 74.9043C163.451 74.2623 163.684 71.4814 163.916 70.2515C164.274 68.5582 164.721 66.8292 165.577 65.3501C165.684 65.1006 165.827 64.9402 166.023 64.6551C166.094 64.8334 166.201 65.1009 166.362 65.2436C166.558 65.4754 166.932 65.6361 167.253 65.4045C167.574 65.173 167.735 64.7987 167.592 64.4421C167.485 64.1746 167.378 63.9072 167.272 63.6397C166.951 62.8373 166.149 62.6408 165.418 63.1395C164.776 63.6026 164.312 63.9945 163.795 65.0282C162.385 67.9688 161.366 72.4071 162.38 75.7234C162.754 76.9181 163.895 77.1861 164.84 76.1883C166.321 74.46 167.124 72.0717 168.053 69.7369C168.267 69.2379 168.445 68.6497 168.66 68.1507ZM215.786 25.7627C204.5 28.8224 193.497 34.1464 181.8 39.0242C182.268 31.9116 182.913 25.2448 183.131 18.542C183.185 17.9003 182.847 17.3118 182.258 17.1332C181.367 16.9723 181.117 18.4161 181.33 18.951C181.508 19.3968 181.473 19.8246 181.437 20.2524C180.951 27.579 180.342 33.301 179.928 39.7719C171.601 43.5107 160.314 48.6384 153.52 51.5581C152.093 52.1278 151.808 52.4485 151.719 53.0011C151.647 53.3397 152.093 53.6787 152.485 53.6254C152.699 53.6434 153.394 53.5725 155.177 52.8604C163.683 49.0503 171.225 45.418 179.98 41.715C179.221 60.0048 179.067 79.8103 179.413 98.279C179.572 102.041 179.641 105.838 180.067 109.492C180.226 111.186 180.403 112.666 181.134 113.718C181.526 114.182 182.078 114.271 182.578 113.968C183.023 113.79 183.166 113.113 182.721 112.774C182.311 112.524 182.133 112.078 182.044 111.597C181.866 110.634 181.813 109.725 181.636 108.762C181.299 104.555 181.141 100.277 181.019 96.0872C180.745 77.2798 181.04 59.8989 181.728 40.9138C192.106 36.3561 202.412 32.137 213.003 28.6312C214.768 28.1331 216.498 27.5458 218.245 27.2615C219.6 27.0306 220.456 27.1023 221.097 27.1562C221.026 27.4949 220.972 27.6196 220.954 27.8335C220.918 28.2614 221.079 28.4041 221.453 28.5647C221.827 28.7254 222.237 28.4582 222.523 28.1375C224.146 25.7318 221.295 24.2862 215.786 25.7627ZM199.89 51.9578C198.159 54.613 192.931 62.4895 190.576 65.9109C190.327 66.3207 189.06 68.067 188.65 67.8172C188.204 67.4783 188.135 63.6811 188.19 62.0054C188.226 60.5437 188.316 58.9571 188.442 57.4598C188.424 57.1567 188.407 56.8536 188.335 56.6753C187.979 55.7838 187.088 56.1398 186.767 56.8883C186.713 57.0131 186.534 57.6013 186.552 58.4213C186.551 58.9383 186.658 59.2058 186.729 59.3841C186.407 62.7175 186.422 67.6733 187.473 69.0109C187.9 69.5638 188.578 69.7068 189.202 69.4576C190.628 68.888 191.966 66.803 192.609 65.8229C195.499 61.6709 197.783 58.0712 200.424 53.8121C200.959 53.0815 201.477 51.5309 199.89 51.9578ZM187.218 46.3708C187.521 46.3532 187.967 46.1752 188.092 45.7117C188.414 44.4462 188.45 43.5014 188.682 42.2715C188.754 41.9328 188.487 41.5227 187.97 41.5224C187.667 41.54 187.31 41.6824 187.274 42.1103C187.006 43.251 186.863 44.4453 186.595 45.5861C186.559 46.0139 186.88 46.2993 187.218 46.3708ZM215.263 45.8186C215.263 45.8186 205.457 48.7009 201.247 53.173C201.319 52.8344 201.355 52.4066 201.515 52.0323C201.569 51.9075 201.658 51.8719 201.747 51.8363C201.979 51.6404 202.211 51.4444 202.193 51.1413C202.14 50.7491 201.837 50.2498 201.499 50.1783C201.035 50.0532 200.589 50.2313 200.429 50.6055C200.322 50.855 200.215 51.1046 200.107 51.3541C199.322 53.5285 198.839 55.6852 198.517 57.9847C198.106 60.3198 197.854 63.3145 199.012 65.4366C199.653 66.5244 200.794 66.7924 201.757 66.0977C204.307 64.4591 205.825 60.2351 205.719 57.3827C205.702 56.0457 205.061 54.9579 203.867 54.2976C203.582 54.1014 203.297 53.9051 202.923 53.7445C202.923 53.7445 209.504 48.7389 214.852 48.1537C214.852 48.1537 216.545 48.5112 216.778 47.2813C216.778 47.2813 217.064 45.9266 215.263 45.8186ZM203.99 57.453C204.114 59.5745 203.15 62.3371 201.812 63.9051C201.562 64.3149 200.866 64.9028 200.421 64.5639C200.172 63.9398 200.012 63.2801 199.976 62.674C199.781 60.8912 199.978 59.0552 200.3 57.2727C200.568 56.1319 200.801 54.902 201.051 53.9751C201.14 54.4565 201.496 54.8311 201.941 55.17C202.316 55.3307 202.69 55.4913 202.975 55.6876C203.67 56.1337 204.008 56.7221 203.99 57.453ZM224.308 46.2382C224.522 46.7731 224.593 47.4684 224.717 48.039C224.895 49.0017 225.072 49.9645 225.518 50.8204C226.176 52.2113 227.317 52.4793 228.476 51.4995C229.083 50.9472 229.654 50.3058 230.135 49.6999C232.205 47.1162 233.989 44.3363 235.898 41.6099C236.968 40.1487 237.718 38.9191 238.057 38.4736C238.592 37.743 238.236 36.8515 237.006 37.136C237.006 37.136 235.293 39.5773 234.312 41.0029C232.599 43.4442 230.886 45.8854 229.174 48.3267C228.692 48.9326 228.121 49.574 227.515 50.1263C227.229 50.447 227.194 50.3579 226.962 50.0368C226.642 49.2345 226.499 48.3609 226.268 47.5229C226.162 46.7384 225.966 45.9896 225.681 45.2764C225.486 44.5275 224.826 44.1706 224.077 44.3663C223.81 44.4731 223.489 44.7047 223.257 44.9006C222.508 45.6133 222.044 46.5222 221.544 47.3419C220.081 49.8903 219.028 51.6545 217.654 54.1673C217.404 54.5772 216.905 55.397 216.548 56.0563C216.512 55.4502 216.477 54.8441 216.477 54.3271C216.622 51.0649 216.642 47.7491 216.786 44.4869C216.822 44.0591 216.59 43.7381 216.252 43.6666C215.913 43.5951 215.556 43.7375 215.396 44.1118C215.378 44.3257 215.271 44.5752 215.253 44.7891C215.18 46.6787 215.019 48.6039 214.982 50.5826C214.91 52.4722 214.962 54.4154 214.89 56.305C214.979 56.7863 214.978 57.3033 215.156 57.7491C215.441 58.4623 216.243 58.6589 216.885 58.1957C217.26 57.8394 217.545 57.5187 217.795 57.1088C218.705 55.5049 219.615 53.9011 220.525 52.2972C221.578 50.5329 222.435 49.0538 223.434 47.4143C223.594 47.04 224.023 46.5589 224.308 46.2382Z" fill="#7C7C7C"/>
</svg>
