<svg width="322" height="205" viewBox="0 0 322 205" fill="none" xmlns="http://www.w3.org/2000/svg">
<path d="M62.1016 103.288C61.6029 102.557 60.8364 102.449 59.9984 102.681C59.5526 102.859 59.0533 103.162 58.8035 103.571C58.2862 104.088 57.8581 104.569 57.4656 105.139C56.4487 106.476 55.6457 107.83 55.0031 109.327C53.3433 112.678 52.0222 116.1 50.8258 119.575C46.5758 132.23 44.2866 145.135 43.1026 158.219C43.0843 158.95 43.0125 159.806 42.9051 160.572C42.8169 159.057 42.7286 157.542 42.6406 155.509C42.1304 143.619 42.099 136.292 42.2305 124.455C42.3417 116.968 42.5777 109.534 42.7246 102.136C42.7425 101.922 42.7961 101.797 42.8496 101.673C43.0994 101.263 42.957 100.906 42.8502 100.639C42.7078 100.282 42.4583 100.175 42.1552 100.193C41.8165 100.121 41.5847 100.317 41.5132 100.656C41.4061 100.905 41.299 101.155 41.281 101.369C41.2269 102.527 41.1371 103.597 41.083 104.756C40.7758 112.011 40.7181 119.373 40.6248 126.647C40.5654 137.111 40.7199 147.593 41.1418 157.969C41.3174 162.55 41.4931 167.132 41.8471 171.642C41.9359 172.123 41.9892 172.516 42.078 172.997C42.1669 173.478 42.452 173.675 42.8798 173.711C43.1829 173.693 43.5931 173.426 43.7181 172.962C43.7361 172.748 43.8076 172.41 43.7364 172.231C43.9517 169.665 44.078 167.133 44.2042 164.602C44.6715 158.006 45.2279 151.375 46.3369 144.833C47.7145 136.117 49.7159 127.668 52.573 119.291C53.7693 115.816 55.0369 112.518 56.7323 109.257C57.357 107.974 58.1064 106.744 58.9806 105.568C59.3552 105.212 59.6941 104.766 60.0687 104.41C60.247 104.339 60.4253 104.268 60.568 104.107C60.9243 104.482 60.9776 104.874 61.0309 105.266C61.2974 106.71 61.2609 108.172 61.1353 109.669C60.9732 112.629 60.508 115.605 59.918 118.529C58.8273 124.34 57.7721 130.24 56.5922 136.086C55.7519 140.453 54.858 144.945 54.0176 149.312C53.6957 151.095 53.5521 152.806 53.355 154.642C53.2656 155.195 53.39 155.765 53.3897 156.282C53.603 157.334 54.6011 157.762 55.5106 157.192C55.8672 157.05 56.1526 156.729 56.4736 156.498C57.0265 156.07 57.4546 155.589 57.8827 155.108C59.9874 153.13 61.9674 151.099 64.1076 149.211C65.7307 147.839 67.3001 146.592 69.1547 145.542C69.9215 145.132 70.5991 144.758 71.3836 144.651C72.2215 144.42 72.7918 144.813 73.023 145.651C73.0587 145.74 73.0943 145.829 73.1299 145.918C73.2184 146.916 73.1822 147.861 72.9677 148.877C72.592 151.302 71.7884 153.69 70.8601 156.025C67.8071 164.17 63.8095 171.762 58.9387 178.979C56.2267 183.059 53.1405 186.98 49.5731 190.472C47.4505 192.663 45.1319 194.623 42.4749 195.994C41.1732 196.617 39.9251 197.115 38.5345 197.257C37.1083 197.31 35.9676 197.042 34.9698 196.097C34.5423 195.544 34.0791 194.902 33.9191 194.242C33.2426 192.548 33.1367 190.73 33.2447 188.929C33.4062 187.004 33.7461 185.008 34.2107 183.065C35.0148 179.642 35.9081 176.185 37.1757 172.887C37.1937 172.673 37.3008 172.424 37.3543 172.299C37.7466 172.246 38.1388 172.193 38.2994 171.818C38.5136 171.319 38.6031 170.767 38.4786 170.196C38.2294 169.572 37.5165 169.34 36.91 169.892C36.7317 169.963 36.6246 170.213 36.5175 170.463C36.2677 170.872 36.0535 171.371 35.8393 171.87C34.0895 176.807 32.6783 181.816 31.9089 186.878C31.5331 189.303 31.514 191.584 32.0118 193.866C32.4211 195.15 32.9731 196.274 33.8817 197.255C35.2714 198.664 37.0895 199.075 39.1397 198.773C41.0117 198.542 42.8127 197.616 44.489 196.637C46.95 195.034 49.1794 193.11 51.2485 191.043C54.263 187.979 56.8676 184.664 59.3654 181.082C63.237 175.505 66.5739 169.624 69.4654 163.404C71.0896 159.964 72.589 156.471 73.625 152.853C74.1609 151.088 74.6075 149.36 74.7155 147.559C74.8408 146.579 74.7879 145.67 74.3963 144.689C74.0582 143.583 73.0781 142.941 71.8658 143.012C71.3488 143.011 70.8675 143.1 70.3325 143.314C69.3162 143.616 68.3176 144.222 67.4081 144.792C65.4464 146.092 63.6451 147.535 61.915 149.156C60.1849 150.777 58.4012 152.523 56.7067 154.234C56.1002 154.786 55.6365 155.178 55.0301 155.73C54.9945 155.641 54.9945 155.641 54.9945 155.641C54.9236 154.946 54.9774 154.304 54.9957 153.573C55.2826 150.668 55.8725 147.744 56.4625 144.821C57.8392 137.656 59.3407 130.544 60.7175 123.378C61.5043 119.136 62.2555 114.804 62.7036 110.49C62.7936 108.904 62.9372 107.193 62.7242 105.624C62.6712 104.715 62.5647 103.93 62.1016 103.288ZM74.9065 137.869C75.1546 140.561 75.4197 144.59 76.9697 146.142C77.718 146.98 78.7519 146.981 79.7862 146.465C80.5529 146.055 81.1238 145.414 81.7481 144.647C85.4588 139.961 89.4919 132.458 94.1306 125.954C94.2912 125.58 95.0586 124.136 93.0975 124.403C93.0975 124.403 91.2776 127.093 90.9207 127.753C88.0125 132.119 85.8713 135.558 83.1414 139.853C82.1601 141.278 81.3571 142.633 80.3046 143.88C80.0548 144.29 79.6267 144.771 79.0918 144.985C77.6653 145.554 77.1857 142.541 76.8123 140.83C75.6936 133.11 76.1273 122.806 76.7214 112.645C77.1899 103.982 78.6031 95.3546 79.5173 86.513C79.5888 86.1743 79.7674 85.5862 79.8569 85.0336C79.9999 84.3562 79.715 83.643 79.0198 83.7139C78.6275 83.7672 78.3601 83.874 78.2706 84.4266C78.0205 85.3534 77.8416 86.4586 77.7163 87.439C77.4117 90.0415 77.0537 92.7688 76.7847 95.4605C76.2654 99.596 75.96 103.749 75.4762 107.974C74.615 117.725 73.8249 127.654 74.9065 137.869ZM98.5701 125.939C98.6399 128.702 98.8155 133.283 100.009 134.461C100.597 135.156 101.488 135.317 102.309 134.783C104.841 133.358 108.09 124.928 110.464 119.742C110.625 119.367 111.339 117.532 109.324 117.923C107.289 122.663 104.79 128.83 101.811 133.018C100.794 134.354 100.599 131.02 100.493 130.236C100.173 127.883 100.246 125.476 100.319 123.069C100.337 122.339 100.373 121.911 100.373 121.394C100.374 120.877 100.231 120.52 99.5894 120.466C99.0368 120.377 98.6622 120.733 98.4301 121.446C97.2158 125.136 95.8231 128.896 93.8244 132.692C93.3612 132.05 93.5946 129.269 93.827 128.039C94.1845 126.346 94.6312 124.617 95.4877 123.138C95.5948 122.888 95.7375 122.728 95.9338 122.443C96.005 122.621 96.1118 122.889 96.2722 123.031C96.4681 123.263 96.8424 123.424 97.1634 123.192C97.4844 122.961 97.6451 122.587 97.5027 122.23C97.3958 121.963 97.289 121.695 97.1822 121.428C96.8618 120.625 96.0597 120.429 95.3285 120.927C94.6865 121.391 94.2228 121.782 93.7052 122.816C92.2952 125.757 91.2766 130.195 92.2908 133.511C92.6645 134.706 93.8052 134.974 94.7506 133.976C96.2312 132.248 97.0348 129.86 97.9631 127.525C98.1773 127.026 98.3559 126.438 98.5701 125.939ZM108.272 124.442C108.325 126.385 108.554 130.842 111.495 130.701C113.243 130.416 114.545 128.242 115.527 126.817C118.149 122.772 119.666 120.615 122.289 116.57C122.77 115.964 123.609 114.699 124.055 114.004C124.644 113.149 124.52 112.061 123.111 112.417C123.111 112.417 119.453 118.013 116.902 121.719C115.671 123.555 114.44 125.39 113.173 127.136C112.781 127.706 112.263 128.223 111.835 128.704C111.229 129.257 111.069 129.114 110.73 128.525C109.483 126.439 109.824 123.409 110.307 120.735C110.593 119.38 110.914 118.115 111.485 116.956C111.735 116.546 112.074 116.101 112.449 115.745C112.681 115.549 112.77 115.513 112.965 116.262C113.09 116.832 113.125 117.438 113.196 118.134C113.249 118.526 113.427 118.972 113.891 119.097C114.14 119.204 114.586 119.026 114.747 118.652C115.05 118.117 114.552 116.352 114.339 115.3C114.072 114.373 113.341 113.838 112.557 113.944C110.863 114.104 110.006 116.1 109.453 117.561C108.703 119.825 108.345 122.035 108.272 124.442ZM123.489 118.469C123.737 121.161 124.002 125.19 125.552 126.741C126.3 127.58 127.334 127.58 128.368 127.064C129.135 126.654 129.706 126.013 130.33 125.247C134.041 120.56 138.074 113.058 142.713 106.553C142.873 106.179 143.641 104.736 141.68 105.002C141.68 105.002 139.86 107.693 139.503 108.352C136.594 112.718 134.453 116.157 131.723 120.452C130.742 121.878 129.939 123.232 128.887 124.479C128.637 124.889 128.209 125.37 127.674 125.584C126.247 126.154 125.768 123.141 125.394 121.429C124.276 113.709 124.709 103.406 125.303 93.2448C125.772 84.5812 127.185 75.9539 128.099 67.1123C128.171 66.7737 128.349 66.1855 128.439 65.6329C128.582 64.9556 128.297 64.2423 127.602 64.3133C127.21 64.3665 126.942 64.4733 126.853 65.0259C126.603 65.9527 126.424 67.0579 126.298 68.0383C125.994 70.6408 125.636 73.3681 125.367 76.0598C124.847 80.1953 124.542 84.3488 124.058 88.5735C123.197 98.3242 122.407 108.253 123.489 118.469ZM216.66 41.0503C213.629 40.7099 210.581 41.1003 207.674 41.8474C204.073 42.6653 200.649 43.9291 197.333 45.4603C193.125 47.3475 189.273 49.6093 185.492 52.0494C185.493 50.4985 185.583 48.912 185.673 47.3255C185.763 45.7389 185.889 44.2416 185.765 42.6371C185.587 41.1574 184.464 41.1924 184.107 41.8517C183.804 42.3864 183.715 42.939 183.643 43.2776C183.357 44.1153 183.429 44.2936 184.177 44.6149C184.213 44.7041 184.195 44.918 184.195 44.918C184.051 47.6632 183.96 50.2837 183.816 53.029C183.798 53.2429 183.655 53.4032 183.423 53.5992C181.265 55.1845 179.232 56.8234 177.235 58.5515C165.73 68.831 153.706 85.3139 155.284 100.396C155.461 101.876 155.924 103.552 156.583 104.943C157.58 106.922 159.504 108.118 162.232 107.959C162.41 107.888 162.624 107.905 162.892 107.799C163.159 107.692 163.32 107.318 163.302 107.014C163.284 106.711 162.999 106.515 162.785 106.497C162.571 106.479 162.358 106.461 162.268 106.497C160.022 106.567 158.686 105.55 157.885 103.803C157.19 102.323 156.817 100.611 156.782 98.9709C156.13 86.2066 165.318 72.717 173.434 64.3074C176.556 60.9934 180.034 58.0539 183.618 55.382C183.115 63.4394 182.754 71.3364 182.731 79.305C182.584 87.22 182.651 95.1529 182.842 103.139C182.219 102.872 181.666 102.782 181.06 102.818C178.849 102.977 175.479 105.15 173.802 106.646C169.557 110.512 167.772 114.843 167.04 117.41C166.218 120.529 165.966 124.041 168.247 126.128C170.617 128.179 174.04 126.915 176.376 125.776C178.855 124.476 180.995 122.587 183.171 120.788C183.24 125.102 183.451 129.256 183.609 133.534C183.75 136.476 183.91 138.17 184.104 140.986C184.158 141.379 184.726 144.873 185.778 144.143C186.153 143.786 186.224 143.448 186.046 143.002C186.029 142.699 185.851 141.736 185.833 141.433C185.301 136.477 185.179 132.287 184.896 127.438C184.809 124.889 184.81 122.304 184.723 119.755C184.741 119.541 184.758 119.327 184.955 119.042C188.558 115.639 191.804 111.862 194.891 107.942C202.508 98.2839 209.341 88.2157 215.444 77.6123C217.621 73.7451 219.674 69.8244 221.476 65.7966C222.904 62.6421 224.118 59.4696 224.869 56.1721C225.423 53.6766 225.728 51.0741 225.373 48.6316C224.43 43.9427 221.775 41.695 216.66 41.0503ZM183.066 117.419C183.03 117.847 183.208 118.292 183.047 118.667C182.887 119.041 182.388 119.344 182.102 119.664C180.194 121.357 178.303 122.835 176.038 124.153C175.004 124.67 172.419 125.702 171.046 125.63C169.638 125.469 168.8 124.666 168.302 123.418C167.413 120.155 168.752 116.519 170.09 113.917C171.572 110.638 174.015 108.215 176.851 106.256C178.028 105.579 179.169 104.813 180.489 104.493C181.148 104.333 182.057 104.28 182.253 105.029C182.502 106.17 182.662 106.312 182.912 106.937C182.963 110.431 183.015 113.925 183.066 117.419ZM223.909 51.18C223.89 53.4618 223.354 55.7434 222.782 57.9357C221.764 61.34 220.372 64.5837 218.855 67.7738C216.392 72.9957 213.519 77.9677 210.521 82.8862C204.99 91.8142 198.924 100.439 192.287 108.671C189.736 111.861 187.328 114.89 184.635 117.206C184.6 116.083 184.6 115.049 184.601 114.015C184.517 105.262 184.308 96.4552 184.277 87.5775C184.193 78.8245 184.412 70.0539 184.934 61.2656C184.989 59.0729 185.133 56.8446 185.277 54.6164C185.348 54.2777 185.455 54.0282 185.687 53.8322C189.611 51.2318 193.73 48.8632 197.902 46.8868C200.987 45.5515 204.019 44.341 207.228 43.5763C211.186 42.6159 215.429 41.8518 219.19 43.2444C220.99 43.8694 222.397 45.0646 223.234 46.9012C223.768 48.2385 223.946 49.7183 223.909 51.18ZM231.349 71.6745C231.349 71.6745 231.509 71.8172 231.616 72.0846C232.026 72.8514 232.739 73.0836 233.505 72.674C234.879 71.7121 235.486 69.0919 234.81 67.398C234.4 66.6312 233.616 66.2208 232.867 66.4164C231.512 66.6474 230.513 68.8039 230.12 69.8911C229.244 73.135 228.618 78.037 230.417 80.7299C231.485 82.3706 233.143 82.6389 234.855 81.7486C236.032 81.0718 236.977 80.0741 237.798 79.0228C240.831 75.2274 242.526 71.4491 245.863 65.5682C246.524 64.3741 246.292 63.5362 245.027 63.7315C245.027 63.7315 241.475 70.1115 239.316 73.7647C238.21 75.6537 237.068 77.4536 235.605 78.968C234.945 79.6451 234.339 80.1973 233.537 80.5178C232.823 80.8026 232.324 80.5884 231.861 79.9464C230.882 78.2701 230.936 76.0774 231.116 73.4213C231.206 72.8688 231.295 72.3162 231.349 71.6745ZM233.383 67.9676C233.775 68.9483 233.56 70.4813 232.864 71.0692C232.633 70.7482 232.544 69.7498 232.634 69.1973C232.83 68.3952 233.062 68.1992 233.383 67.9676ZM264.888 58.0742C265.423 57.3436 265.638 55.8107 264.194 56.0772C261.428 60.7997 258.573 65.5579 255.843 70.3695C254.897 71.8843 253.987 73.4882 253.292 74.076C252.971 72.7567 252.901 70.5105 253.17 67.8188C253.35 65.6797 254.029 62.7208 253.869 61.0272C253.816 60.118 252.908 59.654 252.087 60.1883C250.339 61.5065 248.556 63.7695 246.611 65.3728C246.558 64.9805 246.648 64.428 246.684 63.4832C246.774 62.4136 246.542 62.0926 246.114 62.0567C245.508 62.092 245.347 62.4663 245.169 63.0545C245.044 63.5179 244.865 65.14 244.989 65.7106C245.274 66.9408 246.396 67.4227 247.538 66.6568C249 65.6594 250.623 63.7706 252.211 62.3098C251.978 63.5397 251.835 64.734 251.603 65.9639C251.209 68.602 250.904 72.7555 251.829 74.5565C252.15 75.3589 252.845 75.805 253.594 75.6093C254.699 75.2712 255.734 73.7209 256.394 72.5269C258.803 68.4638 259.963 66.45 262.372 62.3869C262.979 61.3176 264.281 59.1435 264.888 58.0742ZM263.16 62.589C263.213 64.5321 263.442 68.9889 266.383 68.848C268.13 68.5638 269.433 66.3897 270.414 64.9641C273.037 60.9189 274.554 58.7627 277.177 54.7175C277.658 54.1117 278.497 52.8465 278.943 52.1515C279.532 51.2962 279.407 50.2087 277.999 50.5644C277.999 50.5644 274.341 56.1599 271.79 59.8664C270.559 61.7019 269.328 63.5373 268.061 65.2836C267.668 65.8538 267.151 66.3705 266.723 66.8516C266.117 67.4039 265.956 67.2612 265.618 66.6727C264.371 64.5863 264.712 61.5559 265.195 58.8822C265.481 57.5275 265.802 56.262 266.373 55.1036C266.623 54.6937 266.962 54.2482 267.337 53.8919C267.568 53.6959 267.658 53.6603 267.853 54.4092C267.978 54.9797 268.013 55.5858 268.084 56.2811C268.137 56.6733 268.315 57.1191 268.779 57.2442C269.028 57.3513 269.474 57.1732 269.635 56.799C269.938 56.2643 269.44 54.4992 269.226 53.4473C268.96 52.5202 268.229 51.985 267.445 52.0915C265.751 52.2509 264.894 54.247 264.341 55.7085C263.591 57.9721 263.233 60.1824 263.16 62.589ZM281.722 3.90414C281.758 2.95934 280.332 3.01201 280.118 4.02801C279.742 6.45224 279.093 18.2888 278.478 33.8334C278.226 38.8961 278.098 44.0123 278.024 49.0037C277.934 51.6242 277.681 56.6869 278.393 57.953C278.821 59.0228 279.855 59.0234 280.301 58.3284C281.96 55.4949 283.174 52.8394 284.941 49.7564C285.886 48.2417 285.976 47.6891 287.349 46.2102C287.687 47.3157 288.362 51.5945 288.753 53.6091C288.984 54.9641 289.536 57.1215 291.319 56.4094C293.637 55.4837 298.026 47.8386 300.952 43.7757C301.488 43.0451 301.987 41.7084 300.312 41.654C300.312 41.654 298.545 44.22 298.349 44.5052C295.405 48.7819 291.641 54.6269 290.892 54.8226C290.731 54.6799 290.536 53.931 290.358 52.9683C289.807 50.294 289.328 45.73 288.616 44.9809C287.582 43.9464 286.155 45.033 285.281 46.2091C282.998 49.2918 281.391 53.0345 279.553 56.4562C279.432 50.1989 279.828 43.942 279.903 37.3996C280.012 32.4973 281.13 10.4462 281.722 3.90414Z" fill="#7C7C7C"/>
</svg>
