<svg width="338" height="210" viewBox="0 0 338 210" fill="none" xmlns="http://www.w3.org/2000/svg">
<path d="M29.1135 187.754C29.6108 191.07 31.2814 199.913 34.0611 202.214C34.952 202.892 35.8612 202.839 36.6104 202.126C37.0385 201.645 37.3775 201.2 37.6808 200.665C38.3411 199.471 38.841 198.134 39.2874 196.922C40.3946 193.482 41.1987 190.06 42.092 186.602C43.6112 179.793 45.0056 172.931 46.4 166.068C47.6158 159.794 48.8316 153.52 50.0474 147.245C50.5303 144.572 51.1023 141.862 51.9238 139.26C52.5458 142.63 52.9539 145.981 53.362 149.333C53.7348 152.078 54.0184 154.86 54.3912 157.605C54.8532 160.315 55.226 163.061 55.6879 165.771C56.1678 168.267 56.523 170.709 57.092 173.169C57.6255 175.541 58.2837 177.966 58.9063 180.301C59.8493 183.439 60.935 186.417 62.5557 189.181C63.4284 190.59 64.3903 191.963 65.6911 192.891C66.9028 193.854 68.2039 194.265 69.7727 194.052C71.1277 193.821 72.3047 193.144 73.4104 192.289C74.9443 190.953 76.1574 189.331 77.335 187.621C79.0657 184.965 80.5469 182.203 81.9033 179.387C85.4907 172.063 88.3651 164.506 90.9188 156.663C92.2226 152.421 93.5263 148.179 94.4914 143.866C95.9208 138.126 96.958 132.44 97.4427 126.665C97.6763 123.367 97.8208 120.105 97.4483 116.842C97.2182 113.936 96.7206 111.137 95.5634 108.498C94.7266 106.661 93.7115 104.896 92.3574 103.576C90.4866 101.739 88.2946 100.65 85.7456 100.221C83.4461 99.8987 81.1107 100.004 78.811 100.199C75.8515 100.554 72.5175 101.265 70.1277 103.046C68.9149 104.151 68.7001 105.684 69.6263 106.968C69.8579 107.289 70.1966 107.361 70.5532 107.218C70.8742 106.987 71.0348 106.612 70.8568 106.167C70.7856 105.988 70.75 105.899 70.6788 105.721C70.5544 105.15 70.6794 104.687 71.1431 104.295C72.3024 103.315 73.7645 102.835 75.5652 102.426C78.5962 101.732 81.5912 101.466 84.6751 101.682C86.9034 101.826 88.8995 102.683 90.6279 104.163C92.4274 105.822 93.6385 107.82 94.475 110.173C95.2759 112.438 95.7202 114.845 95.9506 117.233C96.3228 121.013 96.1424 124.703 95.6946 128.5C95.3898 131.619 94.9602 134.685 94.3523 137.822C92.9579 144.685 91.0109 151.458 88.85 158.213C87.6536 161.689 86.3325 165.111 85.0114 168.533C83.2083 173.077 81.2804 177.569 78.9783 181.899C77.7113 184.162 76.3551 186.461 74.803 188.528C73.7862 189.865 72.6089 191.059 71.2001 191.931C69.8448 192.679 68.5078 192.696 67.189 191.982C66.0842 191.287 65.3003 190.359 64.5344 189.218C63.1807 187.381 62.2906 185.152 61.4005 182.923C60.4395 179.999 59.5321 176.95 58.8922 173.794C58.3231 171.334 57.8432 168.838 57.3633 166.342C56.7416 162.455 56.1555 158.658 55.6585 154.825C55.0191 150.635 54.5937 146.464 54.0791 142.327C53.866 140.759 53.6 138.28 52.8341 137.139C52.4422 136.675 51.8361 136.711 51.2832 137.138C50.9443 137.584 50.7836 137.958 50.5694 138.457C49.8909 140.382 49.5154 142.289 49.0864 144.321C48.2461 148.688 47.3166 153.091 46.5118 157.547C44.9209 165.212 43.4191 172.841 41.8817 180.381C40.8092 185.461 39.6475 190.576 38.1116 195.531C37.6473 196.957 37.183 198.383 36.5047 199.791C36.2193 200.112 36.0587 200.486 35.7733 200.807C35.4879 201.127 35.2739 201.109 34.9532 200.824C33.8487 199.611 32.5852 195.671 31.927 193.246C31.358 190.785 30.8245 188.414 30.3446 185.918C29.7758 182.941 29.3498 179.803 28.8702 176.79C28.1955 171.994 27.6991 167.127 27.3275 162.314C26.6364 155.147 26.2483 147.963 26.1276 140.671C25.952 136.09 25.9011 131.562 25.8146 126.945C25.7981 124.574 25.7281 122.327 25.6225 119.992C25.5875 118.869 25.3741 117.817 25.0717 116.801C24.8224 116.177 24.6621 116.034 23.9668 116.105L23.8776 116.141C23.4139 116.532 23.3245 117.085 23.5916 117.495C23.7876 117.727 23.8944 117.995 23.9121 118.298C24.0536 120.205 24.1951 122.113 24.2119 123.967C24.3337 129.19 24.3663 134.449 24.4882 139.672C24.6985 145.894 24.9089 152.116 25.4223 158.32C25.7763 162.83 26.1838 167.215 26.7161 171.655C27.0353 174.525 27.3546 177.395 27.8165 180.105C28.2073 182.637 28.6336 185.258 29.1135 187.754ZM106.128 80.7105C106.164 79.7657 104.738 79.8184 104.523 80.8344C104.148 83.2586 103.499 95.0952 102.884 110.64C102.632 115.702 102.504 120.819 102.43 125.81C102.339 128.431 102.087 133.493 102.799 134.759C103.226 135.829 104.26 135.83 104.706 135.135C106.366 132.301 107.58 129.646 109.346 126.563C110.292 125.048 110.381 124.495 111.755 123.017C112.093 124.122 112.768 128.401 113.159 130.416C113.39 131.771 113.941 133.928 115.724 133.216C118.042 132.29 122.432 124.645 125.358 120.582C125.893 119.852 126.393 118.515 124.718 118.46C124.718 118.46 122.951 121.026 122.755 121.312C119.811 125.588 116.046 131.433 115.298 131.629C115.137 131.486 114.941 130.737 114.764 129.775C114.213 127.1 113.734 122.536 113.021 121.787C111.988 120.753 110.561 121.839 109.687 123.015C107.403 126.098 105.797 129.841 103.959 133.263C103.838 127.005 104.233 120.748 104.308 114.206C104.418 109.304 105.536 87.2526 106.128 80.7105ZM137.912 113.191C136.182 115.846 130.954 123.723 128.599 127.144C128.349 127.554 127.082 129.3 126.672 129.051C126.227 128.712 126.158 124.914 126.212 123.239C126.249 121.777 126.339 120.191 126.464 118.693C126.447 118.39 126.429 118.087 126.358 117.909C126.002 117.017 125.11 117.373 124.789 118.122C124.735 118.246 124.557 118.835 124.574 119.655C124.574 120.172 124.681 120.439 124.752 120.617C124.429 123.951 124.444 128.907 125.495 130.244C125.923 130.797 126.6 130.94 127.224 130.691C128.651 130.121 129.989 128.036 130.631 127.056C133.521 122.904 135.805 119.305 138.446 115.045C138.981 114.315 139.499 112.764 137.912 113.191ZM125.241 107.604C125.544 107.587 125.99 107.409 126.115 106.945C126.436 105.68 126.472 104.735 126.705 103.505C126.776 103.166 126.509 102.756 125.992 102.756C125.689 102.773 125.333 102.916 125.297 103.344C125.029 104.484 124.885 105.679 124.617 106.819C124.581 107.247 124.902 107.533 125.241 107.604ZM174.355 78.7907C163.069 81.8505 152.067 87.1744 140.37 92.0523C140.838 84.9397 141.483 78.2728 141.701 71.5701C141.755 70.9284 141.416 70.3399 140.828 70.1613C139.937 70.0003 139.687 71.4442 139.9 71.9791C140.078 72.4249 140.042 72.8527 140.006 73.2805C139.521 80.607 138.911 86.3291 138.498 92.7999C130.171 96.5388 118.883 101.666 112.09 104.586C110.663 105.156 110.378 105.477 110.288 106.029C110.217 106.368 110.662 106.707 111.054 106.654C111.268 106.671 111.964 106.601 113.747 105.888C122.252 102.078 129.795 98.4461 138.55 94.7431C137.791 113.033 137.637 132.838 137.983 151.307C138.141 155.069 138.211 158.866 138.636 162.52C138.796 164.214 138.973 165.694 139.703 166.746C140.095 167.21 140.648 167.299 141.147 166.996C141.593 166.818 141.736 166.141 141.291 165.802C140.881 165.552 140.703 165.107 140.614 164.625C140.436 163.662 140.383 162.753 140.205 161.79C139.869 157.583 139.711 153.305 139.589 149.115C139.314 130.308 139.609 112.927 140.298 93.9419C150.675 89.3842 160.982 85.1651 171.573 81.6593C173.338 81.1611 175.067 80.5738 176.815 80.2896C178.17 80.0586 179.025 80.1304 179.667 80.1843C179.595 80.5229 179.542 80.6477 179.524 80.8616C179.488 81.2894 179.648 81.4321 180.023 81.5928C180.397 81.7534 180.807 81.4863 181.093 81.1655C182.716 78.7599 179.865 77.3143 174.355 78.7907ZM146.476 112.252C146.476 112.252 146.636 112.395 146.743 112.663C147.153 113.429 147.866 113.661 148.632 113.252C150.006 112.29 150.613 109.67 149.937 107.976C149.527 107.209 148.743 106.799 147.994 106.994C146.639 107.225 145.64 109.382 145.247 110.469C144.371 113.713 143.745 118.615 145.544 121.308C146.612 122.949 148.27 123.217 149.982 122.326C151.159 121.65 152.104 120.652 152.925 119.601C155.958 115.805 157.653 112.027 160.99 106.146C161.651 104.952 161.419 104.114 160.154 104.309C160.154 104.309 156.602 110.689 154.443 114.343C153.337 116.232 152.195 118.032 150.732 119.546C150.072 120.223 149.466 120.775 148.663 121.096C147.95 121.381 147.451 121.166 146.988 120.524C146.009 118.848 146.063 116.655 146.243 113.999C146.333 113.447 146.422 112.894 146.476 112.252ZM148.51 108.546C148.902 109.526 148.687 111.059 147.991 111.647C147.76 111.326 147.671 110.328 147.761 109.775C147.957 108.973 148.189 108.777 148.51 108.546ZM183.653 126.04C184.15 129.356 185.821 138.199 188.601 140.5C189.492 141.178 190.401 141.125 191.15 140.413C191.578 139.932 191.917 139.486 192.22 138.951C192.881 137.757 193.381 136.421 193.827 135.209C194.934 131.769 195.738 128.347 196.632 124.889C198.151 118.08 199.545 111.217 200.94 104.355C202.155 98.0804 203.371 91.8061 204.587 85.5317C205.07 82.858 205.642 80.1487 206.463 77.5464C207.085 80.916 207.493 84.2677 207.902 87.6194C208.274 90.3649 208.558 93.146 208.931 95.8916C209.393 98.6015 209.766 101.347 210.227 104.057C210.707 106.553 211.063 108.995 211.632 111.456C212.165 113.827 212.823 116.252 213.446 118.588C214.389 121.726 215.475 124.703 217.095 127.467C217.968 128.876 218.93 130.249 220.231 131.177C221.442 132.141 222.743 132.551 224.312 132.338C225.667 132.107 226.844 131.431 227.95 130.575C229.484 129.239 230.697 127.618 231.875 125.907C233.605 123.252 235.086 120.49 236.443 117.674C240.03 110.349 242.905 102.792 245.458 94.9498C246.762 90.7077 248.066 86.4657 249.031 82.1522C250.46 76.4128 251.498 70.7266 251.982 64.9511C252.216 61.6532 252.36 58.391 251.988 55.1285C251.758 52.2226 251.26 49.4235 250.103 46.7845C249.266 44.9479 248.251 43.1825 246.897 41.8625C245.026 40.0253 242.834 38.9366 240.285 38.5073C237.986 38.1851 235.65 38.2907 233.351 38.4855C230.391 38.8404 227.057 39.5515 224.667 41.3328C223.454 42.4374 223.24 43.9704 224.166 45.2544C224.397 45.5755 224.736 45.647 225.093 45.5045C225.414 45.273 225.574 44.8987 225.396 44.4529C225.325 44.2746 225.29 44.1855 225.218 44.0072C225.094 43.4366 225.219 42.9732 225.683 42.5813C226.842 41.6015 228.304 41.121 230.105 40.712C233.136 40.0185 236.131 39.7528 239.215 39.9685C241.443 40.1124 243.439 40.9692 245.167 42.4498C246.967 44.1087 248.178 46.106 249.015 48.4596C249.815 50.7241 250.26 53.1309 250.49 55.5198C250.862 59.2993 250.682 62.9894 250.234 66.7862C249.929 69.9057 249.5 72.9717 248.892 76.1088C247.497 82.9713 245.55 89.7444 243.39 96.4995C242.193 99.975 240.872 103.397 239.551 106.819C237.748 111.364 235.82 115.855 233.518 120.186C232.251 122.449 230.895 124.748 229.343 126.815C228.326 128.151 227.148 129.345 225.74 130.218C224.384 130.966 223.047 130.983 221.729 130.269C220.624 129.573 219.84 128.646 219.074 127.504C217.72 125.667 216.83 123.438 215.94 121.21C214.979 118.285 214.072 115.237 213.432 112.081C212.863 109.62 212.383 107.124 211.903 104.628C211.281 100.742 210.695 96.9444 210.198 93.1113C209.559 88.9217 209.133 84.75 208.619 80.6139C208.406 79.045 208.14 76.5669 207.374 75.4256C206.982 74.9618 206.376 74.9972 205.823 75.4247C205.484 75.8702 205.323 76.2444 205.109 76.7435C204.43 78.6684 204.055 80.5756 203.626 82.6076C202.786 86.9747 201.856 91.3774 201.051 95.8336C199.46 103.498 197.959 111.127 196.421 118.667C195.349 123.747 194.187 128.863 192.651 133.818C192.187 135.243 191.723 136.669 191.044 138.077C190.759 138.398 190.598 138.772 190.313 139.093C190.027 139.414 189.814 139.396 189.493 139.11C188.388 137.898 187.125 133.957 186.467 131.532C185.898 129.072 185.364 126.701 184.884 124.205C184.315 121.227 183.889 118.089 183.41 115.076C182.735 110.281 182.239 105.414 181.867 100.6C181.176 93.4335 180.788 86.2491 180.667 78.9579C180.492 74.3763 180.441 69.8483 180.354 65.2311C180.338 62.8601 180.268 60.6139 180.162 58.2785C180.127 57.1554 179.914 56.1035 179.611 55.0872C179.362 54.4631 179.202 54.3204 178.506 54.3914L178.417 54.427C177.953 54.8189 177.864 55.3715 178.131 55.7816C178.327 56.0135 178.434 56.2809 178.452 56.584C178.593 58.4916 178.735 60.3991 178.751 62.2531C178.873 67.4764 178.906 72.7353 179.028 77.9586C179.238 84.1803 179.448 90.4019 179.962 96.6059C180.316 101.116 180.723 105.502 181.256 109.941C181.575 112.811 181.894 115.682 182.356 118.392C182.747 120.923 183.173 123.544 183.653 126.04ZM260.667 18.997C260.704 18.0522 259.278 18.1048 259.063 19.1208C258.687 21.5451 258.039 33.3817 257.424 48.9262C257.171 53.9889 257.044 59.1051 256.969 64.0965C256.879 66.717 256.626 71.7797 257.339 73.0458C257.766 74.1156 258.8 74.1162 259.246 73.4212C260.905 70.5877 262.119 67.9322 263.886 64.8492C264.831 63.3345 264.921 62.7819 266.294 61.3031C266.633 62.4085 267.307 66.6873 267.699 68.702C267.93 70.0569 268.481 72.2143 270.264 71.5022C272.582 70.5766 276.972 62.9314 279.898 58.8686C280.433 58.138 280.933 56.8012 279.257 56.7468C279.257 56.7468 277.491 59.3129 277.295 59.598C274.351 63.8747 270.586 69.7197 269.837 69.9154C269.677 69.7727 269.481 69.0239 269.303 68.0611C268.752 65.3868 268.273 60.8229 267.561 60.0737C266.527 59.0392 265.101 60.1258 264.227 61.3019C261.943 64.3846 260.336 68.1273 258.498 71.549C258.377 65.2917 258.773 59.0348 258.848 52.4924C258.958 47.5901 260.075 25.539 260.667 18.997ZM299.217 4.73973C298.789 4.70383 298.343 4.88184 298.218 5.34526C297.986 7.09216 297.771 8.62513 297.592 10.2473C297.538 10.889 295.853 26.3438 295.799 26.9856C294.816 32.547 293.583 38.0012 292.26 43.4911C291.51 46.2717 290.849 49.0166 289.885 51.7792C289.331 53.2407 288.385 55.2724 287.922 55.6643C287.369 56.0918 286.282 54.1481 285.997 53.9519C285.285 53.2027 284.393 53.5588 283.929 54.4677C283.536 55.0379 283.197 56.0003 282.68 57.034C281.983 58.6558 281.055 60.4736 280.431 61.7568C280.236 59.457 280.612 56.5158 281.505 54.0919C281.701 54.3238 282.021 54.6092 282.182 54.7519C282.467 54.9481 282.806 55.0196 283.127 54.7881C283.733 54.2358 283.038 53.2728 282.593 52.9338C281.096 51.7742 280.222 52.9503 279.758 54.3761C278.918 56.6753 278.524 61.3813 279.164 62.9861C279.467 64.0024 280.644 63.8427 281.268 63.0765C282.463 61.6688 283.713 58.5855 284.552 56.8033C284.659 56.5538 285.123 55.6449 285.319 55.3598C285.568 55.9839 286.12 56.5903 286.566 56.9292C288.294 58.4099 290.097 55.416 290.686 54.0437C291.542 52.0476 292.239 49.9087 292.811 47.7164C293.632 44.5972 295.241 37.7526 295.294 37.6279C295.383 38.1092 295.582 64.4929 296.29 73.5137C296.432 74.9042 296.662 77.2932 297.179 77.8104C297.482 78.3098 298.123 78.3636 298.498 78.0073C298.872 77.651 299.015 76.9736 298.606 76.7238C298.285 76.4384 298.214 76.2601 298.285 75.9214C298.09 74.1386 297.895 72.3559 297.736 70.6622C297.118 60.0549 296.736 41.4971 297.366 30.9083C297.439 28.5018 299.142 11.7991 299.464 9.49961C299.714 8.05579 299.822 6.77232 299.876 5.61361C299.912 5.18579 299.591 4.90038 299.217 4.73973ZM303.627 49.4958C303.627 49.4958 303.788 49.6385 303.895 49.9059C304.304 50.6727 305.017 50.9049 305.784 50.4953C307.157 49.5334 307.765 46.9132 307.088 45.2193C306.679 44.4525 305.894 44.0421 305.146 44.2377C303.791 44.4687 302.791 46.6252 302.398 47.7124C301.523 50.9563 300.896 55.8583 302.695 58.5512C303.764 60.1919 305.422 60.4602 307.133 59.5699C308.31 58.8931 309.256 57.8954 310.076 56.8441C313.109 53.0487 314.805 49.2704 318.142 43.3895C318.802 42.1954 318.571 41.3575 317.305 41.5528C317.305 41.5528 313.754 47.9328 311.595 51.586C310.488 53.475 309.346 55.2749 307.884 56.7893C307.224 57.4664 306.617 58.0186 305.815 58.3391C305.102 58.6239 304.603 58.4097 304.14 57.7677C303.16 56.0914 303.215 53.8987 303.395 51.2426C303.484 50.6901 303.573 50.1375 303.627 49.4958ZM305.662 45.7889C306.053 46.7696 305.839 48.3026 305.143 48.8905C304.911 48.5695 304.823 47.5711 304.912 47.0186C305.109 46.2165 305.341 46.0205 305.662 45.7889Z" fill="#7C7C7C"/>
</svg>
