<svg width="68" height="17" viewBox="0 0 68 17" fill="none" xmlns="http://www.w3.org/2000/svg">
<path d="M7.56 4.792L2.556 11.848H7.74V13H0.9V12.208L5.904 5.152H1.08V4H7.56V4.792ZM11.1731 1.228C11.1731 1.468 11.0891 1.672 10.9211 1.84C10.7531 2.008 10.5491 2.092 10.3091 2.092C10.0691 2.092 9.86508 2.008 9.69708 1.84C9.52908 1.672 9.44508 1.468 9.44508 1.228C9.44508 0.987999 9.52908 0.784 9.69708 0.616C9.86508 0.448 10.0691 0.364 10.3091 0.364C10.5491 0.364 10.7531 0.448 10.9211 0.616C11.0891 0.784 11.1731 0.987999 11.1731 1.228ZM10.9031 13H9.71508V4H10.9031V13ZM21.1641 5.764V4H22.3521V16.6H21.1641V11.236C20.3361 12.556 19.1241 13.216 17.5281 13.216C16.2441 13.216 15.1461 12.76 14.2341 11.848C13.3341 10.936 12.8841 9.82 12.8841 8.5C12.8841 7.18 13.3341 6.064 14.2341 5.152C15.1461 4.24 16.2441 3.784 17.5281 3.784C19.1241 3.784 20.3361 4.444 21.1641 5.764ZM15.0981 11.038C15.7821 11.722 16.6221 12.064 17.6181 12.064C18.6141 12.064 19.4541 11.722 20.1381 11.038C20.8221 10.33 21.1641 9.484 21.1641 8.5C21.1641 7.504 20.8221 6.664 20.1381 5.98C19.4541 5.284 18.6141 4.936 17.6181 4.936C16.6221 4.936 15.7821 5.284 15.0981 5.98C14.4141 6.664 14.0721 7.504 14.0721 8.5C14.0721 9.484 14.4141 10.33 15.0981 11.038ZM33.2914 10.786L34.9834 12.586L33.8674 13.216L32.5354 11.794C31.5874 12.742 30.3514 13.216 28.8274 13.216C27.6034 13.216 26.6014 12.898 25.8214 12.262C25.0654 11.614 24.6874 10.744 24.6874 9.652C24.6874 8.848 24.8914 8.128 25.2994 7.492C25.7194 6.856 26.3254 6.358 27.1174 5.998C26.4934 5.302 26.1814 4.51 26.1814 3.622C26.1814 2.578 26.5414 1.744 27.2614 1.12C27.9694 0.496 28.8094 0.184 29.7814 0.184C30.5854 0.184 31.3174 0.412 31.9774 0.868C32.6494 1.324 33.1294 1.93 33.4174 2.686L32.3554 3.298C32.1754 2.71 31.8514 2.248 31.3834 1.912C30.9274 1.576 30.3994 1.408 29.7994 1.408C29.1514 1.408 28.5934 1.606 28.1254 2.002C27.6694 2.398 27.4414 2.914 27.4414 3.55C27.4414 3.958 27.5314 4.33 27.7114 4.666C27.8914 4.99 28.1914 5.368 28.6114 5.8L32.4094 9.85C32.7574 9.154 32.9854 8.356 33.0934 7.456L34.2094 8.104C34.0414 9.16 33.7354 10.054 33.2914 10.786ZM28.7914 11.992C29.9914 11.992 30.9514 11.62 31.6714 10.876L27.9634 6.934C27.2794 7.186 26.7694 7.552 26.4334 8.032C26.1094 8.5 25.9474 9.028 25.9474 9.616C25.9474 10.348 26.1994 10.93 26.7034 11.362C27.2194 11.782 27.9154 11.992 28.7914 11.992ZM39.9099 11.542L42.8259 4H44.0859L40.2339 13.828C39.8739 14.74 39.3699 15.442 38.7219 15.934C38.0859 16.438 37.3779 16.66 36.5979 16.6V15.484C37.6779 15.616 38.4999 14.992 39.0639 13.612L39.2979 13.054L35.2659 4H36.5259L39.9099 11.542ZM52.7122 11.866C51.7882 12.766 50.6722 13.216 49.3642 13.216C48.0322 13.216 46.9102 12.766 45.9982 11.866C45.0862 10.954 44.6302 9.832 44.6302 8.5C44.6302 7.168 45.0862 6.052 45.9982 5.152C46.9102 4.24 48.0322 3.784 49.3642 3.784C50.6842 3.784 51.8002 4.24 52.7122 5.152C53.6362 6.052 54.0982 7.168 54.0982 8.5C54.0982 9.82 53.6362 10.942 52.7122 11.866ZM46.8442 11.038C47.5282 11.722 48.3682 12.064 49.3642 12.064C50.3602 12.064 51.2002 11.722 51.8842 11.038C52.5682 10.33 52.9102 9.484 52.9102 8.5C52.9102 7.504 52.5682 6.664 51.8842 5.98C51.2002 5.284 50.3602 4.936 49.3642 4.936C48.3682 4.936 47.5282 5.284 46.8442 5.98C46.1602 6.664 45.8182 7.504 45.8182 8.5C45.8182 9.484 46.1602 10.33 46.8442 11.038ZM60.2982 3.784C61.3782 3.784 62.2362 4.12 62.8722 4.792C63.5082 5.452 63.8262 6.346 63.8262 7.474V13H62.6382V7.474C62.6382 6.67 62.4222 6.046 61.9902 5.602C61.5702 5.158 60.9702 4.936 60.1902 4.936C59.2902 4.936 58.5762 5.218 58.0482 5.782C57.5322 6.346 57.2742 7.18 57.2742 8.284V13H56.0862V4H57.2742V5.404C57.9462 4.324 58.9542 3.784 60.2982 3.784ZM67.5813 1.228C67.5813 1.468 67.4973 1.672 67.3293 1.84C67.1613 2.008 66.9573 2.092 66.7173 2.092C66.4773 2.092 66.2733 2.008 66.1053 1.84C65.9373 1.672 65.8533 1.468 65.8533 1.228C65.8533 0.987999 65.9373 0.784 66.1053 0.616C66.2733 0.448 66.4773 0.364 66.7173 0.364C66.9573 0.364 67.1613 0.448 67.3293 0.616C67.4973 0.784 67.5813 0.987999 67.5813 1.228ZM67.3113 13H66.1233V4H67.3113V13Z" fill="white"/>
</svg>
