<svg width="402" height="172" viewBox="0 0 402 172" fill="none" xmlns="http://www.w3.org/2000/svg">
<path d="M380 8C364.052 13.6479 353.18 22.9683 338.853 29.7899C327.649 35.1249 315.037 39.3217 303.814 44.6467C283.819 54.1342 263.843 62.0078 240.969 68.9363C224.857 73.8168 213.146 82.2019 197.733 87.7078C188.422 91.0339 178.254 93.0304 169.123 96.669C156.419 101.731 145.808 107.643 131.914 111.62C123.226 114.107 116.099 117.565 108.608 121.006C100.456 124.75 92.3616 128.868 84.74 132.844C78.3408 136.182 69.6803 137.708 63.2023 140.909C58.1106 143.426 51.3738 145.766 46.0042 148.503C36.7744 153.207 24.3632 157.376 16.2693 162.558C11.9225 165.341 3.83992 167.667 1 171" stroke="#9D9999" stroke-linecap="round" stroke-linejoin="round"/>
<path d="M30 1C40.0769 5.64956 50.598 10.1996 60.3531 15.0695C69.2022 19.4872 79.822 23.5538 87.8077 28.4332C99.1244 35.3478 110.354 42.4605 122.025 49.1846C135.801 57.121 152.22 62.0478 168.4 68.0067C181.418 72.8007 194.077 78.0898 207.69 82.3115C218.791 85.7541 230.493 88.6983 241.264 92.4754C246.231 94.2173 250.209 96.5095 254.951 98.3573C259.279 100.044 264.514 100.716 268.96 102.31C277.468 105.361 283.057 110.355 291.423 113.509C301.378 117.263 308.778 122.131 319.039 125.696C332.886 130.508 350.468 133.256 362.998 139.248C368.453 141.857 374.717 144.325 380.711 146.683C387.962 149.535 393.859 153.217 401 156" stroke="#9D9999" stroke-linecap="round" stroke-linejoin="round"/>
<path d="M192.39 27.5207C145.418 27.5207 98.0108 31.0254 51.1353 27.5207V69.792C51.1353 74.8996 44.5499 129.751 51.1354 130.849C68.1888 133.691 89.7534 131.481 106.787 129.534C123.82 127.587 138.517 130.537 155.571 129.534C163.665 129.058 170.122 129.534 178.287 129.534C188.298 129.534 200.276 129.617 210.287 129.534C231.427 129.359 252.695 130.922 273.787 129.534H319.787C328.885 126.779 348.801 135.393 348.801 124.136C348.801 111.724 350.21 76.6295 351.777 64.292C351.777 59.4365 354.526 25.7094 351.777 25.0984C348.101 24.2816 343.498 25.0292 339.735 25.0292C315.082 25.0292 290.551 27.4385 265.889 27.5207C241.39 27.6024 216.889 27.5207 192.39 27.5207Z" fill="#88A906" stroke="#88A906" stroke-linecap="round" stroke-linejoin="round"/>
</svg>
