<svg width="242" height="92" viewBox="0 0 242 92" fill="none" xmlns="http://www.w3.org/2000/svg">
<path d="M95.1105 82.8415C95.0145 81.9775 94.5345 81.5935 93.9585 81.1135C93.0945 80.5375 92.0385 80.1535 90.9825 79.7695C88.7745 79.0975 86.4705 78.6175 84.1665 78.1375C81.9585 77.7535 79.8465 77.3695 77.6385 77.1775C74.3745 76.6975 71.1105 76.4095 67.8465 76.0255C65.5425 75.8335 63.1425 75.6415 60.8385 75.4495C58.4385 75.2575 56.1345 75.1615 53.7345 75.0655C51.6225 74.8735 49.4145 74.7775 47.2065 74.7775C44.3265 74.6815 41.3505 74.6815 38.3745 74.7775C34.7265 74.8735 31.0785 74.9695 27.3345 75.2575C23.0145 75.5455 18.5985 76.0255 14.1825 76.3135C11.3025 76.6015 4.77445 77.1775 3.23845 76.8895C2.56645 76.6975 2.66245 76.3135 2.95045 75.8335C3.33445 75.2575 3.62245 74.6815 4.10245 74.2015C5.54245 72.4735 7.27045 70.9375 9.09445 69.4975C12.7425 66.3295 16.5825 63.3535 20.4225 60.4735C29.7345 53.5615 39.1425 46.8415 48.6465 40.2175C56.1345 35.0335 63.7185 29.9455 71.3025 24.6655C74.7585 22.2655 78.1185 19.8655 81.4785 17.3695C83.4945 15.9295 85.3185 14.3935 86.9505 12.6655C87.8145 11.8975 88.5825 10.9375 89.0625 9.88152C89.8305 8.44152 89.6385 7.09752 88.4865 6.13752C88.0065 5.75352 87.4305 5.46552 86.9505 5.27352C85.4145 4.60152 83.8785 4.40952 82.2465 4.21752C79.7505 3.92952 77.2545 3.83352 74.6625 3.83352C71.3025 3.92952 67.9425 4.12152 64.5825 4.40952C58.3425 4.98552 52.1025 5.94552 45.8625 7.28952C41.9265 8.05752 38.0865 9.01752 34.2465 10.1695C31.5585 10.9375 28.9665 11.8015 26.2785 12.6655C24.2625 13.3375 22.3425 14.1055 20.5185 15.0655C19.8465 15.3535 19.2705 15.6415 18.6945 16.2175C18.4065 16.5055 18.2145 16.8895 18.3105 17.3695C18.3105 17.6575 18.5025 17.8495 18.7905 17.8495C19.0785 17.9455 19.4625 17.7535 19.5585 17.4655C19.6545 17.0815 19.9425 16.8895 20.2305 16.7935C20.7105 16.5055 21.1905 16.3135 21.6705 16.1215C25.4145 14.4895 29.1585 13.2415 32.9985 12.0895C35.6865 11.3215 38.3745 10.5535 41.0625 9.88152C49.4145 7.86552 57.8625 6.52152 66.3105 5.84952C71.1105 5.46552 76.0065 5.27352 80.8065 5.65752C82.5345 5.84952 84.3585 6.04152 85.8945 6.61752C86.5665 6.80952 87.1425 7.09752 87.6225 7.67352C87.9105 7.96152 88.0065 8.34552 87.8145 8.72952C87.7185 9.20952 87.5265 9.59352 87.3345 9.97752C86.5665 11.0335 85.6065 11.9935 84.6465 12.8575C82.6305 14.6815 80.4225 16.3135 78.2145 17.9455C73.9905 20.9215 69.6705 23.9935 65.2545 26.9695C58.5345 31.6735 51.7185 36.2815 44.9025 40.9855C38.5665 45.4015 32.3265 50.0095 25.9905 54.5215C20.4225 58.5535 14.9505 62.5855 9.67045 67.0015C7.46245 68.8255 5.35045 70.6495 3.43045 72.6655C2.66245 73.5295 1.99045 74.2975 1.51045 75.3535C0.838453 76.6975 1.31845 77.7535 2.56645 78.2335C3.62245 78.6175 5.92645 78.6175 10.1505 78.3295C14.4705 77.9455 18.7905 77.4655 23.1105 77.1775C26.0865 76.8895 29.0625 76.6975 32.1345 76.6015C34.4385 76.5055 36.7425 76.4095 39.1425 76.3135C41.1585 76.3135 43.1745 76.3135 45.1905 76.3135C47.2065 76.4095 49.1265 76.4095 51.1425 76.5055C53.2545 76.6015 55.2705 76.6975 57.3825 76.7935C59.2065 76.9855 61.0305 77.0815 62.8545 77.2735C66.0225 77.4655 69.0945 77.7535 72.6465 78.1375C75.5265 78.5215 78.6945 78.9055 81.8625 79.3855C84.3585 79.7695 86.6625 80.2495 88.9665 80.9215C90.1185 81.2095 91.0785 81.5935 92.1345 81.9775C92.6145 82.1695 92.9025 82.4575 93.2865 82.7455C93.5745 82.9375 93.5745 83.1295 93.2865 83.4175C93.1905 83.6095 92.9025 83.8975 92.7105 84.0895C92.4225 84.3775 92.3265 84.7615 92.6145 85.0495C92.8065 85.4335 93.1905 85.4335 93.5745 85.1455C93.8625 84.8575 94.1505 84.5695 94.4385 84.2815C94.9185 83.8975 95.1105 83.4175 95.1105 82.8415ZM84.5422 42.6175C84.5422 42.6175 84.6382 42.8095 84.6382 43.0975C84.7342 43.9615 85.3102 44.4415 86.1742 44.3455C87.8062 43.9615 89.3422 41.7535 89.3422 39.9295C89.2462 39.0655 88.6702 38.3935 87.9022 38.2975C86.5582 38.0095 84.8302 39.6415 84.0622 40.5055C82.0462 43.1935 79.6462 47.5135 80.3182 50.6815C80.7022 52.6015 82.1422 53.4655 84.0622 53.2735C85.4062 53.0815 86.6542 52.5055 87.8062 51.8335C92.0302 49.4335 95.0062 46.5535 100.286 42.3295C101.342 41.4655 101.438 40.6015 100.19 40.3135C100.19 40.3135 94.5262 44.9215 91.1662 47.5135C89.4382 48.8575 87.7102 50.1055 85.7902 50.9695C84.9262 51.3535 84.1582 51.6415 83.2942 51.6415C82.5262 51.6415 82.1422 51.2575 81.9502 50.4895C81.6622 48.5695 82.5262 46.5535 83.6782 44.1535C83.9662 43.6735 84.2542 43.1935 84.5422 42.6175ZM87.8062 39.9295C87.8062 40.9855 87.0382 42.3295 86.1742 42.6175C86.0782 42.2335 86.3662 41.2735 86.6542 40.7935C87.1342 40.1215 87.4222 40.0255 87.8062 39.9295ZM108.445 44.0575C108.445 44.6335 108.253 45.3055 108.157 45.8815C107.965 46.8415 107.773 47.8015 107.869 48.7615C107.965 50.2975 108.925 50.9695 110.365 50.4895C111.133 50.2015 111.901 49.8175 112.573 49.4335C115.453 47.8015 118.141 45.8815 120.925 44.0575C122.461 43.0975 123.613 42.2335 124.093 41.9455C124.861 41.4655 124.861 40.5055 123.613 40.3135C123.613 40.3135 121.117 41.9455 119.677 42.9055C117.181 44.5375 114.685 46.1695 112.189 47.8015C111.517 48.1855 110.749 48.5695 109.981 48.8575C109.597 49.0495 109.597 48.9535 109.501 48.5695C109.501 47.7055 109.693 46.8415 109.789 45.9775C109.981 45.2095 110.077 44.4415 110.077 43.6735C110.173 42.9055 109.693 42.3295 108.925 42.2335C108.637 42.2335 108.253 42.3295 107.965 42.4255C107.005 42.8095 106.237 43.4815 105.469 44.0575C103.165 45.8815 101.533 47.1295 99.3255 48.9535C98.9415 49.2415 98.1735 49.8175 97.5975 50.2975C97.7895 49.7215 97.9815 49.1455 98.1735 48.6655C99.5175 45.6895 100.765 42.6175 102.109 39.6415C102.301 39.2575 102.205 38.8735 101.917 38.6815C101.629 38.4895 101.245 38.4895 100.957 38.7775C100.861 38.9695 100.669 39.1615 100.573 39.3535C99.8055 41.0815 98.9415 42.8095 98.1735 44.6335C97.4055 46.3615 96.7335 48.1855 95.9655 49.9135C95.8695 50.3935 95.6775 50.8735 95.6775 51.3535C95.6775 52.1215 96.3495 52.6015 97.1175 52.4095C97.5975 52.2175 97.9815 52.0255 98.3655 51.7375C99.8055 50.5855 101.245 49.4335 102.685 48.2815C104.317 47.0335 105.661 45.9775 107.197 44.8255C107.485 44.5375 108.061 44.2495 108.445 44.0575ZM124.011 42.6175C124.011 42.6175 124.107 42.8095 124.107 43.0975C124.203 43.9615 124.779 44.4415 125.643 44.3455C127.275 43.9615 128.811 41.7535 128.811 39.9295C128.715 39.0655 128.139 38.3935 127.371 38.2975C126.027 38.0095 124.299 39.6415 123.531 40.5055C121.515 43.1935 119.115 47.5135 119.787 50.6815C120.171 52.6015 121.611 53.4655 123.531 53.2735C124.875 53.0815 126.123 52.5055 127.275 51.8335C131.499 49.4335 134.475 46.5535 139.755 42.3295C140.811 41.4655 140.907 40.6015 139.659 40.3135C139.659 40.3135 133.995 44.9215 130.635 47.5135C128.907 48.8575 127.179 50.1055 125.259 50.9695C124.395 51.3535 123.627 51.6415 122.763 51.6415C121.995 51.6415 121.611 51.2575 121.419 50.4895C121.131 48.5695 121.995 46.5535 123.147 44.1535C123.435 43.6735 123.723 43.1935 124.011 42.6175ZM127.275 39.9295C127.275 40.9855 126.507 42.3295 125.643 42.6175C125.547 42.2335 125.835 41.2735 126.123 40.7935C126.603 40.1215 126.891 40.0255 127.275 39.9295ZM160.202 42.4255C160.97 41.9455 161.738 40.6015 160.298 40.3135C155.978 43.6735 151.562 47.0335 147.242 50.4895C145.802 51.5455 144.362 52.6975 143.498 52.9855C143.69 51.6415 144.458 49.5295 145.706 47.1295C146.666 45.2095 148.394 42.7135 148.874 41.0815C149.162 40.2175 148.49 39.4495 147.53 39.6415C145.418 40.2175 142.922 41.6575 140.522 42.4255C140.618 42.0415 140.906 41.5615 141.29 40.6975C141.77 39.7375 141.674 39.3535 141.29 39.1615C140.714 38.9695 140.426 39.2575 140.042 39.7375C139.754 40.1215 138.986 41.5615 138.89 42.1375C138.698 43.3855 139.562 44.2495 140.906 43.9615C142.634 43.5775 144.842 42.4255 146.858 41.6575C146.186 42.7135 145.61 43.7695 144.938 44.8255C143.594 47.1295 141.77 50.8735 141.962 52.8895C141.962 53.7535 142.442 54.4255 143.21 54.5215C144.362 54.6175 145.898 53.5615 146.954 52.6975C150.698 49.8175 152.522 48.3775 156.266 45.4975C157.226 44.7295 159.242 43.1935 160.202 42.4255ZM164.795 43.7695C163.835 46.3615 162.299 50.6815 162.971 52.2175C163.259 53.0815 164.027 53.5615 164.987 53.3695C167.867 52.9855 174.011 46.3615 178.139 42.4255C178.427 42.1375 179.771 40.6975 177.755 40.3135C174.107 43.9615 169.499 48.7615 165.179 51.5455C163.739 52.4095 164.795 49.2415 164.987 48.4735C165.563 46.1695 166.523 43.9615 167.483 41.7535C167.771 41.0815 167.963 40.6975 168.155 40.2175C168.347 39.7375 168.347 39.3535 167.771 39.0655C167.291 38.7775 166.811 38.9695 166.331 39.5455C163.835 42.5215 161.147 45.4975 157.883 48.2815C157.691 47.5135 158.939 45.0175 159.611 43.9615C160.571 42.5215 161.627 41.0815 162.971 40.0255C163.163 39.8335 163.355 39.7375 163.643 39.5455C163.643 39.7375 163.643 40.0255 163.739 40.2175C163.835 40.5055 164.123 40.7935 164.507 40.6975C164.891 40.6015 165.179 40.3135 165.179 39.9295C165.179 39.6415 165.179 39.3535 165.179 39.0655C165.179 38.2015 164.507 37.7215 163.643 37.9135C162.875 38.1055 162.299 38.2975 161.435 39.0655C159.035 41.2735 156.443 45.0175 156.155 48.4735C156.059 49.7215 157.019 50.3935 158.267 49.8175C160.283 48.7615 161.915 46.8415 163.643 45.0175C164.027 44.6335 164.411 44.1535 164.795 43.7695ZM224.281 21.8815C212.665 20.5375 200.473 21.4015 187.801 21.5935C190.873 15.1615 193.945 9.20952 196.633 3.06552C196.921 2.48952 196.825 1.81752 196.345 1.43352C195.577 0.953522 194.809 2.20152 194.809 2.77752C194.809 3.25752 194.617 3.64152 194.425 4.02552C191.257 10.6495 188.569 15.7375 185.785 21.5935C176.665 21.9775 164.281 22.5535 156.889 22.7455C155.353 22.7455 154.969 22.9375 154.681 23.4175C154.489 23.7055 154.777 24.1855 155.161 24.2815C155.353 24.3775 156.025 24.5695 157.945 24.5695C167.257 24.1855 175.609 23.6095 185.113 23.4175C177.625 40.1215 170.137 58.4575 163.609 75.7375C162.361 79.2895 161.017 82.8415 160.057 86.3935C159.577 88.0255 159.193 89.4655 159.481 90.7135C159.673 91.2895 160.153 91.5775 160.729 91.4815C161.209 91.4815 161.593 90.9055 161.305 90.4255C161.017 90.0415 161.017 89.5615 161.113 89.0815C161.305 88.1215 161.593 87.2575 161.785 86.2975C163.033 82.2655 164.473 78.2335 165.913 74.2975C172.633 56.7295 179.353 40.6975 187.033 23.3215C198.361 22.9375 209.497 22.8415 220.633 23.5135C222.457 23.7055 224.281 23.8015 226.009 24.1855C227.353 24.4735 228.121 24.8575 228.697 25.1455C228.505 25.4335 228.409 25.5295 228.313 25.7215C228.121 26.1055 228.217 26.2975 228.505 26.5855C228.793 26.8735 229.273 26.7775 229.657 26.5855C232.057 24.9535 229.945 22.5535 224.281 21.8815ZM199.804 40.3135C197.212 42.1375 189.436 47.5135 185.98 49.8175C185.596 50.1055 183.772 51.2575 183.484 50.8735C183.196 50.3935 184.54 46.8415 185.212 45.3055C185.788 43.9615 186.46 42.5215 187.132 41.1775C187.228 40.8895 187.324 40.6015 187.324 40.4095C187.324 39.4495 186.364 39.4495 185.788 40.0255C185.692 40.1215 185.308 40.6015 185.02 41.3695C184.828 41.8495 184.828 42.1375 184.828 42.3295C183.292 45.3055 181.468 49.9135 181.948 51.5455C182.14 52.2175 182.716 52.6015 183.388 52.6015C184.924 52.6015 186.94 51.1615 187.9 50.4895C192.124 47.7055 195.58 45.2095 199.612 42.2335C200.38 41.7535 201.436 40.5055 199.804 40.3135ZM190.108 30.4255C190.396 30.5215 190.876 30.5215 191.164 30.1375C191.932 29.0815 192.316 28.2175 192.988 27.1615C193.18 26.8735 193.084 26.3935 192.604 26.2015C192.316 26.1055 191.932 26.1055 191.74 26.4895C191.068 27.4495 190.492 28.5055 189.82 29.4655C189.628 29.8495 189.82 30.2335 190.108 30.4255ZM216.358 40.3135C216.358 40.3135 206.182 39.3535 200.614 41.9455C200.806 41.6575 200.998 41.2735 201.286 40.9855C201.382 40.8895 201.478 40.8895 201.574 40.8895C201.862 40.7935 202.15 40.6975 202.246 40.4095C202.342 40.0255 202.246 39.4495 201.958 39.2575C201.574 38.9695 201.094 38.9695 200.806 39.2575C200.614 39.4495 200.422 39.6415 200.23 39.8335C198.694 41.5615 197.446 43.3855 196.294 45.4015C195.046 47.4175 193.702 50.1055 193.99 52.5055C194.182 53.7535 195.142 54.4255 196.294 54.1375C199.27 53.5615 202.246 50.2015 203.206 47.5135C203.686 46.2655 203.494 45.0175 202.63 43.9615C202.438 43.6735 202.246 43.3855 201.958 43.0975C201.958 43.0975 209.926 40.8895 215.11 42.3295C215.11 42.3295 216.55 43.2895 217.222 42.2335C217.222 42.2335 217.99 41.0815 216.358 40.3135ZM201.574 46.9375C200.902 48.9535 198.982 51.1615 197.158 52.1215C196.774 52.4095 195.91 52.6975 195.622 52.2175C195.622 51.5455 195.718 50.8735 195.91 50.2975C196.39 48.5695 197.254 46.9375 198.214 45.4015C198.886 44.4415 199.558 43.3855 200.134 42.6175C200.038 43.0975 200.23 43.5775 200.518 44.0575C200.806 44.3455 201.094 44.6335 201.286 44.9215C201.766 45.5935 201.862 46.2655 201.574 46.9375ZM224.602 44.0575C224.602 44.6335 224.41 45.3055 224.314 45.8815C224.122 46.8415 223.93 47.8015 224.026 48.7615C224.122 50.2975 225.082 50.9695 226.522 50.4895C227.29 50.2015 228.058 49.8175 228.73 49.4335C231.61 47.8015 234.298 45.8815 237.082 44.0575C238.618 43.0975 239.77 42.2335 240.25 41.9455C241.018 41.4655 241.018 40.5055 239.77 40.3135C239.77 40.3135 237.274 41.9455 235.834 42.9055C233.338 44.5375 230.842 46.1695 228.346 47.8015C227.674 48.1855 226.906 48.5695 226.138 48.8575C225.754 49.0495 225.754 48.9535 225.658 48.5695C225.658 47.7055 225.85 46.8415 225.946 45.9775C226.138 45.2095 226.234 44.4415 226.234 43.6735C226.33 42.9055 225.85 42.3295 225.082 42.2335C224.794 42.2335 224.41 42.3295 224.122 42.4255C223.162 42.8095 222.394 43.4815 221.626 44.0575C219.322 45.8815 217.69 47.1295 215.482 48.9535C215.098 49.2415 214.33 49.8175 213.754 50.2975C213.946 49.7215 214.138 49.1455 214.33 48.6655C215.674 45.6895 216.922 42.6175 218.266 39.6415C218.458 39.2575 218.362 38.8735 218.074 38.6815C217.786 38.4895 217.402 38.4895 217.114 38.7775C217.018 38.9695 216.826 39.1615 216.73 39.3535C215.962 41.0815 215.098 42.8095 214.33 44.6335C213.562 46.3615 212.89 48.1855 212.122 49.9135C212.026 50.3935 211.834 50.8735 211.834 51.3535C211.834 52.1215 212.506 52.6015 213.274 52.4095C213.754 52.2175 214.138 52.0255 214.522 51.7375C215.962 50.5855 217.402 49.4335 218.842 48.2815C220.474 47.0335 221.818 45.9775 223.354 44.8255C223.642 44.5375 224.218 44.2495 224.602 44.0575Z" fill="#7C7C7C"/>
</svg>
