<svg width="392" height="96" viewBox="0 0 392 96" fill="none" xmlns="http://www.w3.org/2000/svg">
<path d="M61.9229 12.865C61.7309 12.001 61.0589 11.617 60.1949 11.521C59.7149 11.521 59.1389 11.617 58.7549 11.905C58.0829 12.193 57.5069 12.481 56.9309 12.865C55.4909 13.729 54.2429 14.689 53.0909 15.841C50.3069 18.337 47.8109 21.025 45.4109 23.809C36.7709 33.985 29.8589 45.121 23.9069 56.833C23.6189 57.505 23.2349 58.273 22.8509 58.945C23.3309 57.505 23.8109 56.065 24.4829 54.145C28.4189 42.913 31.1069 36.097 35.6189 25.153C38.4989 18.241 41.4749 11.425 44.3549 4.60904C44.4509 4.41704 44.5469 4.32104 44.6429 4.22504C45.0269 3.93704 45.0269 3.55304 45.0269 3.26504C45.0269 2.88104 44.8349 2.68904 44.5469 2.59304C44.2589 2.40104 43.9709 2.49704 43.7789 2.78504C43.5869 2.97704 43.3949 3.16904 43.2989 3.36104C42.8189 4.41704 42.3389 5.37704 41.8589 6.43304C38.8829 13.057 36.0989 19.873 33.3149 26.593C29.3789 36.289 25.6349 46.081 22.1789 55.873C20.6429 60.193 19.1069 64.513 17.7629 68.833C17.6669 69.313 17.5709 69.697 17.4749 70.177C17.3789 70.657 17.5709 70.945 17.9549 71.137C18.2429 71.233 18.7229 71.137 19.0109 70.753C19.1069 70.561 19.2989 70.273 19.2989 70.081C20.4509 67.777 21.5069 65.473 22.5629 63.169C25.4429 57.217 28.4189 51.265 31.8749 45.601C36.3869 38.017 41.3789 30.913 47.1389 24.193C49.5389 21.409 51.9389 18.817 54.7229 16.417C55.7789 15.457 56.9309 14.593 58.1789 13.825C58.6589 13.633 59.1389 13.345 59.6189 13.153C59.8109 13.153 60.0029 13.153 60.1949 13.057C60.3869 13.537 60.2909 13.921 60.1949 14.305C59.9069 15.745 59.3309 17.089 58.6589 18.433C57.4109 21.121 55.8749 23.713 54.2429 26.209C51.0749 31.201 47.9069 36.289 44.6429 41.281C42.2429 45.025 39.7469 48.865 37.3469 52.609C36.3869 54.145 35.6189 55.681 34.7549 57.313C34.4669 57.793 34.3709 58.369 34.1789 58.849C33.9869 59.905 34.7549 60.673 35.8109 60.481C36.1949 60.481 36.5789 60.289 36.9629 60.193C37.6349 60.001 38.2109 59.713 38.7869 59.425C41.4749 58.369 44.0669 57.217 46.7549 56.257C48.7709 55.585 50.6909 55.009 52.8029 54.721C53.6669 54.625 54.4349 54.529 55.2029 54.721C56.0669 54.817 56.4509 55.393 56.3549 56.257C56.3549 56.353 56.3549 56.449 56.3549 56.545C56.0669 57.505 55.6829 58.369 55.1069 59.233C53.8589 61.345 52.2269 63.265 50.4989 65.089C44.6429 71.521 38.1149 77.089 30.9149 81.985C26.8829 84.769 22.5629 87.265 17.9549 89.185C15.1709 90.433 12.2909 91.393 9.31491 91.681C7.87491 91.777 6.53091 91.777 5.18691 91.393C3.84291 90.913 2.88291 90.241 2.30691 88.993C2.11491 88.321 1.92291 87.553 2.01891 86.881C2.01891 85.057 2.59491 83.329 3.36291 81.697C4.22691 79.969 5.28291 78.241 6.43491 76.609C8.45091 73.729 10.5629 70.849 12.9629 68.257C13.0589 68.065 13.2509 67.873 13.3469 67.777C13.7309 67.873 14.1149 67.969 14.4029 67.681C14.7869 67.297 15.0749 66.817 15.1709 66.241C15.1709 65.569 14.5949 65.089 13.8269 65.377C13.6349 65.377 13.4429 65.569 13.2509 65.761C12.8669 66.049 12.4829 66.433 12.0989 66.817C8.64291 70.753 5.47491 74.881 2.88291 79.297C1.63491 81.409 0.770911 83.521 0.386912 85.825C0.290912 87.169 0.386912 88.417 0.866911 89.665C1.63491 91.489 3.17091 92.545 5.18691 93.025C7.01091 93.505 9.02691 93.313 10.9469 93.025C13.8269 92.449 16.6109 91.489 19.2989 90.337C23.2349 88.609 26.8829 86.497 30.5309 84.097C36.1949 80.353 41.4749 76.129 46.4669 71.425C49.2509 68.833 51.9389 66.145 54.2429 63.169C55.3949 61.729 56.4509 60.289 57.2189 58.657C57.6989 57.793 57.9869 56.929 57.9869 55.873C58.0829 54.721 57.4109 53.761 56.2589 53.377C55.7789 53.185 55.2989 53.089 54.7229 53.089C53.6669 52.993 52.5149 53.185 51.4589 53.377C49.1549 53.857 46.9469 54.529 44.7389 55.393C42.5309 56.257 40.2269 57.217 38.0189 58.177C37.2509 58.465 36.6749 58.657 35.9069 58.945C35.9069 58.849 35.9069 58.849 35.9069 58.849C36.0989 58.177 36.3869 57.601 36.6749 56.929C38.0189 54.337 39.6509 51.841 41.2829 49.345C45.2189 43.201 49.2509 37.153 53.1869 31.009C55.4909 27.361 57.7949 23.617 59.8109 19.777C60.4829 18.337 61.2509 16.801 61.6349 15.265C61.9229 14.401 62.1149 13.633 61.9229 12.865ZM73.8539 46.369C73.0859 48.577 71.8379 50.977 72.2219 53.473C72.4139 54.625 73.5659 55.105 74.7179 54.913C76.5419 54.625 78.1739 53.473 80.0939 52.033C82.3019 50.401 83.4539 49.441 85.6619 47.809C86.2379 47.329 87.3899 46.369 88.2539 45.985C88.6379 45.793 89.7899 44.449 88.0619 43.969C85.5659 45.793 80.1899 50.017 77.1179 52.033C76.3499 52.513 75.6779 52.993 74.7179 53.281C73.1819 53.761 74.1419 50.689 74.3339 50.017C74.9099 48.289 75.5819 46.849 76.0619 45.025C76.0619 43.489 74.5259 43.777 73.5659 44.545C72.1259 45.697 70.6859 47.041 69.3419 48.193C67.4219 49.825 65.6939 51.361 63.8699 52.897C63.2939 53.377 62.7179 53.857 62.1419 54.145C61.8539 54.337 61.5659 54.241 61.5659 53.857C61.5659 52.129 62.0459 50.401 62.7179 48.673C63.2939 47.233 63.8699 45.889 64.3499 44.449C64.4459 44.257 64.5419 43.969 64.5419 43.777C64.5419 43.297 64.3499 43.105 64.0619 43.009C63.7739 42.913 63.4859 43.009 63.1979 43.297C62.9099 43.585 62.8139 44.257 62.6219 44.737C62.2379 45.601 61.7579 46.657 61.4699 47.425C60.6059 49.633 59.5499 52.609 60.0299 54.529C60.3179 55.681 61.2779 56.257 62.4299 55.777C66.1739 54.145 70.3019 49.153 73.8539 46.369ZM111.171 7.00904C110.019 7.00904 109.155 9.12104 108.867 9.88904C107.523 12.865 106.179 15.841 104.835 18.721C103.971 20.737 98.4989 33.697 97.6349 35.713C95.2349 41.473 93.2189 46.657 91.3949 51.937C89.3789 57.601 87.5549 63.265 85.5389 68.833C84.0989 72.673 82.7549 76.513 81.5069 80.449C81.2189 81.409 81.3149 81.793 81.7949 81.889C82.0829 81.985 82.5629 81.793 82.7549 81.505C82.9469 81.217 83.0429 80.833 83.1389 80.449C85.8269 72.673 88.6109 64.801 91.2989 56.929C96.0989 43.777 101.187 31.297 106.467 18.817C107.811 15.841 109.155 12.769 110.595 9.79304C110.883 9.21704 111.171 8.54504 111.555 8.06504C111.939 7.68104 111.843 7.00904 111.171 7.00904ZM79.2029 72.481C80.0669 69.985 80.7389 67.585 81.6989 65.089C84.1949 57.793 86.6909 51.361 89.1869 45.025C92.4509 37.441 93.5069 34.561 95.7149 29.473C97.9229 24.385 101.283 16.897 103.491 11.905C103.587 11.617 104.643 9.88904 104.835 9.60104C105.411 8.83304 105.411 8.25704 104.931 7.77704C104.451 7.39304 103.779 7.77704 103.587 8.25704C102.819 9.79304 102.147 11.233 101.379 12.769C100.419 14.881 99.5549 16.993 98.4989 19.201C93.2189 31.681 88.2269 42.817 84.0989 54.145C81.4109 60.865 79.2029 66.433 77.6669 72.193C77.3789 72.961 77.1869 74.017 77.9549 74.401C78.7229 74.689 79.3949 73.441 79.2029 73.057C79.1069 72.865 79.1069 72.673 79.2029 72.481ZM102.856 46.273C102.856 46.273 102.952 46.465 102.952 46.753C103.048 47.617 103.624 48.097 104.488 48.001C106.12 47.617 107.656 45.409 107.656 43.585C107.56 42.721 106.984 42.049 106.216 41.953C104.872 41.665 103.144 43.297 102.376 44.161C100.36 46.849 97.9604 51.169 98.6324 54.337C99.0164 56.257 100.456 57.121 102.376 56.929C103.72 56.737 104.968 56.161 106.12 55.489C110.344 53.089 113.32 50.209 118.6 45.985C119.656 45.121 119.752 44.257 118.504 43.969C118.504 43.969 112.84 48.577 109.48 51.169C107.752 52.513 106.024 53.761 104.104 54.625C103.24 55.009 102.472 55.297 101.608 55.297C100.84 55.297 100.456 54.913 100.264 54.145C99.9764 52.225 100.84 50.209 101.992 47.809C102.28 47.329 102.568 46.849 102.856 46.273ZM106.12 43.585C106.12 44.641 105.352 45.985 104.488 46.273C104.392 45.889 104.68 44.929 104.968 44.449C105.448 43.777 105.736 43.681 106.12 43.585ZM165.064 25.537C153.448 24.193 141.256 25.057 128.584 25.249C131.656 18.817 134.728 12.865 137.416 6.72104C137.704 6.14504 137.608 5.47304 137.128 5.08904C136.36 4.60904 135.592 5.85704 135.592 6.43304C135.592 6.91304 135.4 7.29704 135.208 7.68104C132.04 14.305 129.352 19.393 126.568 25.249C117.448 25.633 105.064 26.209 97.6717 26.401C96.1357 26.401 95.7517 26.593 95.4637 27.073C95.2717 27.361 95.5597 27.841 95.9437 27.937C96.1357 28.033 96.8077 28.225 98.7277 28.225C108.04 27.841 116.392 27.265 125.896 27.073C118.408 43.777 110.92 62.113 104.392 79.393C103.144 82.945 101.8 86.497 100.84 90.049C100.36 91.681 99.9757 93.121 100.264 94.369C100.456 94.945 100.936 95.233 101.512 95.137C101.992 95.137 102.376 94.561 102.088 94.081C101.8 93.697 101.8 93.217 101.896 92.737C102.088 91.777 102.376 90.913 102.568 89.953C103.816 85.921 105.256 81.889 106.696 77.953C113.416 60.385 120.136 44.353 127.816 26.977C139.144 26.593 150.28 26.497 161.416 27.169C163.24 27.361 165.064 27.457 166.792 27.841C168.136 28.129 168.904 28.513 169.48 28.801C169.288 29.089 169.192 29.185 169.096 29.377C168.904 29.761 169 29.953 169.288 30.241C169.576 30.529 170.056 30.433 170.44 30.241C172.84 28.609 170.728 26.209 165.064 25.537ZM151.915 43.969C151.915 43.969 149.419 45.217 149.035 45.409C142.987 48.385 141.451 49.249 135.403 52.225C135.403 52.225 134.923 52.417 134.635 52.609C135.019 52.129 135.403 51.745 135.787 51.361C137.035 49.825 138.283 48.385 139.243 46.657C139.915 45.409 140.395 43.297 138.667 42.721C137.035 42.145 134.827 43.681 133.675 44.449C130.507 46.657 127.819 49.249 125.323 52.129C124.939 52.513 124.555 52.993 124.267 53.377C124.459 52.801 124.843 51.937 125.035 51.361C126.091 48.769 127.147 46.177 128.203 43.585C128.491 43.009 128.683 42.337 128.875 41.665C128.971 41.185 128.779 40.801 128.395 40.705C127.627 40.513 127.147 41.473 126.955 42.049C126.859 42.337 126.763 42.913 126.763 43.105C124.555 48.289 122.443 53.377 120.331 58.561C116.299 68.353 114.379 73.249 110.731 83.233C109.579 86.305 108.523 89.281 107.755 92.353C107.563 93.025 107.467 93.697 107.371 94.369C107.371 94.753 107.563 95.041 107.755 95.233C108.043 95.425 108.523 95.425 108.811 95.137C109.195 94.849 109.291 94.561 109.099 94.177C109.099 94.081 109.099 93.889 109.099 93.793C109.195 93.409 109.195 92.929 109.387 92.545C109.963 90.529 110.539 88.417 111.307 86.497C113.419 80.641 114.955 76.417 115.819 74.209C117.259 70.369 118.699 66.817 120.235 62.977C120.619 62.593 120.619 62.113 121.003 61.729C121.291 62.113 121.771 62.113 122.251 61.921C124.171 60.961 125.995 59.809 127.723 58.465C128.875 57.697 129.835 56.737 131.179 56.161C134.347 54.625 137.515 52.993 140.683 51.457C144.619 49.441 147.595 47.905 149.323 47.137C149.995 46.753 151.339 46.177 152.011 45.793C152.683 45.505 153.451 44.353 151.915 43.969ZM129.259 55.297C128.683 55.681 128.011 56.065 127.435 56.449C125.515 57.505 124.171 58.273 122.443 59.521C122.059 59.713 121.963 59.809 121.771 60.001C122.251 59.137 122.731 58.369 123.211 57.601C125.899 53.377 129.259 49.825 133.195 46.753C134.347 45.889 135.499 45.121 136.843 44.545C137.227 44.449 138.475 43.969 138.283 44.737C138.187 45.409 137.803 45.985 137.515 46.465C136.459 48.193 135.115 49.729 133.771 51.169C132.331 52.609 130.891 54.049 129.259 55.297ZM172.423 46.081C173.191 45.601 173.959 44.257 172.519 43.969C168.199 47.329 163.783 50.689 159.463 54.145C158.023 55.201 156.583 56.353 155.719 56.641C155.911 55.297 156.679 53.185 157.927 50.785C158.887 48.865 160.615 46.369 161.095 44.737C161.383 43.873 160.711 43.105 159.751 43.297C157.639 43.873 155.143 45.313 152.743 46.081C152.839 45.697 153.127 45.217 153.511 44.353C153.991 43.393 153.895 43.009 153.511 42.817C152.935 42.625 152.647 42.913 152.263 43.393C151.975 43.777 151.207 45.217 151.111 45.793C150.919 47.041 151.783 47.905 153.127 47.617C154.855 47.233 157.063 46.081 159.079 45.313C158.407 46.369 157.831 47.425 157.159 48.481C155.815 50.785 153.991 54.529 154.183 56.545C154.183 57.409 154.663 58.081 155.431 58.177C156.583 58.273 158.119 57.217 159.175 56.353C162.919 53.473 164.743 52.033 168.487 49.153C169.447 48.385 171.463 46.849 172.423 46.081ZM189.016 43.969C189.016 43.969 178.84 43.009 173.272 45.601C173.464 45.313 173.656 44.929 173.944 44.641C174.04 44.545 174.136 44.545 174.232 44.545C174.52 44.449 174.808 44.353 174.904 44.065C175 43.681 174.904 43.105 174.616 42.913C174.232 42.625 173.752 42.625 173.464 42.913C173.272 43.105 173.08 43.297 172.888 43.489C171.352 45.217 170.104 47.041 168.952 49.057C167.704 51.073 166.36 53.761 166.648 56.161C166.84 57.409 167.8 58.081 168.952 57.793C171.928 57.217 174.904 53.857 175.864 51.169C176.344 49.921 176.152 48.673 175.288 47.617C175.096 47.329 174.904 47.041 174.616 46.753C174.616 46.753 182.584 44.545 187.768 45.985C187.768 45.985 189.208 46.945 189.88 45.889C189.88 45.889 190.648 44.737 189.016 43.969ZM174.232 50.593C173.56 52.609 171.64 54.817 169.816 55.777C169.432 56.065 168.568 56.353 168.28 55.873C168.28 55.201 168.376 54.529 168.568 53.953C169.048 52.225 169.912 50.593 170.872 49.057C171.544 48.097 172.216 47.041 172.792 46.273C172.696 46.753 172.888 47.233 173.176 47.713C173.464 48.001 173.752 48.289 173.944 48.577C174.424 49.249 174.52 49.921 174.232 50.593ZM205.516 43.969C205.516 43.969 195.34 43.009 189.772 45.601C189.964 45.313 190.156 44.929 190.444 44.641C190.54 44.545 190.636 44.545 190.732 44.545C191.02 44.449 191.308 44.353 191.404 44.065C191.5 43.681 191.404 43.105 191.116 42.913C190.732 42.625 190.252 42.625 189.964 42.913C189.772 43.105 189.58 43.297 189.388 43.489C187.852 45.217 186.604 47.041 185.452 49.057C184.204 51.073 182.86 53.761 183.148 56.161C183.34 57.409 184.3 58.081 185.452 57.793C188.428 57.217 191.404 53.857 192.364 51.169C192.844 49.921 192.652 48.673 191.788 47.617C191.596 47.329 191.404 47.041 191.116 46.753C191.116 46.753 199.084 44.545 204.268 45.985C204.268 45.985 205.708 46.945 206.38 45.889C206.38 45.889 207.148 44.737 205.516 43.969ZM190.732 50.593C190.06 52.609 188.14 54.817 186.316 55.777C185.932 56.065 185.068 56.353 184.78 55.873C184.78 55.201 184.876 54.529 185.068 53.953C185.548 52.225 186.412 50.593 187.372 49.057C188.044 48.097 188.716 47.041 189.292 46.273C189.196 46.753 189.388 47.233 189.676 47.713C189.964 48.001 190.252 48.289 190.444 48.577C190.924 49.249 191.02 49.921 190.732 50.593ZM197.536 72.481C197.92 71.233 198.304 69.601 198.592 68.353C198.688 68.161 198.784 68.065 198.88 67.969C200.896 66.337 202.912 64.705 205.024 63.169C212.8 57.601 220.576 52.129 228.352 46.657C228.832 46.369 229.12 46.081 229.696 45.793C230.272 45.697 231.04 44.257 229.312 43.969C223.36 48.097 215.104 53.953 208.96 58.273C205.792 60.577 202.528 62.881 199.456 65.281C201.568 58.849 203.872 52.417 206.464 46.081C211.264 33.697 216.832 21.505 223.168 9.21704C224.416 6.91304 224.896 5.95304 226.24 3.55304C226.624 2.97704 227.584 1.82504 226.912 1.24904C226.432 0.769037 225.952 1.05704 225.568 1.53704C223.648 4.70504 222.592 6.62504 220.864 9.98504C219.616 12.385 218.464 14.881 217.312 17.281C214.432 23.137 211.84 29.089 208.864 35.809C206.656 40.897 204.64 45.985 202.624 51.169C200.608 56.353 198.784 61.633 197.248 67.009C197.248 67.105 197.056 67.297 196.96 67.393C196.576 67.777 196.096 68.257 195.712 68.641C195.04 69.313 194.368 69.985 193.984 70.849C193.504 71.905 193.792 72.865 194.848 73.345C195.04 73.441 195.328 73.537 195.52 73.633C195.328 74.689 195.232 75.745 195.04 76.705C194.56 79.873 194.176 83.425 195.52 86.593C196.096 87.745 197.056 88.513 198.4 88.513C199.36 88.513 200.224 88.225 200.992 87.649C203.68 85.825 205.408 83.233 205.984 79.969C206.176 78.913 206.08 77.953 205.6 76.897C205.024 75.649 204.064 74.785 202.816 74.209C201.184 73.345 199.456 72.865 197.536 72.481ZM197.248 74.113C198.976 74.593 200.608 74.881 202.24 75.745C204.064 76.801 204.832 78.337 204.256 80.449C203.584 82.849 202.24 84.673 200.224 86.209C199.84 86.497 199.264 86.785 198.688 86.785C198.016 86.881 197.536 86.593 197.152 86.017C196.768 85.441 196.576 84.673 196.48 84.001C196 80.929 196.48 77.473 197.248 74.113ZM195.904 72.001C195.424 71.809 195.328 71.713 195.616 71.329C195.904 70.945 196.288 70.369 196.48 70.081C196.384 70.561 196.096 71.521 195.904 72.001ZM242.506 90.241C242.986 91.393 244.042 92.065 245.386 91.873C246.442 91.585 247.306 91.105 248.266 90.433C249.706 89.473 250.954 88.129 252.298 86.881C254.89 84.193 257.386 81.313 259.882 78.337C263.914 73.441 267.85 68.545 271.882 63.649C276.49 57.793 281.098 51.937 285.706 46.081C289.738 41.089 293.77 36.097 297.898 31.105C301.162 27.073 304.522 23.137 307.882 19.201C310.378 16.225 312.874 13.249 315.658 10.465C316.138 9.88904 316.81 9.40904 317.386 8.83304C317.482 8.73704 317.674 8.54504 317.962 8.64104C318.25 8.64104 318.442 8.54504 318.73 8.35304C318.922 8.06504 318.922 7.87304 318.826 7.58504C318.538 7.10504 318.154 6.91304 317.674 7.00904C317.194 7.20104 316.81 7.39304 316.522 7.68104C315.658 8.44904 314.794 9.21704 313.93 10.081C310.57 13.537 307.498 17.281 304.33 20.929C301.45 24.385 298.666 27.841 295.786 31.297C292.618 35.041 289.546 38.881 286.474 42.721C282.538 47.713 278.602 52.705 274.57 57.697C270.442 62.977 266.122 68.257 261.898 73.441C258.826 77.281 255.658 81.025 252.298 84.577C250.954 86.113 249.514 87.553 247.882 88.801C247.21 89.377 246.538 89.857 245.674 90.145C244.81 90.433 244.33 90.337 243.946 89.569C243.562 88.897 243.466 87.265 243.466 85.633C243.562 84.193 243.658 82.753 243.946 81.217C244.234 79.105 244.714 76.897 245.194 74.785C245.866 71.905 246.634 69.025 247.402 66.145C248.65 61.921 249.994 57.697 251.338 53.377C253.45 46.849 255.658 40.321 257.77 33.793C259.21 29.281 260.554 24.865 261.61 20.353C262.186 17.857 262.666 15.457 262.762 12.961C262.762 11.713 262.666 10.561 262.282 9.40904C261.802 8.16104 260.938 7.29704 259.594 7.00904C258.538 6.72104 257.482 6.81704 256.426 7.00904C254.698 7.39304 253.066 8.16104 251.434 9.02504C248.842 10.273 246.538 11.809 244.234 13.537C242.026 15.265 239.914 16.993 238.09 19.105C237.418 19.777 236.842 20.545 236.362 21.409C235.978 21.889 235.786 22.369 235.882 22.945C235.882 23.329 236.17 23.617 236.554 23.617C236.938 23.521 237.13 23.329 237.226 22.849C237.322 22.561 237.418 22.273 237.61 21.985C238.282 20.929 239.242 20.065 240.106 19.105C242.794 16.513 245.77 14.209 248.938 12.193C250.858 10.945 252.874 9.79304 255.082 9.02504C256.138 8.64104 257.194 8.35304 258.25 8.44904C259.402 8.44904 260.266 8.92904 260.65 9.88904C260.842 10.369 260.938 10.849 261.034 11.329C261.226 12.961 261.034 14.593 260.842 16.225C260.458 18.817 259.786 21.505 259.018 24.097C257.962 27.841 256.906 31.489 255.658 35.233C254.41 39.361 252.97 43.489 251.626 47.617C249.61 53.665 247.69 59.713 245.866 65.857C244.522 70.561 243.274 75.169 242.506 79.969C242.122 82.273 241.834 84.673 241.93 86.977C241.93 88.033 242.026 89.185 242.506 90.241ZM304.138 46.273C304.138 46.273 304.234 46.465 304.234 46.753C304.33 47.617 304.906 48.097 305.77 48.001C307.402 47.617 308.938 45.409 308.938 43.585C308.842 42.721 308.266 42.049 307.498 41.953C306.154 41.665 304.426 43.297 303.658 44.161C301.642 46.849 299.242 51.169 299.914 54.337C300.298 56.257 301.738 57.121 303.658 56.929C305.002 56.737 306.25 56.161 307.402 55.489C311.626 53.089 314.602 50.209 319.882 45.985C320.938 45.121 321.034 44.257 319.786 43.969C319.786 43.969 314.122 48.577 310.762 51.169C309.034 52.513 307.306 53.761 305.386 54.625C304.522 55.009 303.754 55.297 302.89 55.297C302.122 55.297 301.738 54.913 301.546 54.145C301.258 52.225 302.122 50.209 303.274 47.809C303.562 47.329 303.85 46.849 304.138 46.273ZM307.402 43.585C307.402 44.641 306.634 45.985 305.77 46.273C305.674 45.889 305.962 44.929 306.25 44.449C306.73 43.777 307.018 43.681 307.402 43.585ZM319.401 46.273C320.073 45.793 321.801 44.545 322.665 44.737C322.569 44.929 322.473 45.217 322.377 45.409C321.993 46.177 321.609 46.945 321.225 47.617C321.033 47.905 320.937 48.097 320.841 48.289C320.745 48.673 321.033 49.057 321.417 49.153C321.801 49.345 322.281 49.153 322.377 48.769C322.473 48.481 322.665 48.289 322.761 48.097C323.337 47.233 323.913 46.273 324.201 45.313C324.297 44.737 324.393 44.257 324.009 43.681C323.529 43.009 322.857 42.913 321.993 43.009C321.129 43.201 320.361 43.585 319.497 44.161C317.097 45.697 315.177 47.617 313.449 49.825C312.681 50.881 312.105 51.937 311.721 53.185C311.337 54.721 311.721 56.065 312.969 57.121C314.217 58.177 315.177 58.657 316.329 59.521C316.905 60.001 317.289 60.769 317.289 61.537C317.385 62.593 317.097 63.649 316.617 64.609C316.521 64.897 316.425 65.185 316.137 65.473C315.465 66.337 314.601 67.201 313.833 68.161C312.681 69.505 311.625 70.849 310.665 72.385C310.281 73.057 309.705 74.209 310.473 74.689C311.241 75.169 312.009 74.401 312.489 73.921C314.313 71.905 315.849 69.697 317.193 67.393C317.481 66.913 317.577 66.433 317.961 66.049C319.113 64.705 320.361 63.457 321.609 62.209C327.273 56.737 332.745 51.169 338.409 45.601C338.697 45.313 339.273 44.161 337.545 43.969C333.609 48.001 323.817 57.697 319.017 62.497C319.113 60.865 318.729 59.521 317.577 58.369C316.425 57.409 315.081 56.833 313.833 55.777C313.353 55.393 313.161 54.721 313.257 54.049C313.353 53.185 313.737 52.417 314.217 51.649C315.657 49.537 317.385 47.809 319.401 46.273ZM384.064 25.537C372.448 24.193 360.256 25.057 347.584 25.249C350.656 18.817 353.728 12.865 356.416 6.72104C356.704 6.14504 356.608 5.47304 356.128 5.08904C355.36 4.60904 354.592 5.85704 354.592 6.43304C354.592 6.91304 354.4 7.29704 354.208 7.68104C351.04 14.305 348.352 19.393 345.568 25.249C336.448 25.633 324.064 26.209 316.672 26.401C315.136 26.401 314.752 26.593 314.464 27.073C314.272 27.361 314.56 27.841 314.944 27.937C315.136 28.033 315.808 28.225 317.728 28.225C327.04 27.841 335.392 27.265 344.896 27.073C337.408 43.777 329.92 62.113 323.392 79.393C322.144 82.945 320.8 86.497 319.84 90.049C319.36 91.681 318.976 93.121 319.264 94.369C319.456 94.945 319.936 95.233 320.512 95.137C320.992 95.137 321.376 94.561 321.088 94.081C320.8 93.697 320.8 93.217 320.896 92.737C321.088 91.777 321.376 90.913 321.568 89.953C322.816 85.921 324.256 81.889 325.696 77.953C332.416 60.385 339.136 44.353 346.816 26.977C358.144 26.593 369.28 26.497 380.416 27.169C382.24 27.361 384.064 27.457 385.792 27.841C387.136 28.129 387.904 28.513 388.48 28.801C388.288 29.089 388.192 29.185 388.096 29.377C387.904 29.761 388 29.953 388.288 30.241C388.576 30.529 389.056 30.433 389.44 30.241C391.84 28.609 389.728 26.209 384.064 25.537Z" fill="#7C7C7C"/>
</svg>
