<svg width="326" height="95" viewBox="0 0 326 95" fill="none" xmlns="http://www.w3.org/2000/svg">
<path d="M2.64813 72.3816C1.88013 75.6456 0.152129 84.4776 1.88013 87.6456C2.45613 88.6056 3.32013 88.8936 4.28013 88.5096C4.85613 88.2216 5.33613 87.9336 5.81613 87.5496C6.87213 86.6856 7.83213 85.6296 8.69613 84.6696C11.0001 81.8856 13.0161 79.0056 15.1281 76.1256C19.0641 70.3656 22.9041 64.5096 26.7441 58.6536C30.2001 53.2776 33.6561 47.9016 37.1121 42.5256C38.5521 40.2216 40.0881 37.9176 41.8161 35.8056C41.1441 39.1656 40.2801 42.4296 39.4161 45.6936C38.7441 48.3816 37.9761 51.0696 37.3041 53.7576C36.7281 56.4456 36.0561 59.1336 35.4801 61.8216C35.0001 64.3176 34.4241 66.7176 34.0401 69.2136C33.6561 71.6136 33.3681 74.1096 33.0801 76.5096C32.7921 79.7736 32.6961 82.9416 33.1761 86.1096C33.4641 87.7416 33.8481 89.3736 34.7121 90.7176C35.4801 92.0616 36.5361 92.9256 38.0721 93.3096C39.4161 93.5976 40.7601 93.4056 42.1041 93.0216C44.0241 92.3496 45.7521 91.2936 47.4801 90.1416C50.0721 88.3176 52.4721 86.3016 54.7761 84.1896C60.8241 78.7176 66.2961 72.7656 71.5761 66.4296C74.3601 62.9736 77.1441 59.5176 79.6401 55.8696C83.0961 51.0696 86.1681 46.1736 88.7601 40.9896C90.2001 38.0136 91.5441 35.0376 92.4081 31.8696C93.2721 29.0856 93.8481 26.3016 93.7521 23.4216C93.6561 21.4056 93.3681 19.3896 92.6001 17.6616C91.5441 15.2616 89.9121 13.4376 87.7041 12.0936C85.6881 10.9416 83.4801 10.1736 81.2721 9.50164C78.3921 8.73364 75.0321 8.15764 72.1521 8.92564C70.6161 9.50164 69.8481 10.8456 70.2321 12.3816C70.3281 12.7656 70.6161 12.9576 71.0001 12.9576C71.3841 12.8616 71.6721 12.5736 71.6721 12.0936C71.6721 11.9016 71.6721 11.8056 71.6721 11.6136C71.7681 11.0376 72.0561 10.6536 72.6321 10.4616C74.0721 9.98164 75.6081 10.0776 77.4321 10.3656C80.5041 10.8456 83.3841 11.7096 86.1681 13.0536C88.1841 14.0136 89.7201 15.5496 90.7761 17.5656C91.8321 19.7736 92.2161 22.0776 92.1201 24.5736C92.0241 26.9736 91.5441 29.3736 90.8721 31.6776C89.8161 35.3256 88.2801 38.6856 86.4561 42.0456C85.0161 44.8296 83.4801 47.5176 81.7521 50.2056C77.9121 56.0616 73.5921 61.6296 69.0801 67.1016C66.6801 69.8856 64.1841 72.5736 61.6881 75.2616C58.3281 78.8136 54.8721 82.2696 51.1281 85.4376C49.1121 87.0696 47.0001 88.7016 44.7921 90.0456C43.3521 90.9096 41.8161 91.5816 40.1841 91.8696C38.6481 92.0616 37.4001 91.5816 36.4401 90.4296C35.6721 89.3736 35.2881 88.2216 35.0001 86.8776C34.4241 84.6696 34.4241 82.2696 34.4241 79.8696C34.6161 76.7976 34.9041 73.6296 35.4801 70.4616C35.8641 67.9656 36.3441 65.4696 36.8241 62.9736C37.6881 59.1336 38.5521 55.3896 39.5121 51.6456C40.4721 47.5176 41.6241 43.4856 42.6801 39.4536C43.0641 37.9176 43.7361 35.5176 43.4481 34.1736C43.2561 33.5976 42.6801 33.4056 42.0081 33.5976C41.5281 33.8856 41.2401 34.1736 40.8561 34.5576C39.5121 36.0936 38.4561 37.7256 37.3041 39.4536C34.9041 43.1976 32.4081 46.9416 30.0081 50.7816C25.6881 57.3096 21.4641 63.8376 17.2401 70.2696C14.3601 74.5896 11.3841 78.9096 8.12013 82.9416C7.16013 84.0936 6.20013 85.2456 5.04813 86.3016C4.66413 86.4936 4.37613 86.7816 3.99213 86.9736C3.60813 87.1656 3.41613 87.0696 3.22413 86.6856C2.64813 85.1496 2.93613 81.0216 3.22413 78.5256C3.60813 76.0296 3.99213 73.6296 4.47213 71.1336C5.04813 68.1576 5.81613 65.0856 6.48813 62.1096C7.64013 57.4056 8.98413 52.7016 10.4241 48.0936C12.4401 41.1816 14.7441 34.3656 17.3361 27.5496C18.8721 23.2296 20.5041 19.0056 22.1361 14.6856C23.0001 12.4776 23.7681 10.3656 24.5361 8.15764C24.9201 7.10164 25.1121 6.04564 25.2081 4.98964C25.2081 4.31764 25.1121 4.12564 24.4401 3.93364H24.3441C23.7681 4.12564 23.4801 4.60564 23.5761 5.08564C23.6721 5.37364 23.6721 5.66164 23.5761 5.94964C23.0001 7.77364 22.4241 9.59764 21.7521 11.3256C19.9281 16.2216 18.0081 21.1176 16.1841 26.0136C14.0721 31.8696 11.9601 37.7256 10.1361 43.6776C8.79213 47.9976 7.54413 52.2216 6.39213 56.5416C5.62413 59.3256 4.85613 62.1096 4.28013 64.7976C3.70413 67.2936 3.12813 69.8856 2.64813 72.3816ZM113.869 1.53364C114.253 0.66964 112.909 0.18964 112.333 1.05364C111.085 3.16564 106.093 13.9176 99.7566 28.1256C97.6446 32.7336 95.6286 37.4376 93.7086 42.0456C92.6526 44.4456 90.5406 49.0536 90.7326 50.4936C90.7326 51.6456 91.6926 52.0296 92.3646 51.5496C94.9566 49.5336 97.0686 47.5176 99.8526 45.3096C101.293 44.2536 101.581 43.7736 103.405 42.9096C103.309 44.0616 102.349 48.2856 101.965 50.3016C101.677 51.6456 101.389 53.8536 103.309 53.8536C105.805 53.8536 112.717 48.3816 116.941 45.6936C117.709 45.2136 118.669 44.1576 117.133 43.4856C117.133 43.4856 114.541 45.2136 114.253 45.4056C109.933 48.2856 104.269 52.3176 103.501 52.2216C103.405 52.0296 103.501 51.2616 103.693 50.3016C104.173 47.6136 105.421 43.1976 105.037 42.2376C104.461 40.8936 102.733 41.3736 101.485 42.1416C98.2206 44.1576 95.3406 47.0376 92.3646 49.5336C94.5726 43.6776 97.2606 38.0136 99.7566 31.9656C101.677 27.4536 110.893 7.38964 113.869 1.53364ZM131.341 43.4856C128.749 45.3096 120.973 50.6856 117.517 52.9896C117.133 53.2776 115.309 54.4296 115.021 54.0456C114.733 53.5656 116.077 50.0136 116.749 48.4776C117.325 47.1336 117.997 45.6936 118.669 44.3496C118.765 44.0616 118.861 43.7736 118.861 43.5816C118.861 42.6216 117.901 42.6216 117.325 43.1976C117.229 43.2936 116.845 43.7736 116.557 44.5416C116.365 45.0216 116.365 45.3096 116.365 45.5016C114.829 48.4776 113.005 53.0856 113.485 54.7176C113.677 55.3896 114.253 55.7736 114.925 55.7736C116.461 55.7736 118.477 54.3336 119.437 53.6616C123.661 50.8776 127.117 48.3816 131.149 45.4056C131.917 44.9256 132.973 43.6776 131.341 43.4856ZM121.645 33.5976C121.933 33.6936 122.413 33.6936 122.701 33.3096C123.469 32.2536 123.853 31.3896 124.525 30.3336C124.717 30.0456 124.621 29.5656 124.141 29.3736C123.853 29.2776 123.469 29.2776 123.277 29.6616C122.605 30.6216 122.029 31.6776 121.357 32.6376C121.165 33.0216 121.357 33.4056 121.645 33.5976ZM177.943 25.0536C166.327 23.7096 154.135 24.5736 141.463 24.7656C144.535 18.3336 147.607 12.3816 150.295 6.23764C150.583 5.66164 150.487 4.98964 150.007 4.60564C149.239 4.12564 148.471 5.37364 148.471 5.94964C148.471 6.42964 148.279 6.81364 148.087 7.19764C144.919 13.8216 142.231 18.9096 139.447 24.7656C130.327 25.1496 117.943 25.7256 110.551 25.9176C109.015 25.9176 108.631 26.1096 108.343 26.5896C108.151 26.8776 108.439 27.3576 108.823 27.4536C109.015 27.5496 109.687 27.7416 111.607 27.7416C120.919 27.3576 129.271 26.7816 138.775 26.5896C131.287 43.2936 123.799 61.6296 117.271 78.9096C116.023 82.4616 114.679 86.0136 113.719 89.5656C113.239 91.1976 112.855 92.6376 113.143 93.8856C113.335 94.4616 113.815 94.7496 114.391 94.6536C114.871 94.6536 115.255 94.0776 114.967 93.5976C114.679 93.2136 114.679 92.7336 114.775 92.2536C114.967 91.2936 115.255 90.4296 115.447 89.4696C116.695 85.4376 118.135 81.4056 119.575 77.4696C126.295 59.9016 133.015 43.8696 140.695 26.4936C152.023 26.1096 163.159 26.0136 174.295 26.6856C176.119 26.8776 177.943 26.9736 179.671 27.3576C181.015 27.6456 181.783 28.0296 182.359 28.3176C182.167 28.6056 182.071 28.7016 181.975 28.8936C181.783 29.2776 181.879 29.4696 182.167 29.7576C182.455 30.0456 182.935 29.9496 183.319 29.7576C185.719 28.1256 183.607 25.7256 177.943 25.0536ZM139.642 45.7896C139.642 45.7896 139.738 45.9816 139.738 46.2696C139.834 47.1336 140.41 47.6136 141.274 47.5176C142.906 47.1336 144.442 44.9256 144.442 43.1016C144.346 42.2376 143.77 41.5656 143.002 41.4696C141.658 41.1816 139.93 42.8136 139.162 43.6776C137.146 46.3656 134.746 50.6856 135.418 53.8536C135.802 55.7736 137.242 56.6376 139.162 56.4456C140.506 56.2536 141.754 55.6776 142.906 55.0056C147.13 52.6056 150.106 49.7256 155.386 45.5016C156.442 44.6376 156.538 43.7736 155.29 43.4856C155.29 43.4856 149.626 48.0936 146.266 50.6856C144.538 52.0296 142.81 53.2776 140.89 54.1416C140.026 54.5256 139.258 54.8136 138.394 54.8136C137.626 54.8136 137.242 54.4296 137.05 53.6616C136.762 51.7416 137.626 49.7256 138.778 47.3256C139.066 46.8456 139.354 46.3656 139.642 45.7896ZM142.906 43.1016C142.906 44.1576 142.138 45.5016 141.274 45.7896C141.178 45.4056 141.466 44.4456 141.754 43.9656C142.234 43.2936 142.522 43.1976 142.906 43.1016ZM169.054 72.3816C168.286 75.6456 166.558 84.4776 168.286 87.6456C168.862 88.6056 169.726 88.8936 170.686 88.5096C171.262 88.2216 171.742 87.9336 172.222 87.5496C173.278 86.6856 174.238 85.6296 175.102 84.6696C177.406 81.8856 179.422 79.0056 181.534 76.1256C185.47 70.3656 189.31 64.5096 193.15 58.6536C196.606 53.2776 200.062 47.9016 203.518 42.5256C204.958 40.2216 206.494 37.9176 208.222 35.8056C207.55 39.1656 206.686 42.4296 205.822 45.6936C205.15 48.3816 204.382 51.0696 203.71 53.7576C203.134 56.4456 202.462 59.1336 201.886 61.8216C201.406 64.3176 200.83 66.7176 200.446 69.2136C200.062 71.6136 199.774 74.1096 199.486 76.5096C199.198 79.7736 199.102 82.9416 199.582 86.1096C199.87 87.7416 200.254 89.3736 201.118 90.7176C201.886 92.0616 202.942 92.9256 204.478 93.3096C205.822 93.5976 207.166 93.4056 208.51 93.0216C210.43 92.3496 212.158 91.2936 213.886 90.1416C216.478 88.3176 218.878 86.3016 221.182 84.1896C227.23 78.7176 232.702 72.7656 237.982 66.4296C240.766 62.9736 243.55 59.5176 246.046 55.8696C249.502 51.0696 252.574 46.1736 255.166 40.9896C256.606 38.0136 257.95 35.0376 258.814 31.8696C259.678 29.0856 260.254 26.3016 260.158 23.4216C260.062 21.4056 259.774 19.3896 259.006 17.6616C257.95 15.2616 256.318 13.4376 254.11 12.0936C252.094 10.9416 249.886 10.1736 247.678 9.50164C244.798 8.73364 241.438 8.15764 238.558 8.92564C237.022 9.50164 236.254 10.8456 236.638 12.3816C236.734 12.7656 237.022 12.9576 237.406 12.9576C237.79 12.8616 238.078 12.5736 238.078 12.0936C238.078 11.9016 238.078 11.8056 238.078 11.6136C238.174 11.0376 238.462 10.6536 239.038 10.4616C240.478 9.98164 242.014 10.0776 243.838 10.3656C246.91 10.8456 249.79 11.7096 252.574 13.0536C254.59 14.0136 256.126 15.5496 257.182 17.5656C258.238 19.7736 258.622 22.0776 258.526 24.5736C258.43 26.9736 257.95 29.3736 257.278 31.6776C256.222 35.3256 254.686 38.6856 252.862 42.0456C251.422 44.8296 249.886 47.5176 248.158 50.2056C244.318 56.0616 239.998 61.6296 235.486 67.1016C233.086 69.8856 230.59 72.5736 228.094 75.2616C224.734 78.8136 221.278 82.2696 217.534 85.4376C215.518 87.0696 213.406 88.7016 211.198 90.0456C209.758 90.9096 208.222 91.5816 206.59 91.8696C205.054 92.0616 203.806 91.5816 202.846 90.4296C202.078 89.3736 201.694 88.2216 201.406 86.8776C200.83 84.6696 200.83 82.2696 200.83 79.8696C201.022 76.7976 201.31 73.6296 201.886 70.4616C202.27 67.9656 202.75 65.4696 203.23 62.9736C204.094 59.1336 204.958 55.3896 205.918 51.6456C206.878 47.5176 208.03 43.4856 209.086 39.4536C209.47 37.9176 210.142 35.5176 209.854 34.1736C209.662 33.5976 209.086 33.4056 208.414 33.5976C207.934 33.8856 207.646 34.1736 207.262 34.5576C205.918 36.0936 204.862 37.7256 203.71 39.4536C201.31 43.1976 198.814 46.9416 196.414 50.7816C192.094 57.3096 187.87 63.8376 183.646 70.2696C180.766 74.5896 177.79 78.9096 174.526 82.9416C173.566 84.0936 172.606 85.2456 171.454 86.3016C171.07 86.4936 170.782 86.7816 170.398 86.9736C170.014 87.1656 169.822 87.0696 169.63 86.6856C169.054 85.1496 169.342 81.0216 169.63 78.5256C170.014 76.0296 170.398 73.6296 170.878 71.1336C171.454 68.1576 172.222 65.0856 172.894 62.1096C174.046 57.4056 175.39 52.7016 176.83 48.0936C178.846 41.1816 181.15 34.3656 183.742 27.5496C185.278 23.2296 186.91 19.0056 188.542 14.6856C189.406 12.4776 190.174 10.3656 190.942 8.15764C191.326 7.10164 191.518 6.04564 191.614 4.98964C191.614 4.31764 191.518 4.12564 190.846 3.93364H190.75C190.174 4.12564 189.886 4.60564 189.982 5.08564C190.078 5.37364 190.078 5.66164 189.982 5.94964C189.406 7.77364 188.83 9.59764 188.158 11.3256C186.334 16.2216 184.414 21.1176 182.59 26.0136C180.478 31.8696 178.366 37.7256 176.542 43.6776C175.198 47.9976 173.95 52.2216 172.798 56.5416C172.03 59.3256 171.262 62.1096 170.686 64.7976C170.11 67.2936 169.534 69.8856 169.054 72.3816ZM280.275 1.53364C280.659 0.66964 279.315 0.18964 278.739 1.05364C277.491 3.16564 272.499 13.9176 266.163 28.1256C264.051 32.7336 262.035 37.4376 260.115 42.0456C259.059 44.4456 256.947 49.0536 257.139 50.4936C257.139 51.6456 258.099 52.0296 258.771 51.5496C261.363 49.5336 263.475 47.5176 266.259 45.3096C267.699 44.2536 267.987 43.7736 269.811 42.9096C269.715 44.0616 268.755 48.2856 268.371 50.3016C268.083 51.6456 267.795 53.8536 269.715 53.8536C272.211 53.8536 279.123 48.3816 283.347 45.6936C284.115 45.2136 285.075 44.1576 283.539 43.4856C283.539 43.4856 280.947 45.2136 280.659 45.4056C276.339 48.2856 270.675 52.3176 269.907 52.2216C269.811 52.0296 269.907 51.2616 270.099 50.3016C270.579 47.6136 271.827 43.1976 271.443 42.2376C270.867 40.8936 269.139 41.3736 267.891 42.1416C264.627 44.1576 261.747 47.0376 258.771 49.5336C260.979 43.6776 263.667 38.0136 266.163 31.9656C268.083 27.4536 277.299 7.38964 280.275 1.53364ZM321.363 2.58964C320.979 2.39764 320.499 2.39764 320.211 2.78164C319.347 4.31764 318.579 5.66164 317.811 7.10164C317.523 7.67764 310.227 21.4056 309.939 21.9816C306.963 26.7816 303.795 31.3896 300.531 35.9976C298.803 38.3016 297.171 40.6056 295.251 42.8136C294.195 43.9656 292.563 45.5016 291.987 45.6936C291.315 45.8856 291.027 43.6776 290.835 43.3896C290.451 42.4296 289.491 42.4296 288.723 43.1016C288.147 43.4856 287.475 44.2536 286.611 45.0216C285.363 46.2696 283.827 47.6136 282.771 48.5736C283.443 46.3656 284.883 43.7736 286.611 41.8536C286.707 42.1416 286.899 42.5256 286.995 42.7176C287.187 43.0056 287.475 43.1976 287.859 43.1016C288.627 42.8136 288.339 41.6616 288.051 41.1816C287.091 39.5496 285.843 40.3176 284.883 41.4696C283.251 43.2936 281.139 47.5176 281.139 49.2456C281.043 50.3016 282.195 50.5896 283.059 50.1096C284.691 49.2456 286.995 46.8456 288.435 45.5016C288.627 45.3096 289.395 44.6376 289.683 44.4456C289.683 45.1176 289.971 45.8856 290.259 46.3656C291.315 48.3816 294.099 46.2696 295.155 45.2136C296.691 43.6776 298.131 41.9496 299.475 40.1256C301.395 37.5336 305.427 31.7736 305.523 31.6776C305.427 32.1576 295.827 56.7336 293.139 65.3736C292.755 66.7176 292.083 69.0216 292.371 69.6936C292.467 70.2696 293.043 70.5576 293.523 70.3656C294.003 70.1736 294.387 69.5976 294.099 69.2136C293.907 68.8296 293.907 68.6376 294.099 68.3496C294.579 66.6216 295.059 64.8936 295.539 63.2616C298.899 53.1816 305.427 35.8056 309.939 26.2056C310.899 23.9976 318.675 9.11764 319.827 7.10164C320.595 5.85364 321.171 4.70164 321.651 3.64564C321.843 3.26164 321.651 2.87764 321.363 2.58964ZM308.86 45.7896C308.86 45.7896 308.956 45.9816 308.956 46.2696C309.052 47.1336 309.628 47.6136 310.492 47.5176C312.124 47.1336 313.66 44.9256 313.66 43.1016C313.564 42.2376 312.988 41.5656 312.22 41.4696C310.876 41.1816 309.148 42.8136 308.38 43.6776C306.364 46.3656 303.964 50.6856 304.636 53.8536C305.02 55.7736 306.46 56.6376 308.38 56.4456C309.724 56.2536 310.972 55.6776 312.124 55.0056C316.348 52.6056 319.324 49.7256 324.604 45.5016C325.66 44.6376 325.756 43.7736 324.508 43.4856C324.508 43.4856 318.844 48.0936 315.484 50.6856C313.756 52.0296 312.028 53.2776 310.108 54.1416C309.244 54.5256 308.476 54.8136 307.612 54.8136C306.844 54.8136 306.46 54.4296 306.268 53.6616C305.98 51.7416 306.844 49.7256 307.996 47.3256C308.284 46.8456 308.572 46.3656 308.86 45.7896ZM312.124 43.1016C312.124 44.1576 311.356 45.5016 310.492 45.7896C310.396 45.4056 310.684 44.4456 310.972 43.9656C311.452 43.2936 311.74 43.1976 312.124 43.1016Z" fill="#7C7C7C"/>
</svg>
