<svg width="283" height="121" viewBox="0 0 283 121" fill="none" xmlns="http://www.w3.org/2000/svg">
<path d="M267.247 5.91748C256.044 9.88511 248.406 16.4327 238.342 21.2249C230.471 24.9727 221.611 27.921 213.727 31.6618C199.681 38.3268 185.647 43.858 169.578 48.7253C158.26 52.1538 150.032 58.0443 139.205 61.9122C132.664 64.2488 125.521 65.6514 119.106 68.2074C110.182 71.7638 102.727 75.9164 92.9672 78.7106C86.8638 80.4579 81.8573 82.887 76.5949 85.3041C70.8681 87.9344 65.1815 90.8273 59.8274 93.6204C55.3319 95.9656 49.2479 97.0371 44.6971 99.2862C41.1202 101.054 36.3876 102.698 32.6155 104.621C26.1315 107.925 17.4126 110.854 11.7267 114.494C8.67305 116.449 2.99505 118.083 1 120.425" stroke="#9D9999" stroke-linecap="round" stroke-linejoin="round"/>
<path d="M21.3723 1C28.4513 4.26632 35.8424 7.46273 42.6954 10.8838C48.9119 13.9872 56.3723 16.8441 61.9822 20.2718C69.9322 25.1294 77.8207 30.126 86.0201 34.8497C95.6978 40.425 107.232 43.8861 118.599 48.0722C127.743 51.44 136.636 55.1556 146.2 58.1213C153.998 60.5397 162.219 62.6081 169.785 65.2615C173.275 66.4851 176.069 68.0954 179.4 69.3935C182.441 70.5781 186.119 71.0502 189.242 72.1703C195.219 74.3138 199.145 77.8217 205.022 80.0377C212.015 82.6747 217.214 86.0944 224.422 88.5992C234.15 91.9797 246.501 93.9102 255.304 98.1195C259.135 99.9518 263.536 101.686 267.747 103.342C272.84 105.346 276.983 107.933 282 109.888" stroke="#9D9999" stroke-linecap="round" stroke-linejoin="round"/>
<path d="M135.451 19.6308C102.454 19.6308 69.1499 22.0929 36.2199 19.6308V49.3264C36.2199 52.9145 31.5937 91.4478 36.2199 92.2189C48.2 94.2156 63.3491 92.6627 75.3152 91.2951C87.2806 89.9277 97.6057 91.9998 109.586 91.2951C115.272 90.9606 119.808 91.2951 125.544 91.2951C132.577 91.2951 140.992 91.3532 148.024 91.2951C162.874 91.1724 177.816 92.2699 192.633 91.2951H224.948C231.339 89.3595 245.33 95.4108 245.33 87.5028C245.33 78.7836 246.32 54.1297 247.421 45.4626C247.421 42.0516 249.352 18.3583 247.421 17.9291C244.839 17.3554 241.605 17.8805 238.961 17.8805C221.642 17.8805 204.409 19.5731 187.084 19.6308C169.874 19.6882 152.662 19.6308 135.451 19.6308Z" fill="#88A906" stroke="#88A906" stroke-linecap="round" stroke-linejoin="round"/>
</svg>
