<svg width="462" height="282" viewBox="0 0 462 282" fill="none" xmlns="http://www.w3.org/2000/svg">
<path d="M229.024 0.607992C228.448 0.607992 227.872 0.607992 227.296 0.607992C222.4 2.33599 217.504 4.06398 212.896 5.79199C163.648 23.936 123.616 45.248 85.024 70.88C90.784 57.632 97.12 44.672 103.168 31.712C106.048 25.376 108.928 19.04 111.232 12.704C111.52 11.552 111.808 10.4 112.096 9.24798C112.384 7.80799 111.52 6.944 110.368 6.36799C109.216 5.79199 108.064 6.36799 107.2 7.51999C106.912 7.80799 106.624 8.096 106.624 8.384C104.896 10.976 103.168 13.568 101.728 16.16C100.576 17.6 99.712 19.328 99.136 21.056C98.56 22.208 99.712 23.36 100.864 23.36C101.152 23.648 101.44 23.648 101.44 23.648C101.44 23.936 101.44 23.936 101.44 24.224C99.136 29.12 97.12 33.728 94.816 38.624C89.056 50.72 83.296 63.104 77.536 75.2C77.248 75.488 76.96 76.064 76.672 76.352C70.048 80.96 63.712 85.28 57.088 89.888C46.144 97.376 35.2 105.728 25.12 114.368C18.784 119.552 12.736 124.736 7.552 130.784C6.112 132.8 4.384 134.816 3.52 137.408C2.368 140.576 3.808 143.456 7.264 144.032C12.448 145.184 19.072 143.168 23.968 141.728C33.184 139.424 42.4 136.832 51.328 134.528C44.704 150.944 37.504 167.36 31.168 183.776C22.816 204.8 19.36 214.304 12.16 235.616C8.128 247.136 4.384 258.656 1.504 270.176C0.928 272.768 0.352 275.072 0.352 277.664C0.64 279.392 1.216 280.832 2.944 281.12C3.232 281.12 3.232 281.12 3.52 281.12C4.096 280.832 4.672 280.832 5.248 280.544C7.264 279.104 8.128 277.376 9.28 275.36C9.568 274.784 9.28 273.632 8.704 273.344C7.84 272.768 7.264 272.768 6.4 273.056C6.112 273.344 5.824 273.344 5.536 273.632C6.4 270.176 6.976 267.296 7.84 264.128C11.296 252.032 15.616 239.936 19.648 227.84C27.136 206.816 30.592 197.6 38.944 176.576C44.704 162.176 50.752 147.776 56.8 133.376C57.088 133.088 57.376 132.512 57.664 132.512C73.792 128.768 89.632 123.872 105.472 120.128C117.568 117.824 129.664 116.384 141.472 116.96C146.368 116.96 160.48 118.112 157.888 125.312C157.312 126.752 156.448 128.192 155.584 129.344C151.84 133.952 147.232 137.408 142.912 141.152C140.32 142.88 138.016 144.608 135.424 146.336C134.848 146.912 134.272 147.776 134.272 148.64C134.56 150.08 136 150.656 137.44 149.792C145.216 145.76 151.84 140.288 157.312 134.528C160.768 130.784 164.8 125.312 162.784 120.992C157.888 109.472 134.848 111.776 124.768 112.64C117.28 113.216 109.792 114.656 102.304 116.096C88.192 119.552 73.504 123.296 59.392 127.328C63.136 118.976 66.592 110.336 70.624 101.984C73.792 94.496 77.248 87.296 80.416 80.096C80.704 79.52 80.992 78.944 81.568 78.656C124.768 50.144 167.968 27.392 209.44 11.264C214.336 9.24798 222.112 6.944 227.008 5.21598C227.296 4.92799 227.584 4.92799 227.872 4.92799C229.024 5.21598 230.176 4.352 230.464 3.19999C231.04 2.04799 230.464 0.895988 229.024 0.607992ZM72.928 84.992C66.592 99.392 60.256 113.792 53.92 128.192C53.632 128.48 53.344 129.056 53.056 129.056C41.536 132.224 30.304 135.68 18.784 138.272C15.328 139.136 11.872 139.424 8.704 139.424C7.84 139.424 7.84 139.136 8.128 138.56C8.704 137.696 9.28 136.544 9.856 135.68C16.48 126.176 29.152 116.384 38.656 109.184C49.6 100.544 61.12 92.48 72.64 84.704C72.64 84.416 72.928 84.416 73.216 84.128C73.216 84.704 72.928 84.704 72.928 84.992ZM205.957 132.8C203.653 139.424 199.909 146.624 201.061 154.112C201.637 157.568 205.093 159.008 208.549 158.432C214.021 157.568 218.917 154.112 224.677 149.792C231.301 144.896 234.757 142.016 241.381 137.12C243.109 135.68 246.565 132.8 249.157 131.648C250.309 131.072 253.765 127.04 248.581 125.6C241.093 131.072 224.965 143.744 215.749 149.792C213.445 151.232 211.429 152.672 208.549 153.536C203.941 154.976 206.821 145.76 207.397 143.744C209.125 138.56 211.141 134.24 212.581 128.768C212.581 124.16 207.973 125.024 205.093 127.328C200.773 130.784 196.453 134.816 192.421 138.272C186.661 143.168 181.477 147.776 176.005 152.384C174.277 153.824 172.549 155.264 170.821 156.128C169.957 156.704 169.093 156.416 169.093 155.264C169.093 150.08 170.533 144.896 172.549 139.712C174.277 135.392 176.005 131.36 177.445 127.04C177.733 126.464 178.021 125.6 178.021 125.024C178.021 123.584 177.445 123.008 176.581 122.72C175.717 122.432 174.853 122.72 173.989 123.584C173.125 124.448 172.837 126.464 172.261 127.904C171.109 130.496 169.669 133.664 168.805 135.968C166.213 142.592 163.045 151.52 164.485 157.28C165.349 160.736 168.229 162.464 171.685 161.024C182.917 156.128 195.301 141.152 205.957 132.8ZM388.18 70.304C353.332 66.272 316.756 68.864 278.74 69.44C287.956 50.144 297.172 32.288 305.236 13.856C306.1 12.128 305.812 10.112 304.372 8.95999C302.068 7.51999 299.764 11.264 299.764 12.992C299.764 14.432 299.188 15.584 298.612 16.736C289.108 36.608 281.044 51.872 272.692 69.44C245.332 70.592 208.18 72.32 186.004 72.896C181.396 72.896 180.244 73.472 179.38 74.912C178.804 75.776 179.668 77.216 180.82 77.504C181.396 77.792 183.412 78.368 189.172 78.368C217.108 77.216 242.164 75.488 270.676 74.912C248.212 125.024 225.748 180.032 206.164 231.872C202.42 242.528 198.388 253.184 195.508 263.84C194.068 268.736 192.916 273.056 193.78 276.8C194.356 278.528 195.796 279.392 197.524 279.104C198.964 279.104 200.116 277.376 199.252 275.936C198.388 274.784 198.388 273.344 198.676 271.904C199.252 269.024 200.116 266.432 200.692 263.552C204.436 251.456 208.756 239.36 213.076 227.552C233.236 174.848 253.396 126.752 276.436 74.624C310.42 73.472 343.828 73.184 377.236 75.2C382.708 75.776 388.18 76.064 393.364 77.216C397.396 78.08 399.7 79.232 401.428 80.096C400.852 80.96 400.564 81.248 400.276 81.824C399.7 82.976 399.988 83.552 400.852 84.416C401.716 85.28 403.156 84.992 404.308 84.416C411.508 79.52 405.172 72.32 388.18 70.304ZM304.957 132.8C302.653 139.424 298.909 146.624 300.061 154.112C300.637 157.568 304.093 159.008 307.549 158.432C313.021 157.568 317.917 154.112 323.677 149.792C330.301 144.896 333.757 142.016 340.381 137.12C342.109 135.68 345.565 132.8 348.157 131.648C349.309 131.072 352.765 127.04 347.581 125.6C340.093 131.072 323.965 143.744 314.749 149.792C312.445 151.232 310.429 152.672 307.549 153.536C302.941 154.976 305.821 145.76 306.397 143.744C308.125 138.56 310.141 134.24 311.581 128.768C311.581 124.16 306.973 125.024 304.093 127.328C299.773 130.784 295.453 134.816 291.421 138.272C285.661 143.168 280.477 147.776 275.005 152.384C273.277 153.824 271.549 155.264 269.821 156.128C268.957 156.704 268.093 156.416 268.093 155.264C268.093 150.08 269.533 144.896 271.549 139.712C273.277 135.392 275.005 131.36 276.445 127.04C276.733 126.464 277.021 125.6 277.021 125.024C277.021 123.584 276.445 123.008 275.581 122.72C274.717 122.432 273.853 122.72 272.989 123.584C272.125 124.448 271.837 126.464 271.261 127.904C270.109 130.496 268.669 133.664 267.805 135.968C265.213 142.592 262.045 151.52 263.485 157.28C264.349 160.736 267.229 162.464 270.685 161.024C281.917 156.128 294.301 141.152 304.957 132.8ZM409.132 131.936C411.436 130.496 413.74 126.464 409.42 125.6C396.46 135.68 383.212 145.76 370.252 156.128C365.932 159.296 361.612 162.752 359.02 163.616C359.596 159.584 361.9 153.248 365.644 146.048C368.524 140.288 373.708 132.8 375.148 127.904C376.012 125.312 373.996 123.008 371.116 123.584C364.78 125.312 357.292 129.632 350.092 131.936C350.38 130.784 351.244 129.344 352.396 126.752C353.836 123.872 353.548 122.72 352.396 122.144C350.668 121.568 349.804 122.432 348.652 123.872C347.788 125.024 345.484 129.344 345.196 131.072C344.62 134.816 347.212 137.408 351.244 136.544C356.428 135.392 363.052 131.936 369.1 129.632C367.084 132.8 365.356 135.968 363.34 139.136C359.308 146.048 353.836 157.28 354.412 163.328C354.412 165.92 355.852 167.936 358.156 168.224C361.612 168.512 366.22 165.344 369.388 162.752C380.62 154.112 386.092 149.792 397.324 141.152C400.204 138.848 406.252 134.24 409.132 131.936ZM410.527 132.512C410.527 132.512 410.815 133.088 410.815 133.952C411.103 136.544 412.831 137.984 415.423 137.696C420.319 136.544 424.927 129.92 424.927 124.448C424.639 121.856 422.911 119.84 420.607 119.552C416.575 118.688 411.391 123.584 409.087 126.176C403.039 134.24 395.839 147.2 397.855 156.704C399.007 162.464 403.327 165.056 409.087 164.48C413.119 163.904 416.863 162.176 420.319 160.16C432.991 152.96 441.919 144.32 457.759 131.648C460.927 129.056 461.215 126.464 457.471 125.6C457.471 125.6 440.479 139.424 430.399 147.2C425.215 151.232 420.031 154.976 414.271 157.568C411.679 158.72 409.375 159.584 406.783 159.584C404.479 159.584 403.327 158.432 402.751 156.128C401.887 150.368 404.479 144.32 407.935 137.12C408.799 135.68 409.663 134.24 410.527 132.512ZM420.319 124.448C420.319 127.616 418.015 131.648 415.423 132.512C415.135 131.36 415.999 128.48 416.863 127.04C418.303 125.024 419.167 124.736 420.319 124.448Z" fill="#2B2B2B"/>
</svg>
