<svg width="23" height="23" viewBox="0 0 23 23" fill="none" xmlns="http://www.w3.org/2000/svg">
<path d="M15.3599 2.632C11.8512 -0.876682 6.1406 -0.876682 2.63192 2.632C-0.876003 6.14144 -0.876003 11.8513 2.63192 15.3608C5.75649 18.4846 10.6229 18.8192 14.1293 16.38C14.203 16.7291 14.3719 17.0622 14.6434 17.3338L19.7532 22.4435C20.4978 23.1866 21.7011 23.1866 22.4419 22.4435C23.1858 21.6997 23.1858 20.4964 22.4419 19.7548L17.3322 14.6435C17.0622 14.3743 16.7282 14.2046 16.3791 14.1309C18.8199 10.6237 18.4853 5.75809 15.3599 2.632ZM13.7467 13.7475C11.1271 16.367 6.86393 16.367 4.24516 13.7475C1.62715 11.128 1.62715 6.86554 4.24516 4.24601C6.86393 1.62724 11.1271 1.62724 13.7467 4.24601C16.3662 6.86554 16.3662 11.128 13.7467 13.7475Z" fill="url(#paint0_linear_52_16)"/>
<defs>
<linearGradient id="paint0_linear_52_16" x1="5.37218" y1="4.88413" x2="18.2386" y2="18.1021" gradientUnits="userSpaceOnUse">
<stop stop-color="#FF0000"/>
<stop offset="1" stop-color="#FF0431"/>
</linearGradient>
</defs>
</svg>
