<svg width="114" height="54" viewBox="0 0 114 54" fill="none" xmlns="http://www.w3.org/2000/svg">
<path d="M34.308 30.508C34.332 30.532 34.32 30.568 34.272 30.616C34.152 30.712 34.02 30.796 33.876 30.868C33.756 30.94 33.636 31.012 33.516 31.084C32.58 31.492 31.644 31.912 30.708 32.344C29.772 32.752 28.836 33.16 27.9 33.568C26.508 34.144 25.116 34.696 23.724 35.224C22.332 35.776 20.928 36.304 19.512 36.808C17.256 37.648 14.976 38.44 12.672 39.184C10.392 39.928 8.064 40.492 5.688 40.876C5.28 40.948 4.812 41.008 4.284 41.056C3.756 41.104 3.228 41.092 2.7 41.02C2.196 40.948 1.74 40.78 1.332 40.516C0.948 40.276 0.708 39.88 0.612 39.328C0.492 38.752 0.588 38.164 0.9 37.564C1.212 36.988 1.512 36.46 1.8 35.98C2.664 34.612 3.6 33.304 4.608 32.056C5.616 30.784 6.636 29.536 7.668 28.312C9.732 25.84 11.82 23.428 13.932 21.076C16.068 18.7 18.24 16.336 20.448 13.984C22.584 11.68 24.732 9.424 26.892 7.216C27.78 6.304 28.668 5.404 29.556 4.516C30.444 3.604 31.356 2.728 32.292 1.888C32.316 1.864 32.4 1.792 32.544 1.672C32.712 1.528 32.892 1.384 33.084 1.24C33.276 1.096 33.444 0.987998 33.588 0.915999C33.756 0.819999 33.852 0.807999 33.876 0.879999C33.924 0.975998 33.9 1.096 33.804 1.24C33.732 1.36 33.672 1.456 33.624 1.528C32.808 2.848 31.908 4.12 30.924 5.344C29.94 6.544 28.956 7.732 27.972 8.908C25.956 11.38 23.916 13.804 21.852 16.18C19.812 18.556 17.748 20.944 15.66 23.344C14.58 24.592 13.512 25.828 12.456 27.052C11.4 28.276 10.332 29.524 9.252 30.796C8.7 31.42 8.16 32.056 7.632 32.704C7.128 33.328 6.624 33.964 6.12 34.612C5.616 35.236 5.124 35.872 4.644 36.52C4.164 37.168 3.732 37.84 3.348 38.536C4.86 38.536 6.336 38.368 7.776 38.032C9.24 37.72 10.692 37.384 12.132 37.024C13.572 36.664 14.988 36.268 16.38 35.836C17.796 35.428 19.224 35.02 20.664 34.612C22.608 34.036 24.54 33.424 26.46 32.776C28.404 32.128 30.348 31.528 32.292 30.976C32.316 30.976 32.436 30.94 32.652 30.868C32.868 30.796 33.096 30.724 33.336 30.652C33.576 30.58 33.792 30.532 33.984 30.508C34.176 30.46 34.284 30.46 34.308 30.508ZM44.314 21.328C44.626 21.424 44.878 21.592 45.07 21.832C45.262 22.048 45.346 22.144 45.322 22.12C45.25 22.096 45.142 22.072 44.998 22.048C44.878 22 44.698 21.964 44.458 21.94C44.002 21.892 43.546 21.94 43.09 22.084C42.634 22.204 42.178 22.396 41.722 22.66C41.266 22.9 40.798 23.2 40.318 23.56C39.862 23.896 39.394 24.256 38.914 24.64C38.698 24.832 38.302 25.216 37.726 25.792C37.15 26.368 36.562 27.04 35.962 27.808C35.386 28.552 34.87 29.344 34.414 30.184C33.982 31 33.766 31.744 33.766 32.416C34.462 32.32 35.278 31.984 36.214 31.408C37.15 30.808 38.062 30.112 38.95 29.32C39.838 28.504 40.642 27.652 41.362 26.764C42.082 25.852 42.574 25.024 42.838 24.28C42.934 24.04 42.994 23.812 43.018 23.596C43.042 23.356 43.018 23.104 42.946 22.84C42.898 22.696 42.874 22.612 42.874 22.588C42.898 22.492 42.994 22.552 43.162 22.768C43.354 22.96 43.486 23.2 43.558 23.488C43.846 24.568 43.702 25.684 43.126 26.836C42.574 27.988 41.794 29.056 40.786 30.04C39.802 31.024 38.71 31.876 37.51 32.596C36.334 33.316 35.266 33.796 34.306 34.036C33.658 34.228 33.046 34.228 32.47 34.036C31.99 33.844 31.654 33.508 31.462 33.028C31.27 32.548 31.21 32.068 31.282 31.588C31.378 30.964 31.546 30.376 31.786 29.824C32.05 29.248 32.374 28.684 32.758 28.132C33.094 27.652 33.514 27.124 34.018 26.548C34.522 25.972 35.086 25.408 35.71 24.856C36.358 24.28 37.042 23.74 37.762 23.236C38.506 22.708 39.25 22.276 39.994 21.94C40.738 21.604 41.47 21.376 42.19 21.256C42.934 21.112 43.642 21.136 44.314 21.328ZM53.9525 24.1C53.9525 24.124 53.8325 24.328 53.5925 24.712C53.3525 25.096 53.0405 25.6 52.6565 26.224C52.2725 26.824 51.8405 27.496 51.3605 28.24C50.8805 28.96 50.4005 29.68 49.9205 30.4C49.4405 31.12 48.9845 31.792 48.5525 32.416C48.1205 33.04 47.7605 33.532 47.4725 33.892C45.7205 36.34 43.8485 38.68 41.8565 40.912C39.8645 43.168 37.6805 45.232 35.3045 47.104C34.0805 48.064 32.8085 48.94 31.4885 49.732C30.1445 50.524 28.7405 51.184 27.2765 51.712C26.6285 51.952 25.9565 52.144 25.2605 52.288C24.5645 52.456 23.8685 52.564 23.1725 52.612C23.0285 52.612 22.8845 52.612 22.7405 52.612C22.5725 52.636 22.4045 52.624 22.2365 52.576C22.0445 52.528 22.0205 52.468 22.1645 52.396C22.2845 52.348 22.3805 52.3 22.4525 52.252C22.7645 52.132 23.0765 52.024 23.3885 51.928C23.6765 51.856 23.9765 51.76 24.2885 51.64C25.7525 51.112 27.1445 50.452 28.4645 49.66C29.7845 48.892 31.0565 48.028 32.2805 47.068C33.4805 46.132 34.6325 45.124 35.7365 44.044C36.8405 42.964 37.9085 41.848 38.9405 40.696C39.5405 40.024 40.2005 39.232 40.9205 38.32C41.6645 37.408 42.4085 36.448 43.1525 35.44C43.8965 34.456 44.6285 33.46 45.3485 32.452C46.0925 31.444 46.7765 30.496 47.4005 29.608C47.5205 29.44 47.6285 29.272 47.7245 29.104C47.8445 28.912 47.9645 28.732 48.0845 28.564C47.7245 28.876 47.3645 29.188 47.0045 29.5C46.6685 29.812 46.3205 30.124 45.9605 30.436C45.4325 30.916 44.7965 31.384 44.0525 31.84C43.3325 32.296 42.6965 32.728 42.1445 33.136C42.0005 33.256 41.8205 33.388 41.6045 33.532C41.4125 33.676 41.2085 33.796 40.9925 33.892C40.8005 33.988 40.5965 34.036 40.3805 34.036C40.1645 34.06 39.9605 34 39.7685 33.856C39.5045 33.616 39.3725 33.34 39.3725 33.028C39.3485 32.692 39.3725 32.368 39.4445 32.056C39.6845 31.192 40.0925 30.352 40.6685 29.536C41.2445 28.72 41.8325 27.988 42.4325 27.34C43.0565 26.668 43.6205 26.104 44.1245 25.648C44.6285 25.192 44.9525 24.904 45.0965 24.784C45.9125 24.112 46.6685 23.548 47.3645 23.092C48.0605 22.612 48.8765 22.168 49.8125 21.76C50.1965 21.592 50.6525 21.46 51.1805 21.364C51.7085 21.244 52.2245 21.184 52.7285 21.184C53.2565 21.16 53.7365 21.208 54.1685 21.328C54.6245 21.424 54.9725 21.604 55.2125 21.868C55.2365 21.916 55.2605 21.976 55.2845 22.048C55.3325 22.096 55.3205 22.108 55.2485 22.084C54.9605 22.06 54.6245 22.048 54.2405 22.048C53.8565 22.048 53.4485 22.084 53.0165 22.156C52.5845 22.228 52.1405 22.336 51.6845 22.48C51.2525 22.624 50.8445 22.804 50.4605 23.02C50.0525 23.26 49.6325 23.548 49.2005 23.884C48.7925 24.196 48.3485 24.556 47.8685 24.964C47.6285 25.18 47.2445 25.54 46.7165 26.044C46.1885 26.524 45.6125 27.1 44.9885 27.772C44.3885 28.42 43.8005 29.128 43.2245 29.896C42.6485 30.664 42.1925 31.408 41.8565 32.128C43.3205 31.192 44.8325 30.16 46.3925 29.032C47.9765 27.904 49.5245 26.716 51.0365 25.468C51.1805 25.348 51.3605 25.18 51.5765 24.964C51.8165 24.748 52.0565 24.532 52.2965 24.316C52.5365 24.1 52.7525 23.908 52.9445 23.74C53.1605 23.572 53.3045 23.488 53.3765 23.488C53.5685 23.44 53.7245 23.488 53.8445 23.632C53.9645 23.752 54.0005 23.908 53.9525 24.1ZM62.7922 21.328C63.1042 21.424 63.3562 21.592 63.5482 21.832C63.7402 22.048 63.8242 22.144 63.8002 22.12C63.7282 22.096 63.6202 22.072 63.4762 22.048C63.3562 22 63.1762 21.964 62.9362 21.94C62.4802 21.892 62.0242 21.94 61.5682 22.084C61.1122 22.204 60.6562 22.396 60.2002 22.66C59.7442 22.9 59.2762 23.2 58.7962 23.56C58.3402 23.896 57.8722 24.256 57.3922 24.64C57.1762 24.832 56.7802 25.216 56.2042 25.792C55.6282 26.368 55.0402 27.04 54.4402 27.808C53.8642 28.552 53.3482 29.344 52.8922 30.184C52.4602 31 52.2442 31.744 52.2442 32.416C52.9402 32.32 53.7562 31.984 54.6922 31.408C55.6282 30.808 56.5402 30.112 57.4282 29.32C58.3162 28.504 59.1202 27.652 59.8402 26.764C60.5602 25.852 61.0522 25.024 61.3162 24.28C61.4122 24.04 61.4722 23.812 61.4962 23.596C61.5202 23.356 61.4962 23.104 61.4242 22.84C61.3762 22.696 61.3522 22.612 61.3522 22.588C61.3762 22.492 61.4722 22.552 61.6402 22.768C61.8322 22.96 61.9642 23.2 62.0362 23.488C62.3242 24.568 62.1802 25.684 61.6042 26.836C61.0522 27.988 60.2722 29.056 59.2642 30.04C58.2802 31.024 57.1882 31.876 55.9882 32.596C54.8122 33.316 53.7442 33.796 52.7842 34.036C52.1362 34.228 51.5242 34.228 50.9482 34.036C50.4682 33.844 50.1322 33.508 49.9402 33.028C49.7482 32.548 49.6882 32.068 49.7602 31.588C49.8562 30.964 50.0242 30.376 50.2642 29.824C50.5282 29.248 50.8522 28.684 51.2362 28.132C51.5722 27.652 51.9922 27.124 52.4962 26.548C53.0002 25.972 53.5642 25.408 54.1882 24.856C54.8362 24.28 55.5202 23.74 56.2402 23.236C56.9842 22.708 57.7282 22.276 58.4722 21.94C59.2162 21.604 59.9482 21.376 60.6682 21.256C61.4122 21.112 62.1202 21.136 62.7922 21.328ZM112.823 2.284C112.919 2.284 113.027 2.284 113.147 2.284C113.267 2.26 113.363 2.272 113.435 2.32C113.507 2.368 113.423 2.44 113.183 2.536C112.775 2.656 112.343 2.776 111.887 2.896C111.335 3.016 110.795 3.136 110.267 3.256C109.739 3.352 109.199 3.46 108.647 3.58C105.143 4.3 101.603 4.996 98.0266 5.668C94.4746 6.316 90.7426 7.012 86.8306 7.756C86.6386 7.996 86.4706 8.224 86.3266 8.44C86.2066 8.632 86.0746 8.812 85.9306 8.98C85.8106 9.148 85.7146 9.28 85.6426 9.376C84.7306 10.6 83.8066 11.8 82.8706 12.976C81.9586 14.152 81.0346 15.34 80.0986 16.54C79.1626 17.692 78.2266 18.856 77.2906 20.032C76.3546 21.208 75.3946 22.384 74.4106 23.56C72.4666 25.888 70.5346 28.216 68.6146 30.544C66.7186 32.848 64.7746 35.152 62.7826 37.456C62.0626 38.272 61.3426 39.1 60.6226 39.94C59.9266 40.78 59.1826 41.572 58.3906 42.316C58.3666 42.34 58.3066 42.4 58.2106 42.496C58.1146 42.592 58.0186 42.676 57.9226 42.748C57.8026 42.844 57.6946 42.916 57.5986 42.964C57.5026 43.012 57.4546 43 57.4546 42.928C57.4546 42.784 57.5026 42.628 57.5986 42.46C57.6706 42.316 57.7426 42.184 57.8146 42.064C58.3666 41.152 58.9306 40.264 59.5066 39.4C60.1066 38.536 60.7066 37.684 61.3066 36.844C63.0826 34.372 64.8586 31.948 66.6346 29.572C68.4346 27.172 70.2586 24.784 72.1066 22.408C73.0426 21.232 73.9786 20.056 74.9146 18.88C75.8506 17.704 76.7866 16.516 77.7226 15.316C78.6586 14.14 79.6066 12.976 80.5666 11.824C81.5266 10.648 82.4986 9.484 83.4826 8.332C83.4826 8.332 83.3506 8.356 83.0866 8.404C82.8466 8.452 82.5466 8.5 82.1866 8.548C81.8506 8.596 81.4906 8.656 81.1066 8.728C80.7226 8.8 80.3866 8.86 80.0986 8.908C77.2426 9.388 74.3866 9.856 71.5306 10.312C68.6986 10.744 65.8306 11.092 62.9266 11.356C61.9906 11.476 61.0306 11.572 60.0466 11.644C59.0866 11.716 58.1386 11.728 57.2026 11.68C57.1546 11.68 57.0706 11.68 56.9506 11.68C56.8306 11.656 56.7106 11.632 56.5906 11.608C56.4466 11.584 56.3266 11.548 56.2306 11.5C56.1346 11.452 56.1106 11.392 56.1586 11.32C56.2786 11.152 56.6266 10.972 57.2026 10.78C57.7546 10.588 58.3906 10.408 59.1106 10.24C59.8306 10.048 60.5746 9.88 61.3426 9.736C62.1106 9.592 62.7466 9.472 63.2506 9.376C66.1306 8.848 68.9866 8.356 71.8186 7.9C74.6746 7.444 77.5426 7 80.4226 6.568C81.3586 6.448 82.2706 6.316 83.1586 6.172C84.0706 6.028 84.9826 5.896 85.8946 5.776C86.1586 5.488 86.4226 5.2 86.6866 4.912C86.9506 4.624 87.2386 4.348 87.5506 4.084C87.5746 4.06 87.6946 3.964 87.9106 3.796C88.1266 3.604 88.3546 3.424 88.5946 3.256C88.8346 3.064 89.0626 2.92 89.2786 2.824C89.4946 2.704 89.6266 2.704 89.6746 2.824C89.7226 2.944 89.6986 3.124 89.6026 3.364C89.5306 3.58 89.4226 3.832 89.2786 4.12C89.1346 4.384 88.9786 4.636 88.8106 4.876C88.6426 5.116 88.5226 5.296 88.4506 5.416C89.8186 5.2 91.1866 5.008 92.5546 4.84C93.9466 4.648 95.3386 4.456 96.7306 4.264C98.1466 4.072 99.5506 3.88 100.943 3.688C102.335 3.496 103.739 3.304 105.155 3.112C106.427 2.968 107.687 2.812 108.935 2.644C110.207 2.452 111.503 2.332 112.823 2.284ZM90.2306 22.048C90.0866 22.288 89.7746 22.756 89.2946 23.452C88.8146 24.148 88.2386 24.964 87.5666 25.9C86.8946 26.836 86.1866 27.82 85.4426 28.852C84.7226 29.86 84.0386 30.808 83.3906 31.696C82.7666 32.56 82.2386 33.28 81.8066 33.856C81.3746 34.432 81.1466 34.744 81.1226 34.792C79.2506 37.36 77.2466 39.832 75.1106 42.208C72.9986 44.584 70.6466 46.708 68.0546 48.58C66.7826 49.492 65.4626 50.32 64.0946 51.064C62.7026 51.832 61.2386 52.42 59.7026 52.828C59.2226 52.948 58.7306 53.056 58.2266 53.152C57.7226 53.248 57.2186 53.296 56.7146 53.296C56.6186 53.296 56.4866 53.296 56.3186 53.296C56.1266 53.296 55.9946 53.26 55.9226 53.188C55.8746 53.14 55.9586 53.068 56.1746 52.972C56.3906 52.9 56.5226 52.852 56.5706 52.828C57.0506 52.708 57.5306 52.552 58.0106 52.36C58.4666 52.192 58.9226 52.012 59.3786 51.82C60.8186 51.22 62.1986 50.488 63.5186 49.624C64.8146 48.784 66.0626 47.86 67.2626 46.852C68.4386 45.844 69.5786 44.764 70.6826 43.612C71.7626 42.484 72.8066 41.344 73.8146 40.192C74.8946 38.968 75.9266 37.72 76.9106 36.448C77.8946 35.176 78.8546 33.868 79.7906 32.524C80.3666 31.756 80.9186 30.952 81.4466 30.112C81.9986 29.272 82.6226 28.36 83.3186 27.376C82.6946 27.904 82.0706 28.444 81.4466 28.996C80.8466 29.524 80.2346 30.064 79.6106 30.616C79.0826 31.096 78.5546 31.564 78.0266 32.02C77.4986 32.476 76.9586 32.92 76.4066 33.352C76.2626 33.472 76.0946 33.604 75.9026 33.748C75.7106 33.892 75.5066 34.012 75.2906 34.108C75.0746 34.204 74.8586 34.252 74.6426 34.252C74.4266 34.252 74.2226 34.18 74.0306 34.036C73.7666 33.82 73.6346 33.544 73.6346 33.208C73.6346 32.872 73.6706 32.548 73.7426 32.236C73.8866 31.708 74.0786 31.204 74.3186 30.724C74.5586 30.22 74.8346 29.728 75.1466 29.248C75.7706 28.288 76.4666 27.388 77.2346 26.548C78.0266 25.684 78.8546 24.904 79.7186 24.208C80.2226 23.8 80.7386 23.416 81.2666 23.056C81.8186 22.696 82.4066 22.42 83.0306 22.228C83.0546 22.228 83.1026 22.216 83.1746 22.192C83.2706 22.168 83.3546 22.156 83.4266 22.156C83.5226 22.156 83.5946 22.168 83.6426 22.192C83.6906 22.192 83.6786 22.228 83.6066 22.3C83.5106 22.42 83.4026 22.516 83.2826 22.588C83.1866 22.66 83.0786 22.756 82.9586 22.876C82.6946 23.092 82.4426 23.32 82.2026 23.56C81.9866 23.8 81.7706 24.052 81.5546 24.316C80.5226 25.468 79.5746 26.68 78.7106 27.952C77.8706 29.224 77.0306 30.508 76.1906 31.804C76.5506 31.564 76.8986 31.324 77.2346 31.084C77.5946 30.844 77.9426 30.604 78.2786 30.364C78.9506 29.884 79.6106 29.416 80.2586 28.96C80.9066 28.48 81.5426 28 82.1666 27.52C82.2386 27.448 82.4306 27.28 82.7426 27.016C83.0546 26.752 83.4146 26.44 83.8226 26.08C84.2546 25.696 84.7106 25.288 85.1906 24.856C85.6706 24.424 86.1386 24.016 86.5946 23.632C87.0506 23.224 87.4706 22.852 87.8546 22.516C88.2386 22.18 88.5266 21.928 88.7186 21.76C88.7666 21.712 88.8626 21.628 89.0066 21.508C89.1506 21.388 89.3066 21.256 89.4746 21.112C89.6666 20.968 89.8466 20.836 90.0146 20.716C90.2066 20.596 90.3506 20.5 90.4466 20.428C90.4946 20.404 90.6026 20.356 90.7706 20.284C90.9626 20.188 91.0706 20.212 91.0946 20.356C91.0946 20.476 91.0586 20.596 90.9866 20.716C90.9146 20.836 90.8546 20.956 90.8066 21.076C90.7106 21.244 90.6146 21.412 90.5186 21.58C90.4466 21.724 90.3506 21.88 90.2306 22.048ZM100.04 26.728C100.064 26.752 100.028 26.812 99.9318 26.908C99.3558 27.532 98.7078 28.132 97.9878 28.708C97.2678 29.284 96.5358 29.824 95.7918 30.328C94.6398 31.12 93.4878 31.84 92.3358 32.488C91.2078 33.112 90.1638 33.544 89.2038 33.784C89.0118 33.832 88.7958 33.892 88.5558 33.964C88.3158 34.012 88.0758 34.048 87.8358 34.072C87.6198 34.12 87.4158 34.156 87.2238 34.18C87.0558 34.204 86.9358 34.204 86.8638 34.18C86.6718 34.132 86.5518 34.024 86.5038 33.856C86.4558 33.688 86.4918 33.532 86.6118 33.388C86.6598 33.316 86.8158 33.208 87.0798 33.064C87.3678 32.92 87.5598 32.824 87.6558 32.776C87.6798 32.752 87.7518 32.716 87.8718 32.668C88.0158 32.596 88.1598 32.524 88.3038 32.452C88.4718 32.356 88.6278 32.272 88.7718 32.2C88.9398 32.104 89.0718 32.02 89.1678 31.948C89.6238 31.636 90.0918 31.276 90.5718 30.868C91.0518 30.436 91.5078 30.004 91.9398 29.572C92.3958 29.116 92.8278 28.672 93.2358 28.24C93.6678 27.784 94.0518 27.364 94.3878 26.98C94.9398 26.26 95.4798 25.48 96.0078 24.64C96.5358 23.776 96.9678 22.96 97.3038 22.192C96.6798 22.288 95.9838 22.576 95.2158 23.056C94.4478 23.512 93.6438 24.1 92.8038 24.82C91.9638 25.516 91.1118 26.308 90.2478 27.196C89.3838 28.06 88.5558 28.936 87.7638 29.824C86.9958 30.712 86.2758 31.588 85.6038 32.452C84.9318 33.292 84.3678 34.048 83.9118 34.72C82.9278 36.16 81.9558 37.576 80.9958 38.968C80.0358 40.384 79.0518 41.812 78.0438 43.252C77.0358 44.716 76.0158 46.18 74.9838 47.644C73.9278 49.132 72.8358 50.572 71.7078 51.964C71.4678 52.252 71.2278 52.54 70.9878 52.828C70.7478 53.116 70.4838 53.38 70.1958 53.62C70.1238 53.668 70.0158 53.728 69.8718 53.8C69.7278 53.896 69.6318 53.848 69.5838 53.656C69.5598 53.536 69.5718 53.404 69.6198 53.26C69.6678 53.116 69.7158 52.984 69.7638 52.864C69.8598 52.624 69.9558 52.384 70.0518 52.144C70.1478 51.928 70.2558 51.712 70.3758 51.496C71.0958 50.056 71.8878 48.664 72.7518 47.32C73.5918 46 74.4318 44.668 75.2718 43.324C75.9198 42.316 76.5678 41.32 77.2158 40.336C77.8638 39.352 78.5358 38.356 79.2318 37.348C79.5918 36.844 80.0118 36.244 80.4918 35.548C80.9718 34.852 81.4758 34.144 82.0038 33.424C82.5318 32.68 83.0598 31.96 83.5878 31.264C84.0918 30.544 84.5478 29.908 84.9558 29.356C85.3638 28.78 85.6878 28.324 85.9278 27.988C86.1918 27.628 86.3238 27.448 86.3238 27.448C86.8758 26.752 87.3798 26.116 87.8358 25.54C88.2438 25.06 88.6158 24.604 88.9518 24.172C89.3118 23.716 89.5518 23.428 89.6718 23.308C89.6958 23.284 89.7918 23.188 89.9598 23.02C90.1518 22.828 90.3558 22.624 90.5718 22.408C90.8118 22.168 91.0638 21.94 91.3278 21.724C91.5918 21.508 91.8198 21.352 92.0118 21.256C92.1798 21.16 92.3118 21.136 92.4078 21.184C92.5278 21.232 92.5638 21.34 92.5158 21.508C92.4198 21.916 92.3118 22.276 92.1918 22.588C92.0718 22.9 91.9278 23.2 91.7598 23.488C91.6158 23.776 91.4478 24.064 91.2558 24.352C91.0878 24.64 90.8838 24.976 90.6438 25.36C90.7638 25.24 90.8718 25.144 90.9678 25.072C91.0878 24.976 91.1958 24.88 91.2918 24.784C92.2518 23.896 93.1638 23.176 94.0278 22.624C94.9158 22.072 95.7078 21.652 96.4038 21.364C97.1238 21.076 97.7358 20.908 98.2398 20.86C98.7678 20.788 99.1398 20.8 99.3558 20.896C99.7158 21.064 99.8838 21.364 99.8598 21.796C99.8598 22.204 99.7398 22.684 99.4998 23.236C99.2598 23.764 98.9478 24.34 98.5638 24.964C98.2038 25.564 97.8318 26.14 97.4478 26.692C97.0638 27.22 96.7158 27.688 96.4038 28.096C96.0918 28.48 95.8878 28.732 95.7918 28.852L95.0358 29.752C95.7318 29.272 96.4278 28.804 97.1238 28.348C97.8198 27.868 98.5518 27.424 99.3198 27.016C99.3678 26.968 99.4878 26.896 99.6798 26.8C99.8958 26.704 100.016 26.68 100.04 26.728ZM108.732 26.044C108.78 26.092 108.708 26.224 108.516 26.44C108.324 26.656 108.096 26.896 107.832 27.16C107.592 27.424 107.352 27.676 107.112 27.916C106.872 28.132 106.728 28.264 106.68 28.312C105.72 29.152 104.736 29.98 103.728 30.796C102.72 31.588 101.616 32.32 100.416 32.992C99.8398 33.328 99.2398 33.64 98.6158 33.928C97.9918 34.192 97.3438 34.336 96.6718 34.36C96.0958 34.36 95.5798 34.18 95.1238 33.82C94.6918 33.436 94.5118 32.932 94.5838 32.308C94.7278 30.94 95.1718 29.704 95.9158 28.6C96.6598 27.496 97.4878 26.452 98.3998 25.468C98.8558 24.988 99.3358 24.544 99.8398 24.136C100.344 23.704 100.872 23.296 101.424 22.912C101.952 22.528 102.504 22.192 103.08 21.904C103.656 21.592 104.256 21.34 104.88 21.148C105.168 21.052 105.48 21.004 105.816 21.004C106.152 20.98 106.464 21.04 106.752 21.184C107.328 21.52 107.592 21.988 107.544 22.588C107.496 23.164 107.268 23.764 106.86 24.388C106.668 24.652 106.476 24.904 106.284 25.144C106.092 25.384 105.888 25.624 105.672 25.864C104.808 26.8 103.836 27.592 102.756 28.24C101.988 28.672 101.22 29.056 100.452 29.392C99.6838 29.704 98.8078 29.992 97.8238 30.256C97.2958 30.952 96.9118 31.72 96.6718 32.56C97.3678 32.56 98.1358 32.404 98.9758 32.092C99.8158 31.756 100.656 31.348 101.496 30.868C102.336 30.364 103.164 29.848 103.98 29.32C104.796 28.768 105.54 28.276 106.212 27.844C106.26 27.82 106.416 27.712 106.68 27.52C106.944 27.328 107.22 27.124 107.508 26.908C107.82 26.668 108.096 26.464 108.336 26.296C108.6 26.128 108.732 26.044 108.732 26.044ZM99.5158 27.988C99.2758 28.252 99.0838 28.48 98.9398 28.672C98.8198 28.864 98.6758 29.08 98.5078 29.32C99.3238 29.104 100.116 28.792 100.884 28.384C101.676 27.952 102.396 27.448 103.044 26.872C103.716 26.296 104.304 25.648 104.808 24.928C105.336 24.208 105.744 23.428 106.032 22.588C104.76 23.188 103.608 23.968 102.576 24.928C101.544 25.888 100.524 26.908 99.5158 27.988Z" fill="#8C8883"/>
</svg>
