<svg width="96" height="95" viewBox="0 0 96 95" fill="none" xmlns="http://www.w3.org/2000/svg">
<ellipse cx="48" cy="47.5" rx="48" ry="47.5" fill="black"/>
<rect width="31.5192" height="2.77306" rx="1.38653" transform="matrix(-0.619233 -0.785207 -0.791457 0.611225 88.145 39.0935)" fill="url(#paint0_linear_501_11)"/>
<rect width="31.5192" height="2.77306" rx="1.38653" transform="matrix(0.619233 -0.785207 0.791457 0.611225 7.77637 39.0935)" fill="url(#paint1_linear_501_11)"/>
<rect width="36.3742" height="2.78182" rx="1.39091" transform="matrix(-0.27735 0.960769 0.962288 0.272032 69.825 37.6028)" fill="url(#paint2_linear_501_11)"/>
<rect width="36.3742" height="2.78182" rx="1.39091" transform="matrix(0.27735 0.960769 -0.962288 0.272032 26.0962 37.6028)" fill="url(#paint3_linear_501_11)"/>
<rect width="47.5379" height="2.78182" rx="1.39091" transform="matrix(-0.27735 0.960769 0.962288 0.272032 67.4248 14.5347)" fill="url(#paint4_linear_501_11)"/>
<rect width="47.5379" height="2.78182" rx="1.39091" transform="matrix(0.27735 0.960769 -0.962288 0.272032 28.4966 14.5347)" fill="url(#paint5_linear_501_11)"/>
<rect width="10.5158" height="2.76673" rx="1.38336" transform="matrix(0.77581 0.630967 -0.638903 0.769287 38.6323 71.8203)" fill="url(#paint6_linear_501_11)"/>
<rect width="10.5158" height="2.76673" rx="1.38336" transform="matrix(-0.77581 0.630967 0.638903 0.769287 57.2446 71.8203)" fill="url(#paint7_linear_501_11)"/>
<defs>
<linearGradient id="paint0_linear_501_11" x1="7.36107" y1="0.5888" x2="7.62491" y2="3.66982" gradientUnits="userSpaceOnUse">
<stop stop-color="#FF0000"/>
<stop offset="1" stop-color="#FF0431"/>
</linearGradient>
<linearGradient id="paint1_linear_501_11" x1="7.36107" y1="0.5888" x2="7.62491" y2="3.66982" gradientUnits="userSpaceOnUse">
<stop stop-color="#FF0000"/>
<stop offset="1" stop-color="#FF0431"/>
</linearGradient>
<linearGradient id="paint2_linear_501_11" x1="8.49491" y1="0.590661" x2="8.72539" y2="3.68693" gradientUnits="userSpaceOnUse">
<stop stop-color="#FF0000"/>
<stop offset="1" stop-color="#FF0431"/>
</linearGradient>
<linearGradient id="paint3_linear_501_11" x1="8.49491" y1="0.590661" x2="8.72539" y2="3.68693" gradientUnits="userSpaceOnUse">
<stop stop-color="#FF0000"/>
<stop offset="1" stop-color="#FF0431"/>
</linearGradient>
<linearGradient id="paint4_linear_501_11" x1="11.1021" y1="0.590661" x2="11.2789" y2="3.69402" gradientUnits="userSpaceOnUse">
<stop stop-color="#FF0000"/>
<stop offset="1" stop-color="#FF0431"/>
</linearGradient>
<linearGradient id="paint5_linear_501_11" x1="11.1021" y1="0.590661" x2="11.2789" y2="3.69402" gradientUnits="userSpaceOnUse">
<stop stop-color="#FF0000"/>
<stop offset="1" stop-color="#FF0431"/>
</linearGradient>
<linearGradient id="paint6_linear_501_11" x1="2.45588" y1="0.587456" x2="3.20006" y2="3.49341" gradientUnits="userSpaceOnUse">
<stop stop-color="#FF0000"/>
<stop offset="1" stop-color="#FF0431"/>
</linearGradient>
<linearGradient id="paint7_linear_501_11" x1="2.45588" y1="0.587456" x2="3.20006" y2="3.49341" gradientUnits="userSpaceOnUse">
<stop stop-color="#FF0000"/>
<stop offset="1" stop-color="#FF0431"/>
</linearGradient>
</defs>
</svg>
